<svg width="30" height="30" viewBox="0 0 30 30" fill="none" xmlns="http://www.w3.org/2000/svg">
<path fill-rule="evenodd" clip-rule="evenodd" d="M7 22.5C7 22.2239 7.22386 22 7.5 22L21.8682 22C22.1443 22 22.3682 22.2239 22.3682 22.5C22.3682 22.7761 22.1443 23 21.8682 23L7.5 23C7.22386 23 7 22.7761 7 22.5Z" fill="#999999"/>
<path fill-rule="evenodd" clip-rule="evenodd" d="M11.9028 14.5598L11.9028 18.3409C11.9028 18.8327 12.3015 19.2314 12.7934 19.2314C13.2852 19.2314 13.6839 18.8327 13.6839 18.3409L13.6839 14.5598C13.6839 14.0679 13.2852 13.6692 12.7934 13.6692C12.3015 13.6692 11.9028 14.0679 11.9028 14.5598ZM10.9028 18.3409C10.9028 19.385 11.7493 20.2314 12.7934 20.2314C13.8375 20.2314 14.6839 19.385 14.6839 18.3409L14.6839 14.5598C14.6839 13.5157 13.8375 12.6692 12.7934 12.6692C11.7493 12.6692 10.9028 13.5157 10.9028 14.5598L10.9028 18.3409Z" fill="#999999"/>
<path fill-rule="evenodd" clip-rule="evenodd" d="M17.1963 10.0225L17.1963 18.3409C17.1963 18.8327 17.595 19.2314 18.0868 19.2314C18.5787 19.2314 18.9774 18.8327 18.9774 18.3409L18.9774 10.0225C18.9774 9.53062 18.5787 9.13191 18.0868 9.13191C17.595 9.13191 17.1963 9.53062 17.1963 10.0225ZM16.1963 18.3409C16.1963 19.385 17.0427 20.2314 18.0868 20.2314C19.131 20.2314 19.9774 19.385 19.9774 18.3409L19.9774 10.0225C19.9774 8.97834 19.131 8.13191 18.0868 8.13191C17.0427 8.13191 16.1963 8.97834 16.1963 10.0225L16.1963 18.3409Z" fill="#999999"/>
</svg>
