<svg width="30" height="30" viewBox="0 0 30 30" fill="none" xmlns="http://www.w3.org/2000/svg">
<path fill-rule="evenodd" clip-rule="evenodd" d="M15 6C15.2761 6 15.5 6.22386 15.5 6.5V23.125C15.5 23.4011 15.2761 23.625 15 23.625C14.7239 23.625 14.5 23.4011 14.5 23.125V6.5C14.5 6.22386 14.7239 6 15 6Z" fill="#999999"/>
<path fill-rule="evenodd" clip-rule="evenodd" d="M17.375 11.4375H12.625C12.0727 11.4375 11.625 11.8852 11.625 12.4375V12.8125C11.625 13.3648 12.0727 13.8125 12.625 13.8125H17.375C17.9273 13.8125 18.375 13.3648 18.375 12.8125V12.4375C18.375 11.8852 17.9273 11.4375 17.375 11.4375ZM12.625 10.4375C11.5204 10.4375 10.625 11.3329 10.625 12.4375V12.8125C10.625 13.9171 11.5204 14.8125 12.625 14.8125H17.375C18.4796 14.8125 19.375 13.9171 19.375 12.8125V12.4375C19.375 11.3329 18.4796 10.4375 17.375 10.4375H12.625Z" fill="#999999"/>
<path fill-rule="evenodd" clip-rule="evenodd" d="M20 17.5625H10C9.44772 17.5625 9 18.0102 9 18.5625V18.9375C9 19.4898 9.44772 19.9375 10 19.9375H20C20.5523 19.9375 21 19.4898 21 18.9375V18.5625C21 18.0102 20.5523 17.5625 20 17.5625ZM10 16.5625C8.89543 16.5625 8 17.4579 8 18.5625V18.9375C8 20.0421 8.89543 20.9375 10 20.9375H20C21.1046 20.9375 22 20.0421 22 18.9375V18.5625C22 17.4579 21.1046 16.5625 20 16.5625H10Z" fill="#999999"/>
</svg>
