<svg width="30" height="30" viewBox="0 0 30 30" fill="none" xmlns="http://www.w3.org/2000/svg">
<path fill-rule="evenodd" clip-rule="evenodd" d="M8.5 22C8.77614 22 9 21.7761 9 21.5V7.1318C9 6.85566 8.77614 6.6318 8.5 6.6318C8.22386 6.6318 8 6.85566 8 7.1318V21.5C8 21.7761 8.22386 22 8.5 22Z" fill="#999999"/>
<path fill-rule="evenodd" clip-rule="evenodd" d="M16.4402 17.0972H12.6591C12.1673 17.0972 11.7686 16.6985 11.7686 16.2066C11.7686 15.7148 12.1673 15.3161 12.6591 15.3161H16.4402C16.9321 15.3161 17.3308 15.7148 17.3308 16.2066C17.3308 16.6985 16.9321 17.0972 16.4402 17.0972ZM12.6591 18.0972C11.615 18.0972 10.7686 17.2507 10.7686 16.2066C10.7686 15.1625 11.615 14.3161 12.6591 14.3161H16.4402C17.4843 14.3161 18.3308 15.1625 18.3308 16.2066C18.3308 17.2507 17.4843 18.0972 16.4402 18.0972H12.6591Z" fill="#999999"/>
<path fill-rule="evenodd" clip-rule="evenodd" d="M20.9775 11.8032H12.6591C12.1673 11.8032 11.7686 11.4045 11.7686 10.9127C11.7686 10.4208 12.1673 10.0221 12.6591 10.0221H20.9775C21.4694 10.0221 21.8681 10.4208 21.8681 10.9127C21.8681 11.4045 21.4694 11.8032 20.9775 11.8032ZM12.6591 12.8032C11.615 12.8032 10.7686 11.9568 10.7686 10.9127C10.7686 9.86855 11.615 9.02212 12.6591 9.02212H20.9775C22.0217 9.02212 22.8681 9.86855 22.8681 10.9127C22.8681 11.9568 22.0217 12.8032 20.9775 12.8032H12.6591Z" fill="#999999"/>
</svg>
