<svg width="30" height="30" viewBox="0 0 30 30" fill="none" xmlns="http://www.w3.org/2000/svg">
<path fill-rule="evenodd" clip-rule="evenodd" d="M7 14.9502C7 14.6741 7.22386 14.4502 7.5 14.4502L21.8682 14.4502C22.1443 14.4502 22.3682 14.6741 22.3682 14.9502C22.3682 15.2263 22.1443 15.4502 21.8682 15.4502L7.5 15.4502C7.22386 15.4502 7 15.2263 7 14.9502Z" fill="#999999"/>
<path fill-rule="evenodd" clip-rule="evenodd" d="M11.9028 13.0598L11.9028 16.8409C11.9028 17.3327 12.3015 17.7314 12.7934 17.7314C13.2852 17.7314 13.6839 17.3327 13.6839 16.8409L13.6839 13.0598C13.6839 12.5679 13.2852 12.1692 12.7934 12.1692C12.3015 12.1692 11.9028 12.5679 11.9028 13.0598ZM10.9028 16.8409C10.9028 17.885 11.7493 18.7314 12.7934 18.7314C13.8375 18.7314 14.6839 17.885 14.6839 16.8409L14.6839 13.0598C14.6839 12.0157 13.8375 11.1692 12.7934 11.1692C11.7493 11.1692 10.9028 12.0157 10.9028 13.0598L10.9028 16.8409Z" fill="#999999"/>
<path fill-rule="evenodd" clip-rule="evenodd" d="M17.1963 10.791L17.1963 19.1094C17.1963 19.6013 17.595 20 18.0868 20C18.5787 20 18.9774 19.6013 18.9774 19.1094L18.9774 10.791C18.9774 10.2992 18.5787 9.90046 18.0868 9.90046C17.595 9.90046 17.1963 10.2992 17.1963 10.791ZM16.1963 19.1094C16.1963 20.1536 17.0427 21 18.0868 21C19.131 21 19.9774 20.1536 19.9774 19.1094L19.9774 10.791C19.9774 9.74689 19.131 8.90046 18.0868 8.90046C17.0427 8.90046 16.1963 9.74689 16.1963 10.791L16.1963 19.1094Z" fill="#999999"/>
</svg>
