<svg width="30" height="30" viewBox="0 0 30 30" fill="none" xmlns="http://www.w3.org/2000/svg">
<path fill-rule="evenodd" clip-rule="evenodd" d="M22.5 22C22.2239 22 22 21.7761 22 21.5V7.1318C22 6.85566 22.2239 6.6318 22.5 6.6318C22.7761 6.6318 23 6.85566 23 7.1318V21.5C23 21.7761 22.7761 22 22.5 22Z" fill="#999999"/>
<path fill-rule="evenodd" clip-rule="evenodd" d="M14.5598 17.0972H18.3409C18.8327 17.0972 19.2314 16.6985 19.2314 16.2066C19.2314 15.7148 18.8327 15.3161 18.3409 15.3161H14.5598C14.0679 15.3161 13.6692 15.7148 13.6692 16.2066C13.6692 16.6985 14.0679 17.0972 14.5598 17.0972ZM18.3409 18.0972C19.385 18.0972 20.2314 17.2507 20.2314 16.2066C20.2314 15.1625 19.385 14.3161 18.3409 14.3161H14.5598C13.5157 14.3161 12.6692 15.1625 12.6692 16.2066C12.6692 17.2507 13.5157 18.0972 14.5598 18.0972H18.3409Z" fill="#999999"/>
<path fill-rule="evenodd" clip-rule="evenodd" d="M10.0225 11.8032H18.3409C18.8327 11.8032 19.2314 11.4045 19.2314 10.9127C19.2314 10.4208 18.8327 10.0221 18.3409 10.0221H10.0225C9.53062 10.0221 9.13191 10.4208 9.13191 10.9127C9.13191 11.4045 9.53062 11.8032 10.0225 11.8032ZM18.3409 12.8032C19.385 12.8032 20.2314 11.9568 20.2314 10.9127C20.2314 9.86855 19.385 9.02212 18.3409 9.02212H10.0225C8.97834 9.02212 8.13191 9.86855 8.13191 10.9127C8.13191 11.9568 8.97834 12.8032 10.0225 12.8032H18.3409Z" fill="#999999"/>
</svg>
