<svg width="30" height="30" viewBox="0 0 30 30" fill="none" xmlns="http://www.w3.org/2000/svg">
<path fill-rule="evenodd" clip-rule="evenodd" d="M7 8.5C7 8.77614 7.22386 9 7.5 9L21.8682 9C22.1443 9 22.3682 8.77614 22.3682 8.5C22.3682 8.22386 22.1443 8 21.8682 8L7.5 8C7.22386 8 7 8.22386 7 8.5Z" fill="#999999"/>
<path fill-rule="evenodd" clip-rule="evenodd" d="M11.9028 16.4402L11.9028 12.6591C11.9028 12.1673 12.3015 11.7686 12.7934 11.7686C13.2852 11.7686 13.6839 12.1673 13.6839 12.6591L13.6839 16.4402C13.6839 16.9321 13.2852 17.3308 12.7934 17.3308C12.3015 17.3308 11.9028 16.9321 11.9028 16.4402ZM10.9028 12.6591C10.9028 11.615 11.7493 10.7686 12.7934 10.7686C13.8375 10.7686 14.6839 11.615 14.6839 12.6591L14.6839 16.4402C14.6839 17.4843 13.8375 18.3308 12.7934 18.3308C11.7493 18.3308 10.9028 17.4843 10.9028 16.4402L10.9028 12.6591Z" fill="#999999"/>
<path fill-rule="evenodd" clip-rule="evenodd" d="M17.1963 20.9775L17.1963 12.6591C17.1963 12.1673 17.595 11.7686 18.0868 11.7686C18.5787 11.7686 18.9774 12.1673 18.9774 12.6591L18.9774 20.9775C18.9774 21.4694 18.5787 21.8681 18.0868 21.8681C17.595 21.8681 17.1963 21.4694 17.1963 20.9775ZM16.1963 12.6591C16.1963 11.615 17.0427 10.7686 18.0868 10.7686C19.131 10.7686 19.9774 11.615 19.9774 12.6591L19.9774 20.9775C19.9774 22.0217 19.131 22.8681 18.0868 22.8681C17.0427 22.8681 16.1963 22.0217 16.1963 20.9775L16.1963 12.6591Z" fill="#999999"/>
</svg>
