<svg width="44" height="45" viewBox="0 0 44 45" fill="none" xmlns="http://www.w3.org/2000/svg">
<path d="M40 22.5C40 32.7173 31.9411 41 22 41C12.0589 41 4 32.7173 4 22.5C4 12.2827 12.0589 4 22 4C31.9411 4 40 12.2827 40 22.5Z" fill="white"/>
<path fill-rule="evenodd" clip-rule="evenodd" d="M22 40C31.3632 40 39 32.191 39 22.5C39 12.809 31.3632 5 22 5C12.6368 5 5 12.809 5 22.5C5 32.191 12.6368 40 22 40ZM22 41C31.9411 41 40 32.7173 40 22.5C40 12.2827 31.9411 4 22 4C12.0589 4 4 12.2827 4 22.5C4 32.7173 12.0589 41 22 41Z" fill="#666666"/>
<path d="M16.1712 23.3049L23.0455 30.179C23.2045 30.3381 23.4167 30.4258 23.643 30.4258C23.8693 30.4258 24.0816 30.3381 24.2406 30.179L24.7468 29.6729C25.0762 29.3431 25.0762 28.8071 24.7468 28.4778L18.9743 22.7053L24.7532 16.9264C24.9122 16.7673 25 16.5552 25 16.329C25 16.1025 24.9122 15.8904 24.7532 15.7312L24.247 15.2252C24.0879 15.0661 23.8757 14.9784 23.6494 14.9784C23.4231 14.9784 23.2109 15.0661 23.0519 15.2252L16.1712 22.1056C16.0118 22.2652 15.9243 22.4784 15.9248 22.7049C15.9243 22.9324 16.0118 23.1454 16.1712 23.3049Z" fill="#666666"/>
</svg>
