<?xml version="1.0" encoding="utf-8"?>
<!-- Generator: Adobe Illustrator 23.0.0, SVG Export Plug-In . SVG Version: 6.00 Build 0)  -->
<svg version="1.1" id="Layer_1" xmlns="http://www.w3.org/2000/svg" xmlns:xlink="http://www.w3.org/1999/xlink" x="0px" y="0px"
	 width="18px" height="18px" viewBox="0 0 18 18" style="enable-background:new 0 0 18 18;" xml:space="preserve">
<style type="text/css">
	.st0{fill-rule:evenodd;clip-rule:evenodd;}
</style>
<path class="st0" d="M17.8,0.2c0.3,0.3,0.3,0.7,0,1L1.2,17.8c-0.3,0.3-0.7,0.3-1,0c-0.3-0.3-0.3-0.7,0-1L16.8,0.2
	C17.1-0.1,17.5-0.1,17.8,0.2z"/>
<path class="st0" d="M12.3,0.2c0.3,0.3,0.3,0.7,0,1l-11,11c-0.3,0.3-0.7,0.3-1,0c-0.3-0.3-0.3-0.7,0-1l11-11
	C11.5-0.1,12-0.1,12.3,0.2z"/>
<path class="st0" d="M6.7,0.2c0.3,0.3,0.3,0.7,0,1L1.2,6.7C0.9,7,0.5,7,0.2,6.7c-0.3-0.3-0.3-0.7,0-1l5.5-5.5C6-0.1,6.5-0.1,6.7,0.2
	z"/>
<path class="st0" d="M17.8,11.3c0.3,0.3,0.3,0.7,0,1l-5.5,5.5c-0.3,0.3-0.7,0.3-1,0c-0.3-0.3-0.3-0.7,0-1l5.5-5.5
	C17.1,11,17.5,11,17.8,11.3z"/>
<path class="st0" d="M1.6,0.2c0.3,0.3,0.3,0.7,0,1L1.2,1.6c-0.3,0.3-0.7,0.3-1,0c-0.3-0.3-0.3-0.7,0-1l0.4-0.4
	C0.9-0.1,1.3-0.1,1.6,0.2z"/>
<path class="st0" d="M17.4,16c0.3,0.3,0.3,0.7,0,1L17,17.4c-0.3,0.3-0.7,0.3-1,0c-0.3-0.3-0.3-0.7,0-1l0.4-0.4
	C16.7,15.7,17.1,15.7,17.4,16z"/>
<path class="st0" d="M17.8,5.7c0.3,0.3,0.3,0.7,0,1l-11,11c-0.3,0.3-0.7,0.3-1,0c-0.3-0.3-0.3-0.7,0-1l11-11
	C17.1,5.4,17.5,5.4,17.8,5.7z"/>
</svg>
