<svg width="30" height="30" viewBox="0 0 30 30" fill="none" xmlns="http://www.w3.org/2000/svg">
<path fill-rule="evenodd" clip-rule="evenodd" d="M15.7189 23L11.5785 18.7216C11.3865 18.5231 11.3916 18.2066 11.5901 18.0146C11.7885 17.8225 12.1051 17.8277 12.2971 18.0262L15.7189 21.562L19.1407 18.0262C19.3327 17.8277 19.6493 17.8225 19.8477 18.0146C20.0461 18.2066 20.0513 18.5231 19.8593 18.7216L15.7189 23Z" fill="#999999"/>
<path fill-rule="evenodd" clip-rule="evenodd" d="M17.2314 19.7759C16.9553 19.7759 16.7314 19.5046 16.7314 19.1699L16.7314 8.60625C16.7314 8.27157 16.9553 8.00025 17.2314 8.00025C17.5076 8.00025 17.7314 8.27157 17.7314 8.60625L17.7314 19.1699C17.7314 19.5046 17.5076 19.7759 17.2314 19.7759Z" fill="#999999"/>
<path fill-rule="evenodd" clip-rule="evenodd" d="M14.2061 19.7759C13.9299 19.7759 13.7061 19.5046 13.7061 19.1699L13.7061 8.60625C13.7061 8.27157 13.9299 8.00025 14.2061 8.00025C14.4822 8.00025 14.7061 8.27157 14.7061 8.60625L14.7061 19.1699C14.7061 19.5046 14.4822 19.7759 14.2061 19.7759Z" fill="#999999"/>
</svg>
