<svg width="370" height="117" viewBox="0 0 370 117" fill="none" xmlns="http://www.w3.org/2000/svg">
<path d="M126.823 0H243.175V116.352H126.823V0Z" fill="white"/>
<path d="M253.647 0H370V116.352H253.647V0Z" fill="white"/>
<path d="M0 0H116.352V116.352H0V0Z" fill="white"/>
<path d="M185.5 81C201.24 81 214 68.2401 214 52.5C214 36.7599 201.24 24 185.5 24C169.76 24 157 36.7599 157 52.5C157 68.2401 169.76 81 185.5 81Z" fill="url(#paint0_linear)"/>
<path d="M168.878 52.2791L188.072 44.3602C189.942 43.4959 196.373 40.9434 196.373 40.9434C196.373 40.9434 199.328 39.7777 199.086 42.5714C199.006 43.7371 198.303 47.7769 197.68 52.1183L195.67 65.0217C195.67 65.0217 195.509 66.8908 194.122 67.2727C192.715 67.5742 190.404 66.107 190.002 65.8055C189.7 65.5643 183.872 61.8461 181.701 60.0573C181.158 59.595 180.455 58.5901 181.781 57.4243C184.736 54.711 188.314 51.3746 190.404 49.1839C191.409 48.1789 192.353 45.9279 188.233 48.7216L176.656 56.4797C176.656 56.4797 175.33 57.3439 172.858 56.5601C170.365 55.7762 167.491 54.8517 167.491 54.8517C167.491 54.8517 165.522 53.5855 168.878 52.2791Z" fill="white"/>
<path d="M328.596 56.1617C328.699 66.7391 337.898 70.2734 338 70.3246C337.923 70.5807 336.539 75.3444 333.157 80.2873C330.236 84.5388 327.212 88.7902 322.446 88.8927C317.757 88.9695 316.245 86.1267 310.89 86.1267C305.535 86.1267 303.869 88.8158 299.41 88.9951C294.798 89.1744 291.288 84.3851 288.367 80.1337C282.345 71.4515 277.758 55.5982 283.934 44.8928C287.008 39.5657 292.466 36.2107 298.411 36.1338C302.921 36.0058 307.174 39.1303 309.942 39.1303C312.709 39.1303 317.885 35.3655 323.343 35.9289C325.624 36.0314 332.03 36.8509 336.155 42.8695C335.822 43.0744 328.494 47.3259 328.596 56.1617ZM319.781 30.1664C322.216 27.2212 323.881 23.0978 323.42 19C319.884 19.1537 315.63 21.3562 313.119 24.3015C310.864 26.9138 308.866 31.114 309.404 35.135C313.324 35.4423 317.322 33.1373 319.781 30.1664Z" fill="black"/>
<path d="M92.1758 70.5471C92.1758 68.9415 93.482 67.6353 95.0876 67.6353C96.6932 67.6353 97.9994 68.9415 97.9994 70.5471C97.9994 72.1526 96.6932 73.4589 95.0876 73.4589C93.482 73.4861 92.1758 72.1526 92.1758 70.5471ZM97.3191 70.5471C97.3191 69.1864 96.3394 68.1795 95.1148 68.1795C93.8902 68.1795 92.9105 69.1592 92.9105 70.5471C92.9105 71.9077 93.8902 72.9146 95.1148 72.9146C96.3122 72.9146 97.3191 71.9077 97.3191 70.5471ZM93.9718 68.8871H95.1964C95.9856 68.8871 96.421 69.1592 96.421 69.8667C96.421 70.4382 96.0945 70.7103 95.5502 70.7648L96.4482 72.2071H95.8223L94.9515 70.792H94.5705V72.2071H93.9446V68.8871H93.9718ZM94.5978 70.3021H95.142C95.4958 70.3021 95.8223 70.2477 95.8223 69.8123C95.8223 69.4313 95.4686 69.3497 95.142 69.3497H94.5978V70.3021Z" fill="#0D529E"/>
<path d="M34.1577 41.9189C29.7764 41.9189 26.0754 44.7491 24.7964 48.695C24.7692 48.7767 24.742 48.8855 24.7148 48.9672L24.4971 49.8108L19 73.5407H32.7971C36.9335 73.5407 40.444 70.9282 41.7774 67.2544L42.2945 64.9957L47.6283 41.9189H34.1577Z" fill="#0D529E"/>
<path d="M60.2008 34C55.6834 34 51.8736 37.0207 50.7034 41.1843C50.6218 41.4836 50.5401 41.8102 50.4857 42.1367L41.3965 81.4598H54.867C59.4933 81.4598 63.3575 78.2759 64.4461 74.0034L73.6713 34.0272H60.2008V34Z" fill="#F27225"/>
<path d="M82.6245 41.9189C78.4065 41.9189 74.8144 44.5586 73.3993 48.2868C73.3176 48.4773 73.0727 49.2665 73.0727 49.2665L67.4668 73.5407H80.9373C85.5636 73.5407 89.4551 70.3567 90.5164 66.057L96.0951 41.9189H82.6245V41.9189Z" fill="#51B748"/>
<path d="M28.1437 50.6815C27.3817 51.3074 26.8919 52.0693 26.7558 52.6952L23.8984 65.5671H24.0617C24.9598 65.5671 25.7761 65.2405 26.5381 64.6146C27.3001 63.9887 27.7899 63.2267 27.9804 62.3559L28.7152 59.0903H34.8381C35.7362 59.0903 36.5526 58.7638 37.3418 58.1379C38.1037 57.512 38.5936 56.75 38.7841 55.852L38.8113 55.6887H29.4771L30.0486 53.1034H38.8929C39.7909 53.1034 40.6073 52.7769 41.3693 52.1782C42.1313 51.5523 42.5939 50.7631 42.8116 49.8923L42.8388 49.729H30.6201C29.7493 49.729 28.9057 50.0556 28.1437 50.6815Z" fill="white"/>
<path d="M90.4621 50.4911C89.9723 50.0013 89.3192 49.7563 88.5572 49.7563H76.3657L76.3385 49.8652C76.284 50.1101 76.2568 50.3278 76.2568 50.5455C76.2568 51.2803 76.5018 51.9062 76.9916 52.4232C77.4814 52.9131 78.1345 53.158 78.8965 53.158H81.5362L78.8965 65.5672H79.0598C79.9578 65.5672 80.7742 65.2407 81.5362 64.642C82.2982 64.0161 82.7608 63.2541 82.9513 62.3833L84.9106 53.1852H91.1152L91.1425 53.0764C91.1969 52.8587 91.1969 52.6137 91.1969 52.396C91.1969 51.6068 90.952 50.9809 90.4621 50.4911Z" fill="white"/>
<path d="M63.6848 49.729H55.4392H52.0375L48.6631 65.5671H48.8264C49.7244 65.5671 50.5408 65.2405 51.3028 64.6146C52.0647 63.9887 52.5274 63.2267 52.7178 62.3559L53.3982 59.0903H61.7254C62.6235 59.0903 63.4398 58.7638 64.2018 58.1651C64.9638 57.5392 65.4264 56.7772 65.6441 55.8792L66.27 53.0218C66.3244 52.8041 66.3517 52.5592 66.3517 52.3143C66.3517 51.5795 66.1067 50.9536 65.5897 50.4638C65.0999 49.9739 64.4739 49.729 63.6848 49.729ZM54.7044 53.1307H62.8684L62.2969 55.7159H54.1329L54.7044 53.1307Z" fill="white"/>
<defs>
<linearGradient id="paint0_linear" x1="193.827" y1="33.0597" x2="144.464" y2="148.234" gradientUnits="userSpaceOnUse">
<stop stop-color="#37AEE2"/>
<stop offset="1" stop-color="#1E96C8"/>
</linearGradient>
</defs>
</svg>
