<?xml version="1.0" encoding="utf-8"?>
<!-- Generator: Adobe Illustrator 23.0.0, SVG Export Plug-In . SVG Version: 6.00 Build 0)  -->
<svg version="1.1" id="Layer_1" xmlns="http://www.w3.org/2000/svg" xmlns:xlink="http://www.w3.org/1999/xlink" x="0px" y="0px"
	 width="67px" height="18px" viewBox="0 0 67 18" style="enable-background:new 0 0 67 18;" xml:space="preserve">
<style type="text/css">
	.st0{fill:#666666;}
	.st1{fill-rule:evenodd;clip-rule:evenodd;}
</style>
<path class="st0" d="M25.2,14.1v-10h3.3c1.1,0,1.9,0.2,2.4,0.7c0.5,0.4,0.8,1.1,0.8,2c0,0.5-0.1,0.9-0.4,1.2
	c-0.3,0.4-0.6,0.6-1.1,0.8c0.5,0.2,1,0.4,1.3,0.9c0.3,0.4,0.5,0.9,0.5,1.5c0,0.9-0.3,1.6-0.9,2.1s-1.4,0.8-2.5,0.8H25.2z M26.5,9.5
	V13h2.2c0.6,0,1.1-0.2,1.4-0.5c0.4-0.3,0.5-0.8,0.5-1.3c0-1.2-0.7-1.8-2-1.8H26.5z M26.5,8.4h2c0.6,0,1-0.1,1.4-0.4
	c0.3-0.3,0.5-0.7,0.5-1.2c0-0.5-0.2-0.9-0.5-1.2c-0.3-0.3-0.8-0.4-1.5-0.4h-1.9V8.4z"/>
<path class="st0" d="M37.3,7.9c-0.2,0-0.4,0-0.6,0c-0.8,0-1.4,0.4-1.7,1.1v5.2h-1.3V6.7h1.2l0,0.9c0.4-0.7,1-1,1.8-1
	c0.2,0,0.4,0,0.6,0.1V7.9z"/>
<path class="st0" d="M42.7,14.1c-0.1-0.1-0.1-0.4-0.2-0.8c-0.6,0.6-1.3,0.9-2.1,0.9c-0.7,0-1.3-0.2-1.8-0.6
	c-0.5-0.4-0.7-0.9-0.7-1.6c0-0.8,0.3-1.4,0.9-1.8c0.6-0.4,1.4-0.6,2.5-0.6h1.2V9c0-0.4-0.1-0.8-0.4-1.1c-0.3-0.3-0.7-0.4-1.2-0.4
	c-0.5,0-0.8,0.1-1.1,0.3c-0.3,0.2-0.5,0.5-0.5,0.8h-1.3c0-0.4,0.1-0.7,0.4-1.1c0.3-0.3,0.6-0.6,1.1-0.8C40,6.7,40.5,6.6,41,6.6
	c0.9,0,1.5,0.2,2,0.6c0.5,0.4,0.7,1,0.8,1.8v3.4c0,0.7,0.1,1.2,0.3,1.6v0.1H42.7z M40.6,13.2c0.4,0,0.8-0.1,1.1-0.3
	c0.4-0.2,0.6-0.5,0.8-0.8v-1.5h-1c-1.5,0-2.3,0.5-2.3,1.4c0,0.4,0.1,0.7,0.4,0.9C39.9,13,40.2,13.2,40.6,13.2z"/>
<path class="st0" d="M47,6.7l0,0.9c0.6-0.7,1.3-1.1,2.2-1.1c1.6,0,2.4,0.9,2.4,2.6v4.9h-1.3V9.2c0-0.5-0.1-0.9-0.4-1.2
	c-0.2-0.3-0.6-0.4-1.1-0.4c-0.4,0-0.8,0.1-1.1,0.3c-0.3,0.2-0.6,0.5-0.7,0.9v5.3h-1.3V6.7H47z"/>
<path class="st0" d="M53.2,10.4c0-1.1,0.3-2,0.8-2.7c0.5-0.7,1.2-1,2.1-1c0.9,0,1.6,0.3,2.1,0.9V3.6h1.3v10.5h-1.2l-0.1-0.8
	c-0.5,0.6-1.2,0.9-2.1,0.9c-0.9,0-1.6-0.4-2.1-1.1C53.5,12.5,53.2,11.6,53.2,10.4L53.2,10.4z M54.4,10.5c0,0.8,0.2,1.5,0.5,2
	c0.3,0.5,0.8,0.7,1.4,0.7c0.8,0,1.4-0.4,1.8-1.1V8.7c-0.4-0.7-1-1-1.7-1c-0.6,0-1.1,0.2-1.4,0.7C54.6,8.9,54.4,9.6,54.4,10.5z"/>
<path class="st0" d="M65.7,12.2c0-0.3-0.1-0.6-0.4-0.8c-0.3-0.2-0.7-0.4-1.3-0.5c-0.6-0.1-1.1-0.3-1.5-0.5c-0.4-0.2-0.7-0.4-0.8-0.7
	c-0.2-0.3-0.3-0.6-0.3-0.9c0-0.6,0.3-1.1,0.8-1.5c0.5-0.4,1.2-0.6,2-0.6c0.8,0,1.5,0.2,2,0.6c0.5,0.4,0.8,1,0.8,1.7h-1.3
	c0-0.3-0.1-0.6-0.4-0.9c-0.3-0.3-0.7-0.4-1.1-0.4c-0.5,0-0.8,0.1-1.1,0.3c-0.3,0.2-0.4,0.5-0.4,0.8c0,0.3,0.1,0.5,0.4,0.7
	c0.2,0.2,0.7,0.3,1.3,0.4c0.6,0.1,1.1,0.3,1.5,0.5c0.4,0.2,0.7,0.4,0.9,0.7c0.2,0.3,0.3,0.6,0.3,1c0,0.7-0.3,1.2-0.8,1.6
	c-0.5,0.4-1.2,0.6-2.1,0.6c-0.6,0-1.1-0.1-1.6-0.3s-0.8-0.5-1.1-0.9c-0.3-0.4-0.4-0.8-0.4-1.2h1.3c0,0.4,0.2,0.8,0.5,1
	c0.3,0.2,0.7,0.4,1.3,0.4c0.5,0,0.9-0.1,1.1-0.3C65.6,12.7,65.7,12.5,65.7,12.2z"/>
<path class="st1" d="M9,16.5c4.1,0,7.5-3.4,7.5-7.5c0-4.1-3.4-7.5-7.5-7.5C4.9,1.5,1.5,4.9,1.5,9C1.5,13.1,4.9,16.5,9,16.5z M9,18
	c5,0,9-4,9-9c0-5-4-9-9-9C4,0,0,4,0,9C0,14,4,18,9,18z"/>
<path class="st0" d="M9,13.8c-2.6,0-4.8-2.1-4.8-4.8c0-2.6,2.1-4.8,4.8-4.8s4.8,2.1,4.8,4.8C13.8,11.6,11.6,13.8,9,13.8z M9,5.7
	C7.2,5.7,5.8,7.2,5.8,9c0,1.8,1.5,3.3,3.3,3.3s3.3-1.5,3.3-3.3C12.3,7.2,10.8,5.7,9,5.7z"/>
</svg>
