<svg width="30" height="30" viewBox="0 0 30 30" fill="none" xmlns="http://www.w3.org/2000/svg">
<path fill-rule="evenodd" clip-rule="evenodd" d="M20.029 12.6606L16.8101 9.61325C16.4939 9.31397 16.0132 9.30841 15.7364 9.60083L9.57482 16.1093C9.29799 16.4017 9.32984 16.8814 9.64597 17.1806L12.865 20.228C13.1811 20.5273 13.6618 20.5328 13.9386 20.2404L20.1002 13.732C20.377 13.4395 20.3452 12.9599 20.029 12.6606ZM17.3113 9.08377C16.6791 8.48522 15.7177 8.47411 15.164 9.05895L9.00242 15.5674C8.44875 16.1522 8.51245 17.1116 9.14471 17.7101L12.3637 20.7575C12.996 21.356 13.9574 21.3671 14.511 20.7823L20.6726 14.2739C21.2263 13.689 21.1626 12.7297 20.5303 12.1311L17.3113 9.08377Z" fill="#999999"/>
<path fill-rule="evenodd" clip-rule="evenodd" d="M15.3841 19.317L10.4547 14.6504L11.0381 14.0342L15.9675 18.7008L15.3841 19.317Z" fill="#999999"/>
<path fill-rule="evenodd" clip-rule="evenodd" d="M14.5 22.0001C14.5 21.724 14.7239 21.5001 15 21.5001H17C17.2761 21.5001 17.5 21.724 17.5 22.0001C17.5 22.2763 17.2761 22.5001 17 22.5001H15C14.7239 22.5001 14.5 22.2763 14.5 22.0001ZM18.5 22C18.5 21.7239 18.7239 21.5 19 21.5L19.5 21.5001C19.7761 21.5001 20 21.724 20 22.0001C20 22.2763 19.7761 22.5001 19.5 22.5001L19 22.5C18.7239 22.5 18.5 22.2761 18.5 22Z" fill="#999999"/>
<path d="M21 22.0002C21 21.7241 21.2239 21.5002 21.5 21.5002L22 21.5003C22.2761 21.5003 22.5 21.7242 22.5 22.0003C22.5 22.2765 22.2761 22.5003 22 22.5003L21.5 22.5002C21.2239 22.5002 21 22.2763 21 22.0002Z" fill="#999999"/>
<path fill-rule="evenodd" clip-rule="evenodd" d="M16.75 20C16.75 19.7239 16.9739 19.5 17.25 19.5H18.5C18.7761 19.5 19 19.7239 19 20C19 20.2761 18.7761 20.5 18.5 20.5H17.25C16.9739 20.5 16.75 20.2761 16.75 20ZM20 20C20 19.7239 20.2239 19.5 20.5 19.5H22C22.2761 19.5 22.5 19.7239 22.5 20C22.5 20.2761 22.2761 20.5 22 20.5H20.5C20.2239 20.5 20 20.2761 20 20Z" fill="#999999"/>
<path fill-rule="evenodd" clip-rule="evenodd" d="M18.5 18C18.5 17.7239 18.7239 17.5 19 17.5H19.75C20.0261 17.5 20.25 17.7239 20.25 18C20.25 18.2761 20.0261 18.5 19.75 18.5H19C18.7239 18.5 18.5 18.2761 18.5 18ZM20.75 18C20.75 17.7239 20.9739 17.5 21.25 17.5H22C22.2761 17.5 22.5 17.7239 22.5 18C22.5 18.2761 22.2761 18.5 22 18.5H21.25C20.9739 18.5 20.75 18.2761 20.75 18Z" fill="#999999"/>
</svg>
