<svg width="30" height="30" viewBox="0 0 30 30" fill="none" xmlns="http://www.w3.org/2000/svg">
<path fill-rule="evenodd" clip-rule="evenodd" d="M16.7405 12.2001H9.96757C9.42424 12.2001 8.98378 12.6075 8.98378 13.1101V20.1801C8.98378 20.6827 9.42424 21.0902 9.96757 21.0902H16.7405C17.2839 21.0902 17.7243 20.6827 17.7243 20.1801V13.1101C17.7243 12.6075 17.2839 12.2001 16.7405 12.2001ZM9.96757 11.29C8.88091 11.29 8 12.1049 8 13.1101V20.1801C8 21.1853 8.88091 22.0002 9.96757 22.0002H16.7405C17.8272 22.0002 18.7081 21.1853 18.7081 20.1801V13.1101C18.7081 12.1049 17.8272 11.29 16.7405 11.29H9.96757Z" fill="#999999"/>
<path d="M20.0325 8.91001H13.2596C12.7162 8.91001 12.2758 9.31744 12.2758 9.82002H11.292C11.292 8.81485 12.1729 8 13.2596 8H20.0325C21.1192 8 22.0001 8.81485 22.0001 9.82002V16.8901C22.0001 17.8953 21.1192 18.7101 20.0325 18.7101V17.8001C20.5759 17.8001 21.0163 17.3927 21.0163 16.8901V9.82002C21.0163 9.31744 20.5759 8.91001 20.0325 8.91001Z" fill="#999999"/>
</svg>
