<svg width="30" height="30" viewBox="0 0 30 30" fill="none" xmlns="http://www.w3.org/2000/svg">
<path d="M22.375 17.625H19.875V12C19.875 10.9663 19.0337 10.125 18 10.125H12.375V7.62496C12.375 7.27935 12.0956 7 11.75 7C11.4044 7 11.125 7.27935 11.125 7.62496V10.125H8.62496C8.27935 10.125 8 10.4044 8 10.75C8 11.0956 8.27935 11.375 8.62496 11.375H11.125V17C11.125 18.0337 11.9663 18.875 13 18.875H18.625V21.375C18.625 21.7206 18.9044 22 19.25 22C19.5956 22 19.875 21.7206 19.875 21.375V18.875H22.375C22.7206 18.875 23 18.5956 23 18.25C23 17.9044 22.7206 17.625 22.375 17.625ZM13 17.625C12.655 17.625 12.375 17.345 12.375 17V11.375H18C18.345 11.375 18.625 11.655 18.625 12V17.625H13Z" fill="#999999"/>
</svg>
