<svg width="30" height="30" viewBox="0 0 30 30" fill="none" xmlns="http://www.w3.org/2000/svg">
<path fill-rule="evenodd" clip-rule="evenodd" d="M9.54167 16C9.84082 16 10.0833 16.2425 10.0833 16.5417V20.875C10.0833 21.1742 10.3258 21.4167 10.625 21.4167H20.375C20.6742 21.4167 20.9167 21.1742 20.9167 20.875V16.5417C20.9167 16.2425 21.1592 16 21.4583 16C21.7575 16 22 16.2425 22 16.5417V20.875C22 21.7725 21.2725 22.5 20.375 22.5H10.625C9.72754 22.5 9 21.7725 9 20.875V16.5417C9 16.2425 9.24251 16 9.54167 16Z" fill="#999999"/>
<path d="M11.2643 11.7036C11.0493 11.9116 11.0437 12.2546 11.2517 12.4695L15.7371 17.1045L20.2226 12.4695C20.4306 12.2546 20.425 11.9116 20.21 11.7036C19.995 11.4956 19.6521 11.5012 19.4441 11.7162L16.279 14.9868L16.279 8.22389C16.279 8.03121 16.0365 7.87501 15.7373 7.87501C15.4381 7.87501 15.1956 8.03121 15.1956 8.22389L15.1956 14.9871L12.0302 11.7162C11.8221 11.5012 11.4792 11.4956 11.2643 11.7036Z" fill="#999999"/>
</svg>
