<svg width="30" height="30" viewBox="0 0 30 30" fill="none" xmlns="http://www.w3.org/2000/svg">
<path fill-rule="evenodd" clip-rule="evenodd" d="M15.2809 22.9404L11.1405 18.662C10.9485 18.4636 10.9537 18.147 11.1521 17.955C11.3505 17.763 11.6671 17.7682 11.8591 17.9666L15.2809 21.5025L18.7027 17.9666C18.8947 17.7682 19.2113 17.763 19.4097 17.955C19.6082 18.147 19.6133 18.4636 19.4213 18.662L15.2809 22.9404Z" fill="#999999"/>
<path fill-rule="evenodd" clip-rule="evenodd" d="M15.2812 22.4209C15.0051 22.4209 14.7813 22.161 14.7813 21.8404L14.7813 8.58051C14.7813 8.2599 15.0051 8 15.2813 8C15.5574 8 15.7813 8.2599 15.7813 8.58051L15.7813 21.8404C15.7813 22.161 15.5574 22.4209 15.2812 22.4209Z" fill="#999999"/>
</svg>
