<svg width="370" height="117" viewBox="0 0 370 117" fill="none" xmlns="http://www.w3.org/2000/svg">
<path d="M126.823 0H243.175V116.352H126.823V0Z" fill="white"/>
<path d="M253.647 0H370V116.352H253.647V0Z" fill="white"/>
<path d="M0 0H116.352V116.352H0V0Z" fill="white"/>
<path d="M292.094 35.0495C289.586 35.0495 287.678 34.3812 286.368 33.0445C285.077 31.7079 284.385 29.8608 284.291 27.5031C284.272 27.0018 284.263 26.185 284.263 25.0526C284.263 23.9016 284.272 23.0662 284.291 22.5464C284.385 20.2073 285.086 18.3694 286.396 17.0328C287.706 15.6776 289.605 15 292.094 15C293.759 15 295.172 15.297 296.332 15.8911C297.492 16.4666 298.371 17.2277 298.97 18.1745C299.569 19.1213 299.896 20.133 299.952 21.2098V21.2655C299.952 21.414 299.887 21.5439 299.756 21.6553C299.643 21.7481 299.512 21.7946 299.363 21.7946H297.819C297.445 21.7946 297.211 21.5811 297.117 21.1541C296.799 19.7618 296.229 18.7871 295.405 18.2302C294.582 17.6547 293.478 17.367 292.094 17.367C288.875 17.367 287.21 19.1398 287.098 22.6856C287.079 23.1869 287.07 23.9573 287.07 24.9969C287.07 26.0365 287.079 26.8255 287.098 27.3639C287.21 30.9096 288.875 32.6825 292.094 32.6825C293.478 32.6825 294.582 32.4041 295.405 31.8471C296.247 31.2716 296.818 30.2877 297.117 28.8954C297.174 28.6541 297.258 28.487 297.37 28.3942C297.482 28.3014 297.632 28.2549 297.819 28.2549H299.363C299.531 28.2549 299.672 28.3106 299.784 28.422C299.915 28.5148 299.971 28.6448 299.952 28.8119C299.896 29.9072 299.569 30.9282 298.97 31.875C298.371 32.8218 297.492 33.5922 296.332 34.1863C295.172 34.7617 293.759 35.0495 292.094 35.0495Z" fill="#76C6FF"/>
<path d="M302.203 34.771C302.053 34.771 301.922 34.7153 301.81 34.6039C301.697 34.4926 301.641 34.3626 301.641 34.2141C301.641 34.0656 301.651 33.9635 301.669 33.9078L308.63 15.8911C308.779 15.4827 309.079 15.2785 309.528 15.2785H311.436C311.885 15.2785 312.185 15.4827 312.335 15.8911L319.267 33.9078L319.323 34.2141C319.323 34.3626 319.267 34.4926 319.155 34.6039C319.042 34.7153 318.911 34.771 318.762 34.771H317.33C317.125 34.771 316.966 34.7246 316.853 34.6318C316.741 34.5204 316.666 34.409 316.629 34.2976L315.085 30.3434H305.879L304.336 34.2976C304.298 34.409 304.214 34.5204 304.083 34.6318C303.971 34.7246 303.821 34.771 303.634 34.771H302.203ZM314.271 27.9486L310.482 18.0631L306.693 27.9486H314.271Z" fill="#76C6FF"/>
<path d="M322.97 34.771C322.782 34.771 322.623 34.7153 322.492 34.6039C322.38 34.474 322.324 34.3162 322.324 34.1306V15.9468C322.324 15.7426 322.38 15.5848 322.492 15.4734C322.623 15.3434 322.782 15.2785 322.97 15.2785H324.261C324.597 15.2785 324.831 15.4084 324.962 15.6683L334.28 29.87V15.9468C334.28 15.7426 334.336 15.5848 334.449 15.4734C334.58 15.3434 334.739 15.2785 334.926 15.2785H336.273C336.479 15.2785 336.638 15.3434 336.75 15.4734C336.881 15.5848 336.947 15.7426 336.947 15.9468V34.1027C336.947 34.2884 336.881 34.4462 336.75 34.5761C336.638 34.7061 336.488 34.771 336.301 34.771H334.954C334.673 34.771 334.449 34.6411 334.28 34.3812L324.99 20.3187V34.1306C324.99 34.3162 324.925 34.474 324.794 34.6039C324.663 34.7153 324.504 34.771 324.317 34.771H322.97Z" fill="#76C6FF"/>
<path d="M285.919 68.0994C285.732 68.0994 285.573 68.0438 285.442 67.9324C285.33 67.8024 285.273 67.6446 285.273 67.459V59.3835H283.646C283.458 59.3835 283.299 59.3278 283.168 59.2164C283.056 59.0865 283 58.9287 283 58.743V57.8519C283 57.6663 283.056 57.5178 283.168 57.4064C283.299 57.2764 283.458 57.2115 283.646 57.2115H285.273V49.2752C285.273 49.0896 285.33 48.9318 285.442 48.8018C285.573 48.6719 285.732 48.6069 285.919 48.6069H292.29C295.115 48.6069 297.155 49.2381 298.409 50.5004C299.681 51.7443 300.345 53.6285 300.401 56.1533C300.42 56.6917 300.429 57.4157 300.429 58.3253C300.429 59.235 300.42 59.9683 300.401 60.5252C300.345 62.2888 300.046 63.7275 299.503 64.8414C298.979 65.9367 298.137 66.7535 296.977 67.2919C295.817 67.8303 294.292 68.0994 292.402 68.0994H285.919ZM292.29 65.7325C293.581 65.7325 294.61 65.5561 295.377 65.2034C296.144 64.8507 296.696 64.2938 297.033 63.5326C297.389 62.7529 297.585 61.7133 297.623 60.4138C297.641 59.8569 297.651 59.1607 297.651 58.3253C297.651 57.4899 297.641 56.803 297.623 56.2647C297.585 54.4268 297.146 53.0902 296.304 52.2548C295.462 51.4008 294.086 50.9738 292.178 50.9738H288.024V57.2115H291.757C291.944 57.2115 292.094 57.2764 292.206 57.4064C292.318 57.5178 292.374 57.6663 292.374 57.8519V58.743C292.374 58.9287 292.318 59.0865 292.206 59.2164C292.094 59.3278 291.944 59.3835 291.757 59.3835H288.024V65.7325H292.29Z" fill="#76C6FF"/>
<path d="M317.47 68.0994L315.058 61.94H307.11L304.725 68.0994H302.176L310.001 48.1392H312.276L320.088 68.0994H317.47ZM314.305 59.7237L312.057 53.7003L311.098 50.7226C310.824 51.8103 310.536 52.8029 310.234 53.7003L307.959 59.7237H314.305ZM314.305 43.1763C314.305 44.4453 313.546 45.2521 312.03 45.5965L311.893 47.0786H310.371L310.18 44.7127C310.856 44.5949 311.395 44.4317 311.797 44.2232C312.199 44.0147 312.4 43.693 312.4 43.2579C312.4 42.5146 311.788 42.1429 310.563 42.1429C310.079 42.1429 309.631 42.1792 309.22 42.2517V40.8104C309.558 40.7016 310.074 40.6472 310.769 40.6472C313.126 40.6472 314.305 41.4903 314.305 43.1763Z" fill="#76C6FF"/>
<path d="M323.216 68.0994C323.029 68.0994 322.87 68.0438 322.739 67.9324C322.627 67.8024 322.571 67.6446 322.571 67.459V49.2752C322.571 49.071 322.627 48.9132 322.739 48.8018C322.87 48.6719 323.029 48.6069 323.216 48.6069H324.62C324.919 48.6069 325.162 48.7554 325.349 49.0524L331.271 60.3024L337.249 49.0524C337.287 48.941 337.362 48.8389 337.474 48.7461C337.605 48.6533 337.764 48.6069 337.951 48.6069H339.326C339.532 48.6069 339.691 48.6719 339.804 48.8018C339.935 48.9132 340 49.071 340 49.2752V67.459C340 67.6446 339.935 67.8024 339.804 67.9324C339.673 68.0438 339.514 68.0994 339.326 68.0994H337.951C337.764 68.0994 337.605 68.0438 337.474 67.9324C337.362 67.8024 337.306 67.6446 337.306 67.459V53.7585L332.619 62.8365C332.431 63.2263 332.132 63.4212 331.72 63.4212H330.85C330.439 63.4212 330.139 63.2263 329.952 62.8365L325.237 53.7585V67.459C325.237 67.6446 325.172 67.8024 325.041 67.9324C324.928 68.0438 324.779 68.0994 324.591 68.0994H323.216Z" fill="#76C6FF"/>
<path d="M285.666 101C285.479 101 285.32 100.944 285.189 100.833C285.077 100.703 285.021 100.545 285.021 100.36V82.1479C285.021 81.9623 285.077 81.8138 285.189 81.7024C285.32 81.5724 285.479 81.5075 285.666 81.5075H287.154C287.341 81.5075 287.491 81.5724 287.603 81.7024C287.734 81.8138 287.799 81.9623 287.799 82.1479V98.5774H297.117C297.323 98.5774 297.482 98.6423 297.595 98.7723C297.726 98.8837 297.791 99.0415 297.791 99.2457V100.36C297.791 100.545 297.726 100.703 297.595 100.833C297.464 100.944 297.305 101 297.117 101H285.666Z" fill="#76C6FF"/>
<path d="M301.481 101C301.294 101 301.135 100.944 301.004 100.833C300.892 100.703 300.836 100.545 300.836 100.36V82.1758C300.836 81.9715 300.892 81.8138 301.004 81.7024C301.135 81.5724 301.294 81.5075 301.481 81.5075H313.073C313.26 81.5075 313.409 81.5724 313.522 81.7024C313.653 81.8138 313.718 81.9715 313.718 82.1758V83.2339C313.718 83.4196 313.662 83.5774 313.55 83.7073C313.437 83.8187 313.278 83.8744 313.073 83.8744H303.53V89.9728H312.455C312.642 89.9728 312.792 90.0378 312.904 90.1677C313.035 90.2791 313.101 90.4369 313.101 90.6411V91.6714C313.101 91.8571 313.035 92.0149 312.904 92.1448C312.792 92.2562 312.642 92.3119 312.455 92.3119H303.53V98.6331H313.297C313.503 98.6331 313.662 98.6887 313.774 98.8001C313.887 98.9115 313.943 99.0693 313.943 99.2735V100.36C313.943 100.545 313.877 100.703 313.746 100.833C313.634 100.944 313.484 101 313.297 101H301.481ZM303.053 80.1151C302.772 80.1151 302.632 80.0037 302.632 79.781C302.632 79.6324 302.735 79.4561 302.941 79.2519L305.523 76.69C305.71 76.5043 305.86 76.393 305.972 76.3558C306.103 76.3001 306.262 76.2723 306.449 76.2723H307.347C307.534 76.2723 307.684 76.3001 307.796 76.3558C307.927 76.393 308.086 76.5043 308.273 76.69L310.855 79.2519C311.061 79.4561 311.164 79.6324 311.164 79.781C311.164 80.0037 311.024 80.1151 310.743 80.1151H309.985C309.648 80.1151 309.387 80.0501 309.199 79.9202L306.898 78.3329L304.597 79.9202C304.409 80.0501 304.147 80.1151 303.811 80.1151H303.053Z" fill="#76C6FF"/>
<path d="M318.502 101C318.315 101 318.156 100.944 318.025 100.833C317.913 100.703 317.856 100.545 317.856 100.36V82.1758C317.856 81.9715 317.913 81.8138 318.025 81.7024C318.156 81.5724 318.315 81.5075 318.502 81.5075H319.793C320.13 81.5075 320.364 81.6374 320.495 81.8973L329.813 96.099V82.1758C329.813 81.9715 329.869 81.8138 329.981 81.7024C330.112 81.5724 330.271 81.5075 330.458 81.5075H331.805C332.011 81.5075 332.17 81.5724 332.283 81.7024C332.414 81.8138 332.479 81.9715 332.479 82.1758V100.332C332.479 100.517 332.414 100.675 332.283 100.805C332.17 100.935 332.021 101 331.834 101H330.486C330.206 101 329.981 100.87 329.813 100.61L320.523 86.5477V100.36C320.523 100.545 320.457 100.703 320.326 100.833C320.195 100.944 320.036 101 319.849 101H318.502Z" fill="#76C6FF"/>
<path d="M337.708 96.3775C337.521 96.3775 337.362 96.3218 337.231 96.2104C337.119 96.0805 337.063 95.9227 337.063 95.737V82.1479C337.063 81.9623 337.119 81.8138 337.231 81.7024C337.362 81.5724 337.521 81.5075 337.708 81.5075H339.027C339.214 81.5075 339.364 81.5724 339.476 81.7024C339.607 81.8138 339.673 81.9623 339.673 82.1479V95.737C339.673 95.9227 339.607 96.0805 339.476 96.2104C339.364 96.3218 339.214 96.3775 339.027 96.3775H337.708ZM337.456 101C337.268 101 337.109 100.944 336.978 100.833C336.866 100.703 336.81 100.545 336.81 100.36V98.6052C336.81 98.4196 336.866 98.2618 336.978 98.1318C337.109 98.0019 337.268 97.9369 337.456 97.9369H339.252C339.439 97.9369 339.589 98.0019 339.701 98.1318C339.832 98.2618 339.897 98.4196 339.897 98.6052V100.36C339.897 100.545 339.832 100.703 339.701 100.833C339.589 100.944 339.439 101 339.252 101H337.456Z" fill="#76C6FF"/>
<path d="M150.44 56.8942V44.775L150 42.5635L150.44 41.2365H158.807C160.465 41.2365 161.793 41.5609 162.792 42.2096C163.79 42.8583 164.289 43.8462 164.289 45.1731C164.289 45.8955 164.157 46.4926 163.892 46.9644C163.643 47.4215 163.32 47.8122 162.924 48.1365C163.423 48.2545 163.892 48.4756 164.333 48.8C164.773 49.1096 165.133 49.5298 165.412 50.0606C165.69 50.5766 165.83 51.218 165.83 51.9846C165.83 53.5327 165.375 54.7417 164.465 55.6115C163.569 56.4667 162.124 56.8942 160.128 56.8942H150.44ZM155.284 47.3183H157.882C158.381 47.3183 158.741 47.2446 158.961 47.0971C159.181 46.9349 159.291 46.6917 159.291 46.3673C159.291 46.0282 159.129 45.7923 158.807 45.6596C158.484 45.5122 158.102 45.4385 157.662 45.4385H155.284V47.3183ZM155.284 52.6923H159.027C159.614 52.6923 160.025 52.6038 160.26 52.4269C160.495 52.2353 160.612 51.9846 160.612 51.675C160.612 50.9673 160.157 50.6135 159.247 50.6135H155.284V52.6923Z" fill="#FF00BF"/>
<path d="M175.392 57.1154C174.453 57.1154 173.514 57.0048 172.574 56.7837C171.65 56.5478 170.798 56.1349 170.02 55.5452C169.257 54.9555 168.641 54.1372 168.171 53.0904C167.701 52.0436 167.466 50.7019 167.466 49.0654C167.466 47.4288 167.701 46.0872 168.171 45.0404C168.641 43.9936 169.257 43.1753 170.02 42.5856C170.798 41.9958 171.65 41.5904 172.574 41.3692C173.514 41.1333 174.453 41.0154 175.392 41.0154C176.332 41.0154 177.264 41.1333 178.188 41.3692C179.128 41.6051 179.979 42.0179 180.742 42.6077C181.52 43.1974 182.144 44.0157 182.614 45.0625C183.083 46.1093 183.318 47.4436 183.318 49.0654C183.318 50.6872 183.083 52.0215 182.614 53.0683C182.144 54.1151 181.52 54.9333 180.742 55.5231C179.979 56.1128 179.128 56.5256 178.188 56.7615C177.264 56.9974 176.332 57.1154 175.392 57.1154ZM175.392 52.6923C176.346 52.6923 177.066 52.4048 177.55 51.8298C178.034 51.2401 178.277 50.3186 178.277 49.0654C178.277 47.8269 178.034 46.9128 177.55 46.3231C177.066 45.7333 176.346 45.4385 175.392 45.4385C173.484 45.4385 172.53 46.6474 172.53 49.0654C172.53 50.3038 172.765 51.2179 173.235 51.8077C173.719 52.3974 174.438 52.6923 175.392 52.6923ZM182.526 45.4163C182.071 45.4163 181.718 45.3574 181.469 45.2394C181.234 45.1215 181.117 45.0625 181.117 45.0625V43.8683H181.579C182.034 43.8683 182.328 43.7282 182.46 43.4481C182.592 43.1532 182.658 42.7551 182.658 42.2538V41.1702H185.344V42.8067C185.344 43.4702 185.204 43.9936 184.926 44.3769C184.661 44.7455 184.309 45.0109 183.869 45.1731C183.443 45.3353 182.995 45.4163 182.526 45.4163ZM174.292 39.8654V39.6442C174.292 39.2904 174.372 38.9881 174.534 38.7375C174.695 38.4721 174.886 38.251 175.106 38.074C175.326 37.8824 175.517 37.7202 175.679 37.5875C175.84 37.4401 175.921 37.3 175.921 37.1673C175.921 37.1083 175.899 37.0641 175.855 37.0346C175.825 37.0051 175.752 36.9904 175.635 36.9904C175.356 36.9904 175.047 37.0862 174.71 37.2779C174.387 37.4696 174.137 37.6686 173.961 37.875L172.971 36.1058C173.176 35.8994 173.536 35.6635 174.049 35.3981C174.563 35.1327 175.26 35 176.141 35C176.816 35 177.337 35.1474 177.704 35.4423C178.071 35.7224 178.255 36.1279 178.255 36.6587C178.255 37.0862 178.166 37.4474 177.99 37.7423C177.814 38.0224 177.601 38.2731 177.352 38.4942C177.117 38.7006 176.912 38.9071 176.735 39.1135C176.559 39.3199 176.471 39.5705 176.471 39.8654H174.292Z" fill="#FF00BF"/>
<path d="M185.61 56.8942V44.775L185.39 42.5635L185.61 41.2365H190.476V56.8942H185.61Z" fill="#FF00BF"/>
<path d="M202.03 56.8942L198.067 44.7529L197.407 42.5635V41.2365H202.515L205.157 52.4269H205.597L208.217 41.2365H213.259V42.5635L212.598 44.7529L208.657 56.8942H202.03Z" fill="#FF00BF"/>
<path d="M215.13 56.8942V44.775L214.91 42.5635L215.13 41.2365H219.996V56.8942H215.13ZM217.486 40.3077L214.448 37.4106V36.0615H217.596L219.049 40.3077H217.486Z" fill="#FF00BF"/>
<path d="M179.598 76.25L176.735 73.375L179.598 70.5L182.46 73.375L179.598 76.25Z" fill="#FF00BF"/>
<path d="M187.531 76.25L184.669 73.375L187.531 70.5L190.393 73.375L187.531 76.25Z" fill="#FF00BF"/>
<path d="M195.465 76.25L192.603 73.375L195.465 70.5L198.327 73.375L195.465 76.25Z" fill="#FF00BF"/>
<path d="M12.3711 49.8934V35.7389L11.8556 33.1512L12.3711 31.5727H21.108C22.3279 31.5727 23.5049 31.6935 24.6389 31.935C25.7901 32.1592 26.8124 32.5905 27.7058 33.2288C28.6165 33.8671 29.3381 34.7814 29.8707 35.9717C30.4034 37.1621 30.6697 38.7061 30.6697 40.6037C30.6697 42.5013 30.3948 44.0625 29.8449 45.2874C29.3123 46.495 28.5907 47.4351 27.68 48.1079C26.7694 48.7807 25.7471 49.2465 24.6131 49.5053C23.4791 49.764 22.3107 49.8934 21.108 49.8934H12.3711ZM18.0926 44.9769H20.0513C21.0651 44.9769 21.9156 44.8647 22.6028 44.6404C23.3073 44.4162 23.8399 43.9935 24.2007 43.3725C24.5616 42.7342 24.742 41.8113 24.742 40.6037C24.742 39.3788 24.553 38.4818 24.175 37.9125C23.8141 37.326 23.2815 36.9464 22.5771 36.7739C21.8898 36.5842 21.0479 36.4893 20.0513 36.4893H18.0926V44.9769ZM10 41.9234L10.0258 39.8533H21.6492V41.9234H10Z" fill="#0029FF"/>
<path d="M41.857 50.1522C40.7574 50.1522 39.6578 50.0228 38.5581 49.764C37.4757 49.488 36.4791 49.005 35.5685 48.3149C34.675 47.6249 33.9534 46.6675 33.4036 45.4426C32.8538 44.2178 32.5789 42.6479 32.5789 40.7331C32.5789 38.8182 32.8538 37.2483 33.4036 36.0235C33.9534 34.7987 34.675 33.8412 35.5685 33.1512C36.4791 32.4611 37.4757 31.9867 38.5581 31.728C39.6578 31.4519 40.7574 31.3139 41.857 31.3139C42.9567 31.3139 44.0477 31.4519 45.1301 31.728C46.2298 32.004 47.2263 32.487 48.1198 33.1771C49.0304 33.8671 49.7606 34.8245 50.3105 36.0494C50.8603 37.2742 51.1352 38.8354 51.1352 40.7331C51.1352 42.6307 50.8603 44.1919 50.3105 45.4168C49.7606 46.6416 49.0304 47.599 48.1198 48.2891C47.2263 48.9791 46.2298 49.4621 45.1301 49.7382C44.0477 50.0142 42.9567 50.1522 41.857 50.1522ZM41.857 44.9769C42.9738 44.9769 43.8157 44.6404 44.3827 43.9677C44.9497 43.2776 45.2332 42.1994 45.2332 40.7331C45.2332 39.284 44.9497 38.2144 44.3827 37.5243C43.8157 36.8343 42.9738 36.4893 41.857 36.4893C39.6234 36.4893 38.5066 37.9039 38.5066 40.7331C38.5066 42.1822 38.7815 43.2517 39.3313 43.9418C39.8983 44.6318 40.7402 44.9769 41.857 44.9769ZM50.2074 36.4634C49.6747 36.4634 49.2624 36.3944 48.9703 36.2564C48.6954 36.1184 48.5579 36.0494 48.5579 36.0494V34.652H49.0991C49.6318 34.652 49.9754 34.4881 50.13 34.1604C50.2847 33.8153 50.362 33.3496 50.362 32.763V31.4951H53.5063V33.4099C53.5063 34.1862 53.343 34.7987 53.0166 35.2472C52.7073 35.6785 52.2949 35.989 51.7795 36.1788C51.2812 36.3685 50.7572 36.4634 50.2074 36.4634ZM41.857 29.9683L38.3004 26.5785V25H41.9859L43.6869 29.9683H41.857Z" fill="#0029FF"/>
<path d="M53.8177 49.8934V35.713L53.56 33.1253L53.8177 31.5727H59.5135V49.8934H53.8177Z" fill="#0029FF"/>
<path d="M69.3025 49.8934L68.787 48.3408L69.3025 45.7532V31.5727H74.9725V41.4317L74.7147 44.9769H75.2302L79.8435 44.7181L81.6734 44.4593L83.9414 48.2373L82.6785 49.8934H69.3025Z" fill="#0029FF"/>
<path d="M84.2104 49.8934L85.4474 45.5203V42.2339L87.3546 41.4576L90.9628 31.5986H98.7204L103.127 43.1914L105.112 46.8659V49.8934H99.5193L98.2307 46.0378H91.2463L90.1381 49.8934H84.2104ZM92.9473 41.5094H96.8132L95.1122 36.3599H94.571L92.9473 41.5094ZM94.7772 30.4341L91.2205 27.0443V25.4658H94.906L96.607 30.4341H94.7772Z" fill="#0029FF"/>
<path d="M17.2679 82.3759L12.6288 68.1696L11.8556 65.6078V64.0552H17.8349L20.9276 77.1488H21.4431L24.51 64.0552H30.4119V65.6078L29.6388 68.1696L25.0255 82.3759H17.2679Z" fill="#0029FF"/>
<path d="M29.521 82.3759L30.7581 78.0027V74.7164L32.6652 73.9401L36.2734 64.081H44.031L48.4381 75.6738L50.4226 79.3483V82.3759H44.8299L43.5413 78.5203H36.5569L35.4487 82.3759H29.521ZM38.2579 73.9918H42.1238L40.4228 68.8424H39.8816L38.2579 73.9918ZM40.0104 87.4736L37.227 84.7048L40.0104 81.9101L42.7681 84.7048L40.0104 87.4736ZM35.8353 62.1403L38.6445 58H41.2475L44.031 62.1403H41.4279L39.9589 60.6394L38.4125 62.1403H35.8353Z" fill="#0029FF"/>
<path d="M54.7417 82.3759V74.8716L48.3501 65.6078V64.0552H54.819L57.3963 69.3858H57.9118L60.4633 64.0552H66.9064V65.6078L60.3344 75.0269L60.489 77.6404V82.3759H54.7417Z" fill="#0029FF"/>
</svg>
