<?xml version="1.0" encoding="utf-8"?>
<!-- Generator: Adobe Illustrator 23.0.0, SVG Export Plug-In . SVG Version: 6.00 Build 0)  -->
<svg version="1.1" id="Layer_1" xmlns="http://www.w3.org/2000/svg" xmlns:xlink="http://www.w3.org/1999/xlink" x="0px" y="0px"
	 width="18px" height="18px" viewBox="0 0 18 18" style="enable-background:new 0 0 18 18;" xml:space="preserve">
<style type="text/css">
	.st0{fill-rule:evenodd;clip-rule:evenodd;}
</style>
<path class="st0" d="M1.6,1.4c-0.1,0-0.2,0.1-0.2,0.2v4.6c0,0.1,0.1,0.2,0.2,0.2h4.6c0.1,0,0.2-0.1,0.2-0.2V1.6
	c0-0.1-0.1-0.2-0.2-0.2H1.6z M0,1.6C0,0.7,0.7,0,1.6,0h4.6c0.9,0,1.6,0.7,1.6,1.6v4.6c0,0.9-0.7,1.6-1.6,1.6H1.6
	C0.7,7.8,0,7.1,0,6.2V1.6z"/>
<path class="st0" d="M1.6,11.5c-0.1,0-0.2,0.1-0.2,0.2v4.6c0,0.1,0.1,0.2,0.2,0.2h4.6c0.1,0,0.2-0.1,0.2-0.2v-4.6
	c0-0.1-0.1-0.2-0.2-0.2H1.6z M0,11.8c0-0.9,0.7-1.6,1.6-1.6h4.6c0.9,0,1.6,0.7,1.6,1.6v4.6c0,0.9-0.7,1.6-1.6,1.6H1.6
	C0.7,18,0,17.3,0,16.4V11.8z"/>
<path class="st0" d="M11.8,1.4c-0.1,0-0.2,0.1-0.2,0.2v4.6c0,0.1,0.1,0.2,0.2,0.2h4.6c0.1,0,0.2-0.1,0.2-0.2V1.6
	c0-0.1-0.1-0.2-0.2-0.2H11.8z M10.2,1.6c0-0.9,0.7-1.6,1.6-1.6h4.6C17.3,0,18,0.7,18,1.6v4.6c0,0.9-0.7,1.6-1.6,1.6h-4.6
	c-0.9,0-1.6-0.7-1.6-1.6V1.6z"/>
<path class="st0" d="M11.8,11.5c-0.1,0-0.2,0.1-0.2,0.2v4.6c0,0.1,0.1,0.2,0.2,0.2h4.6c0.1,0,0.2-0.1,0.2-0.2v-4.6
	c0-0.1-0.1-0.2-0.2-0.2H11.8z M10.2,11.8c0-0.9,0.7-1.6,1.6-1.6h4.6c0.9,0,1.6,0.7,1.6,1.6v4.6c0,0.9-0.7,1.6-1.6,1.6h-4.6
	c-0.9,0-1.6-0.7-1.6-1.6V11.8z"/>
</svg>
