<svg width="30" height="30" viewBox="0 0 30 30" fill="none" xmlns="http://www.w3.org/2000/svg">
<path d="M8.68806 14.0216L13.4716 9.25496L12.216 8.0007C11.987 7.77196 11.9868 7.40086 12.2156 7.17188C12.4443 6.94287 12.8154 6.9427 13.0444 7.17141L20.1166 14.2359C21.1046 14.5116 21.8315 15.4197 21.8315 16.4944C21.8315 16.8181 21.5692 17.0805 21.2455 17.0805C20.9218 17.0805 20.6594 16.8181 20.6594 16.4944C20.6594 16.0396 20.399 15.6444 20.0194 15.4502L15.0614 20.3912C14.6044 20.8477 14.0045 21.0759 13.4044 21.0759C12.8043 21.0758 12.204 20.8475 11.7475 20.3909L8.68685 17.3382C8.24399 16.8953 8.00012 16.3064 8.00024 15.6801C8.00036 15.0537 8.24443 14.4649 8.68806 14.0216ZM9.51515 16.5088L12.5758 19.5615C13.0325 20.0183 13.776 20.0185 14.2334 19.5615L18.4872 15.3223H11.9855C11.6618 15.3223 11.3994 15.0599 11.3994 14.7362C11.3994 14.4125 11.6618 14.1501 11.9855 14.1501H18.3721L14.3009 10.0834L9.516 14.8514C9.29447 15.0727 9.17242 15.3671 9.17236 15.6803C9.17233 15.9934 9.29423 16.2879 9.51515 16.5088Z" fill="#999999"/>
<path d="M20.2122 18.7007C20.5105 18.2554 20.8054 17.8956 20.8178 17.8805C20.9291 17.745 21.0953 17.6665 21.2706 17.6665C21.4459 17.6665 21.6121 17.745 21.7234 17.8805C21.7358 17.8956 22.0307 18.2554 22.329 18.7007C22.93 19.5981 22.9995 20.0287 22.9995 20.2746C22.9995 21.2279 22.2239 22.0035 21.2706 22.0035C20.3173 22.0035 19.5417 21.2279 19.5417 20.2746C19.5417 20.0287 19.6112 19.5981 20.2122 18.7007ZM21.2706 20.8313C21.5776 20.8313 21.8274 20.5816 21.8274 20.276C21.8273 20.2736 21.812 20.0336 21.3501 19.3456C21.3235 19.306 21.297 19.2671 21.2706 19.2292C21.2443 19.2671 21.2177 19.306 21.1911 19.3456C20.7372 20.0217 20.7146 20.2651 20.7138 20.2756C20.7144 20.5821 20.964 20.8313 21.2706 20.8313Z" fill="#999999"/>
</svg>
