<svg width="30" height="30" viewBox="0 0 30 30" fill="none" xmlns="http://www.w3.org/2000/svg">
<path fill-rule="evenodd" clip-rule="evenodd" d="M13 16H10C9.44772 16 9 16.4477 9 17V20C9 20.5523 9.44772 21 10 21H13C13.5523 21 14 20.5523 14 20V17C14 16.4477 13.5523 16 13 16ZM10 15C8.89543 15 8 15.8954 8 17V20C8 21.1046 8.89543 22 10 22H13C14.1046 22 15 21.1046 15 20V17C15 15.8954 14.1046 15 13 15H10Z" fill="#999999"/>
<path fill-rule="evenodd" clip-rule="evenodd" d="M20 9H17C16.4477 9 16 9.44772 16 10V13C16 13.5523 16.4477 14 17 14H20C20.5523 14 21 13.5523 21 13V10C21 9.44772 20.5523 9 20 9ZM17 8C15.8954 8 15 8.89543 15 10V13C15 14.1046 15.8954 15 17 15H20C21.1046 15 22 14.1046 22 13V10C22 8.89543 21.1046 8 20 8H17Z" fill="#999999"/>
<path fill-rule="evenodd" clip-rule="evenodd" d="M17.3536 12.6464C17.5488 12.8417 17.5488 13.1583 17.3536 13.3536L13.3536 17.3536C13.1583 17.5488 12.8417 17.5488 12.6464 17.3536C12.4512 17.1583 12.4512 16.8417 12.6464 16.6464L16.6464 12.6464C16.8417 12.4512 17.1583 12.4512 17.3536 12.6464Z" fill="#999999"/>
</svg>
