<svg width="30" height="30" viewBox="0 0 30 30" fill="none" xmlns="http://www.w3.org/2000/svg">
<path d="M14.9944 11.2349C13.5728 11.2349 12.9199 12.0777 12.9199 12.6466C12.9199 13.0575 13.2674 13.2471 13.5517 13.2471C14.1204 13.2471 13.8887 12.4359 14.9628 12.4359C15.4893 12.4359 15.9105 12.6676 15.9105 13.1523C15.9105 13.7212 15.3208 14.0478 14.9733 14.3428C14.6679 14.6062 14.2678 15.0381 14.2678 15.9441C14.2678 16.492 14.4152 16.65 14.8469 16.65C15.3629 16.65 15.4682 16.4183 15.4682 16.2181C15.4682 15.6702 15.4787 15.3542 16.0579 14.9012C16.3422 14.6799 17.2373 13.9635 17.2373 12.9732C17.2374 11.9828 16.3423 11.2349 14.9944 11.2349Z" fill="#999999"/>
<path d="M14.8579 17.3774C14.4156 17.3774 14.0576 17.7462 14.0576 18.1887C14.0576 18.6206 14.4051 18.9999 14.8579 18.9999C15.3107 18.9999 15.6687 18.6206 15.6687 18.1887C15.6687 17.7462 15.3002 17.3774 14.8579 17.3774Z" fill="#999999"/>
<path d="M15.0898 8C11.1712 8 8 11.1724 8 15.0929C8 16.9724 8.73078 18.68 9.91824 19.9445L8.45176 22.3287C8.22292 22.7007 8.62186 23.143 9.01525 22.9555L12.0561 21.5055C13.0065 21.9571 14.0259 22.1858 15.0898 22.1858C19.0085 22.1858 22.1797 19.0134 22.1797 15.0929C22.1797 11.1745 19.0108 8 15.0898 8ZM15.0898 21.307C14.0928 21.307 13.1407 21.0779 12.26 20.6261C12.1381 20.5636 11.994 20.5615 11.8702 20.6205L9.97982 21.5219L10.8473 20.1116C10.9554 19.9359 10.9266 19.7086 10.7782 19.5653C9.55341 18.383 8.87891 16.7947 8.87891 15.0929C8.87891 11.6664 11.6651 8.87879 15.0898 8.87879C18.5146 8.87879 21.3008 11.6664 21.3008 15.0929C21.3008 18.5194 18.5146 21.307 15.0898 21.307Z" fill="#999999"/>
</svg>
