<svg width="30" height="30" viewBox="0 0 30 30" fill="none" xmlns="http://www.w3.org/2000/svg">
<path d="M9.58378 15C9.58378 14.7585 9.77978 14.5625 10.0213 14.5625L17.313 14.5625C17.5545 14.5625 17.7505 14.7585 17.7505 15C17.7505 15.2415 17.5545 15.4375 17.313 15.4375L10.0213 15.4375C9.77978 15.4375 9.58378 15.2415 9.58378 15Z" fill="#999999"/>
<path d="M18.3335 19.8126C18.3335 19.6306 18.4472 19.4614 18.6281 19.399C20.5456 18.7375 21.8335 16.97 21.8335 15.0001C21.8335 13.0301 20.5456 11.2626 18.6281 10.6011C18.3994 10.5224 18.2782 10.2739 18.3574 10.0447C18.4362 9.81661 18.6853 9.69528 18.9139 9.774C21.1837 10.5574 22.7085 12.6574 22.7085 15.0001C22.7085 17.3428 21.1837 19.4428 18.9139 20.2262C18.6853 20.3049 18.4368 20.1835 18.3574 19.9555C18.3411 19.9083 18.3335 19.8598 18.3335 19.8126Z" fill="#999999"/>
<path d="M9.00019 8.7292C9.00019 8.32727 9.32746 8 9.7294 8L17.6044 8C18.0063 8 18.3335 8.32727 18.3335 8.7292C18.3335 8.92104 18.2571 9.10368 18.1177 9.24254C18.1102 9.25012 18.0623 9.2921 18.0541 9.29904L14.3611 12.9939C14.1884 13.173 14.0058 13.25 13.8127 13.25C13.6319 13.25 13.4586 13.1841 13.3233 13.0633L9.23358 9.26582C9.08949 9.13637 9.00019 8.93449 9.00019 8.7292ZM9.82798 8.62357C9.82681 8.62239 9.82499 8.62068 9.82328 8.61887L9.82798 8.62357ZM17.2427 8.875L10.098 8.875L13.8051 12.3172L17.2427 8.875ZM13.7065 12.4158L13.7065 12.4222L13.7065 12.4158Z" fill="#999999"/>
<path d="M9.00023 21.2708C9.00023 21.0655 9.08952 20.8636 9.23885 20.7289L13.3169 16.9425C13.4587 16.8159 13.6319 16.75 13.8127 16.75C14.0064 16.75 14.1896 16.8275 14.3278 16.9676C14.3348 16.9746 14.3763 17.0218 14.3827 17.0289L18.0769 20.7225C18.6345 21.262 18.1988 22 17.6044 22L9.72943 22C9.3275 22 9.00023 21.6727 9.00023 21.2708ZM9.83261 21.3717L9.82855 21.3758C9.83026 21.3746 9.83144 21.3736 9.83261 21.3717ZM13.8028 17.6857L10.0987 21.125L17.248 21.125L13.8028 17.6857Z" fill="#999999"/>
<path d="M18.3333 19.8122L18.3333 16.0205C18.3333 15.779 18.5293 15.583 18.7708 15.583C19.0123 15.583 19.2083 15.779 19.2083 16.0205L19.2083 19.3747L22.5625 19.3747C22.804 19.3747 23 19.5707 23 19.8122C23 20.0537 22.804 20.2497 22.5625 20.2497L18.7708 20.2497C18.5293 20.2497 18.3333 20.0537 18.3333 19.8122Z" fill="#999999"/>
</svg>
