<svg width="30" height="31" viewBox="0 0 30 31" fill="none" xmlns="http://www.w3.org/2000/svg">
<path d="M7.13819 20.3448C6.79791 20.6553 6.46684 20.9932 6.16336 21.3402C5.92425 21.605 5.95184 22.0069 6.21854 22.2443C6.33809 22.3539 6.49443 22.3996 6.64157 22.3996C6.81631 22.3996 7.00024 22.3265 7.12899 22.1804C7.40488 21.8607 7.70837 21.5594 8.01185 21.2763C8.26935 21.0388 8.28775 20.637 8.04864 20.3722C7.80033 20.1256 7.39569 20.1073 7.13819 20.3448Z" fill="#999999"/>
<path d="M11.3502 17.8151C10.5777 18.0799 9.82354 18.4361 9.10621 18.8653C8.80273 19.048 8.70157 19.4407 8.8947 19.742C9.01425 19.9429 9.22577 20.0525 9.44649 20.0525C9.55684 20.0525 9.6764 20.0251 9.77756 19.9612C10.4121 19.5776 11.0835 19.2671 11.7732 19.0297C12.1135 18.911 12.2882 18.5457 12.1686 18.2169C12.0583 17.879 11.6904 17.6964 11.3502 17.8151Z" fill="#999999"/>
<path d="M20.9329 18.8653C20.2156 18.4361 19.4615 18.0799 18.689 17.8151C18.3487 17.6964 17.9901 17.879 17.8705 18.2078C17.7509 18.5457 17.9349 18.9018 18.2659 19.0206C18.9557 19.258 19.627 19.5685 20.2616 19.9521C20.3628 20.016 20.4823 20.0434 20.5927 20.0434C20.8134 20.0434 21.0249 19.9338 21.1445 19.7329C21.3376 19.4407 21.2364 19.048 20.9329 18.8653Z" fill="#999999"/>
<path d="M23.885 21.3402C23.5723 20.9932 23.2505 20.6553 22.9102 20.3448C22.6527 20.1073 22.2388 20.1256 21.9997 20.3813C21.7606 20.637 21.779 21.048 22.0365 21.2854C22.34 21.5685 22.6435 21.8699 22.9194 22.1895C23.0481 22.3356 23.2229 22.4087 23.4068 22.4087C23.5539 22.4087 23.7103 22.3539 23.8298 22.2534C24.0965 22.0069 24.1241 21.605 23.885 21.3402Z" fill="#999999"/>
<path d="M11.1387 9.68723H14.3758V18.3402C14.3758 18.6964 14.6609 18.9795 15.0196 18.9795C15.3783 18.9795 15.6634 18.6964 15.6634 18.3402V9.68723H18.9005C19.2592 9.68723 19.5443 9.40413 19.5443 9.04796C19.5443 8.6918 19.2592 8.40869 18.9005 8.40869H11.1387C10.78 8.40869 10.4949 8.6918 10.4949 9.04796C10.4949 9.40413 10.7892 9.68723 11.1387 9.68723Z" fill="#999999"/>
</svg>
