<svg width="30" height="30" viewBox="0 0 30 30" fill="none" xmlns="http://www.w3.org/2000/svg">
<path fill-rule="evenodd" clip-rule="evenodd" d="M15 18C15 18.2761 15.2239 18.5 15.5 18.5C15.7761 18.5 16 18.2761 16 18C16 17.7239 15.7761 17.5 15.5 17.5C15.2239 17.5 15 17.7239 15 18ZM15.5 16.5C14.6716 16.5 14 17.1716 14 18C14 18.8284 14.6716 19.5 15.5 19.5C16.3284 19.5 17 18.8284 17 18C17 17.1716 16.3284 16.5 15.5 16.5Z" fill="#999999"/>
<path fill-rule="evenodd" clip-rule="evenodd" d="M20 14.5H11C10.4477 14.5 10 14.9477 10 15.5V20.5C10 21.0523 10.4477 21.5 11 21.5H20C20.5523 21.5 21 21.0523 21 20.5V15.5C21 14.9477 20.5523 14.5 20 14.5ZM11 13.5C9.89543 13.5 9 14.3954 9 15.5V20.5C9 21.6046 9.89543 22.5 11 22.5H20C21.1046 22.5 22 21.6046 22 20.5V15.5C22 14.3954 21.1046 13.5 20 13.5H11Z" fill="#999999"/>
<path fill-rule="evenodd" clip-rule="evenodd" d="M10.5 10.5C10.5 8.567 12.067 7 14 7H17C18.933 7 20.5 8.567 20.5 10.5V13.5C20.5 13.7761 20.2761 14 20 14C19.7239 14 19.5 13.7761 19.5 13.5V10.5C19.5 9.11929 18.3807 8 17 8H14C12.6193 8 11.5 9.11929 11.5 10.5V14C11.5 14.2761 11.2761 14.5 11 14.5C10.7239 14.5 10.5 14.2761 10.5 14V10.5Z" fill="#999999"/>
</svg>
