<svg width="30" height="30" viewBox="0 0 30 30" fill="none" xmlns="http://www.w3.org/2000/svg">
<path fill-rule="evenodd" clip-rule="evenodd" d="M23.8008 7.19917C24.0664 7.46472 24.0664 7.89528 23.8008 8.16083L8.16083 23.8008C7.89528 24.0664 7.46472 24.0664 7.19917 23.8008C6.93361 23.5353 6.93361 23.1047 7.19917 22.8392L22.8392 7.19917C23.1047 6.93361 23.5353 6.93361 23.8008 7.19917Z" fill="#999999"/>
<path fill-rule="evenodd" clip-rule="evenodd" d="M18.5875 7.19917C18.8531 7.46472 18.8531 7.89528 18.5875 8.16083L8.16083 18.5875C7.89528 18.8531 7.46472 18.8531 7.19917 18.5875C6.93361 18.3219 6.93361 17.8914 7.19917 17.6258L17.6258 7.19917C17.8914 6.93361 18.3219 6.93361 18.5875 7.19917Z" fill="#999999"/>
<path fill-rule="evenodd" clip-rule="evenodd" d="M13.3742 7.19917C13.6397 7.46472 13.6397 7.89528 13.3742 8.16083L8.16083 13.3742C7.89528 13.6397 7.46472 13.6397 7.19917 13.3742C6.93361 13.1086 6.93361 12.6781 7.19917 12.4125L12.4125 7.19917C12.6781 6.93361 13.1086 6.93361 13.3742 7.19917Z" fill="#999999"/>
<path fill-rule="evenodd" clip-rule="evenodd" d="M23.8009 17.6259C24.0665 17.8915 24.0665 18.322 23.8009 18.5876L18.5876 23.8009C18.322 24.0665 17.8915 24.0665 17.6259 23.8009C17.3604 23.5354 17.3604 23.1048 17.6259 22.8393L22.8393 17.6259C23.1048 17.3604 23.5354 17.3604 23.8009 17.6259Z" fill="#999999"/>
<path fill-rule="evenodd" clip-rule="evenodd" d="M8.53321 7.19917C8.79877 7.46472 8.79877 7.89528 8.53321 8.16083L8.16083 8.53321C7.89528 8.79877 7.46472 8.79877 7.19917 8.53321C6.93361 8.26766 6.93361 7.8371 7.19917 7.57155L7.57155 7.19917C7.8371 6.93361 8.26766 6.93361 8.53321 7.19917Z" fill="#999999"/>
<path fill-rule="evenodd" clip-rule="evenodd" d="M23.4287 22.0942C23.6943 22.3597 23.6943 22.7903 23.4287 23.0559L23.0563 23.4282C22.7908 23.6938 22.3602 23.6938 22.0947 23.4282C21.8291 23.1627 21.8291 22.7321 22.0947 22.4666L22.4671 22.0942C22.7326 21.8286 23.1632 21.8286 23.4287 22.0942Z" fill="#999999"/>
<path fill-rule="evenodd" clip-rule="evenodd" d="M23.8004 12.4125C24.0659 12.6781 24.0659 13.1087 23.8004 13.3742L13.3737 23.8009C13.1082 24.0664 12.6776 24.0664 12.4121 23.8009C12.1465 23.5353 12.1465 23.1048 12.4121 22.8392L22.8387 12.4125C23.1043 12.147 23.5348 12.147 23.8004 12.4125Z" fill="#999999"/>
</svg>
