<svg width="30" height="30" viewBox="0 0 30 30" fill="none" xmlns="http://www.w3.org/2000/svg">
<path d="M17 12C17 12.5523 16.5523 13 16 13C15.4477 13 15 12.5523 15 12C15 11.4477 15.4477 11 16 11C16.5523 11 17 11.4477 17 12Z" fill="#999999"/>
<path fill-rule="evenodd" clip-rule="evenodd" d="M15 21C16.2203 21 17.3555 20.6357 18.3028 20.0099L13 14.7071L9.76796 17.9391C10.7965 19.7661 12.7541 21 15 21ZM19.0937 19.3866C19.5432 18.9669 19.9282 18.4789 20.232 17.9391L18 15.7071L16.7071 17L19.0937 19.3866ZM15 22C18.866 22 22 18.866 22 15C22 11.134 18.866 8 15 8C11.134 8 8 11.134 8 15C8 18.866 11.134 22 15 22ZM21 15C21 11.6863 18.3137 9 15 9C11.6863 9 9 11.6863 9 15C9 15.6879 9.11575 16.3487 9.32884 16.9641L12.6464 13.6464C12.8417 13.4512 13.1583 13.4512 13.3536 13.6464L16 16.2929L17.6464 14.6464C17.8417 14.4512 18.1583 14.4512 18.3536 14.6464L20.6712 16.9641C20.8842 16.3487 21 15.6879 21 15Z" fill="#999999"/>
</svg>
