<svg width="18" height="19" viewBox="0 0 18 19" fill="none" xmlns="http://www.w3.org/2000/svg">
<path fill-rule="evenodd" clip-rule="evenodd" d="M1.61533 1.38457C1.49 1.38457 1.38457 1.49 1.38457 1.61533V16.4996C1.38457 16.6249 1.49 16.7304 1.61533 16.7304H4.5C4.62534 16.7304 4.73076 16.6249 4.73076 16.4996V1.61533C4.73076 1.49 4.62534 1.38457 4.5 1.38457H1.61533ZM0 1.61533C0 0.725319 0.725319 0 1.61533 0H4.5C5.39002 0 6.11534 0.725319 6.11534 1.61533V16.4996C6.11534 17.3896 5.39002 18.1149 4.5 18.1149H1.61533C0.725319 18.1149 0 17.3896 0 16.4996V1.61533Z" fill="#FB9700"/>
<path fill-rule="evenodd" clip-rule="evenodd" d="M9.0001 1.49981C8.87476 1.49981 8.76934 1.60523 8.76934 1.73057V4.9999C8.76934 5.12524 8.87476 5.23066 9.0001 5.23066H16.3846C16.51 5.23066 16.6154 5.12524 16.6154 4.9999V1.73057C16.6154 1.60523 16.51 1.49981 16.3846 1.49981H9.0001ZM7.38477 1.73057C7.38477 0.840553 8.11008 0.115234 9.0001 0.115234H16.3846C17.2747 0.115234 18 0.840553 18 1.73057V4.9999C18 5.88992 17.2747 6.61523 16.3846 6.61523H9.0001C8.11008 6.61523 7.38477 5.88992 7.38477 4.9999V1.73057Z" fill="#FB9700"/>
<path fill-rule="evenodd" clip-rule="evenodd" d="M9.0001 9.38457C8.87476 9.38457 8.76934 9.49 8.76934 9.61533V16.4997C8.76934 16.625 8.87476 16.7304 9.0001 16.7304H16.3847C16.5101 16.7304 16.6155 16.625 16.6155 16.4997V9.61533C16.6155 9.49 16.5101 9.38457 16.3847 9.38457H9.0001ZM7.38477 9.61533C7.38477 8.72532 8.11008 8 9.0001 8H16.3847C17.2748 8 18.0001 8.72532 18.0001 9.61533V16.4997C18.0001 17.3897 17.2748 18.115 16.3847 18.115H9.0001C8.11008 18.115 7.38477 17.3897 7.38477 16.4997V9.61533Z" fill="#FB9700"/>
</svg>
