<svg width="370" height="117" viewBox="0 0 370 117" fill="none" xmlns="http://www.w3.org/2000/svg">
<path d="M126.823 0H243.175V116.352H126.823V0Z" fill="white"/>
<path d="M253.647 0H370V116.352H253.647V0Z" fill="white"/>
<path d="M0 0H116.352V116.352H0V0Z" fill="white"/>
<g clip-path="url(#clip0)">
<path fill-rule="evenodd" clip-rule="evenodd" d="M91.204 68.4721C92.4705 66.6568 93.996 65.0485 95.4064 63.3555C96.8071 61.6719 98.064 59.9131 98.7068 57.7969C99.1769 56.2638 99.2633 54.6366 98.9467 53.0565C98.4574 50.6205 96.8551 49.1814 94.3222 48.9651C92.7008 48.824 91.1273 49.0591 89.6881 49.8398C87.7885 50.8744 86.9154 52.4922 86.9346 54.599C86.9346 55.1163 87.2512 55.4925 87.491 55.9252C86.6275 56.0004 85.9464 55.5395 85.6201 54.6554C85.198 53.5268 85.2172 52.2758 85.6777 51.166C86.6659 48.6923 88.6136 47.3662 91.1753 46.8489C97.3156 45.6073 101.086 50.4135 101 55.0599C100.952 57.6464 100.021 59.9131 98.6013 62.0387C97.402 63.8446 95.9532 65.4529 94.5141 67.0707C93.2189 68.5285 91.9524 69.9958 90.7435 71.5195C90.1295 72.2813 89.7457 73.1937 89.6306 74.1624C89.4867 75.2817 89.266 76.3915 89.4579 77.5296C89.525 77.934 89.3427 78.0657 88.9398 78.0187C88.6232 77.9905 88.3066 77.9246 87.9995 77.8306C87.1361 77.5296 86.8866 77.2004 86.9154 76.2975C87.0113 73.5134 87.7117 70.8517 88.508 68.2087C88.6711 67.682 88.8438 67.1647 89.0069 66.6474L89.0165 66.5252L88.9014 66.5628C88.2298 67.2682 87.5966 68.03 86.8674 68.6884C86.3109 69.1869 85.7737 69.676 84.9294 69.2622C84.0563 68.8389 83.5286 68.1899 83.4518 67.2306C83.4039 66.6098 83.5766 66.0173 83.7109 65.4247C83.7397 65.3777 83.7684 65.3213 83.7109 65.2742L83.6341 65.3589C82.7227 66.29 81.8784 67.287 80.9189 68.1805C80.4968 68.585 80.0458 68.9612 79.5661 69.2998C79.2399 69.5161 78.9137 69.5161 78.5683 69.375C77.6664 69.0082 77.062 67.889 77.2827 66.9484C77.417 66.4029 77.5993 65.8668 77.7624 65.3307C77.772 65.293 77.7912 65.2366 77.772 65.2178C77.724 65.1802 77.6952 65.2178 77.676 65.2648C76.8221 66.196 75.9874 67.1365 75.1239 68.0583C74.7881 68.4157 74.4044 68.7166 74.0398 69.0458C73.7328 69.328 73.397 69.328 73.0228 69.1775C72.1017 68.8013 71.4877 67.9266 71.4589 66.9484C71.4685 66.4029 71.5069 65.848 71.6028 65.3024C71.0655 65.895 70.6146 66.4029 70.1445 66.9108C69.54 67.5598 68.926 68.1993 68.216 68.7449C67.5444 69.2622 66.844 69.1869 66.2972 68.5285C65.7215 67.8419 65.616 67.0237 65.7599 66.1772C65.827 65.7633 65.971 65.3589 66.0765 64.9544C66.0765 64.9168 66.0957 64.851 66.0765 64.8322C66.0285 64.7945 65.9997 64.8416 65.9901 64.8886C65.3281 65.7915 64.6757 66.6945 63.9945 67.5786C63.5724 68.1523 63.0831 68.6696 62.5362 69.1305C62.114 69.4785 61.6727 69.5255 61.2122 69.281C60.2048 68.7543 59.6291 67.936 59.5811 66.8073C59.5619 66.4687 59.5811 66.1301 59.5811 65.7445C59.37 65.8103 59.3125 65.989 59.2165 66.1113C58.5545 67.0142 57.9021 67.9266 57.1154 68.7355C56.3286 69.5443 55.1677 69.4221 54.5729 68.4439C54.1699 67.7949 54.0644 66.9954 54.2946 66.2712C54.6976 64.8604 55.3884 63.5718 56.012 62.2457C56.3574 61.512 56.7124 60.7878 57.0866 59.9977C56.7988 59.9789 56.6644 60.1294 56.5493 60.2517C56.2711 60.5244 56.0024 60.8254 55.753 61.1264C54.3714 62.9134 53.1721 64.8228 52.1743 66.8449C51.9728 67.2588 51.8097 67.6726 51.8193 68.1429C51.8193 68.585 51.8769 69.0929 51.3012 69.281C50.7256 69.4691 49.9484 69.1587 49.6318 68.6414C49.3536 68.1805 49.2864 67.6726 49.2576 67.1553C49.2288 66.4969 49.2768 65.8386 49.3919 65.1896C49.4207 65.0203 49.4399 64.851 49.4591 64.6629C49.2768 64.6817 49.2576 64.8228 49.2001 64.9074C48.4421 66.0925 47.6841 67.2682 46.7823 68.3404C46.7055 68.4345 46.6096 68.5285 46.5328 68.6226C45.631 69.7795 44.6715 69.2998 43.9903 68.585C43.2612 67.8137 43.146 66.8261 43.1652 65.8197C43.1652 65.6034 43.2036 65.3871 43.2324 65.0579C42.7718 65.7915 42.3785 66.4217 41.9755 67.0519C41.5342 67.7291 41.0641 68.378 40.4788 68.9424C40.1142 69.2998 39.7113 69.3938 39.2123 69.2434C37.9555 68.8859 37.4182 68.0865 37.6197 66.8073C37.8212 65.4717 38.3776 64.2584 38.9437 63.0451C39.5769 61.6907 40.3349 60.4022 41.0545 59.0948C41.2272 58.775 41.208 58.6433 40.8146 58.5775C40.4788 58.5211 40.1622 58.4176 39.8648 58.2577C39.4138 58.0038 39.2603 58.1543 39.0588 58.5775C37.6677 61.5026 36.0846 64.3243 34.1561 66.9578C33.6572 67.6538 33.1008 68.3028 32.4963 68.8953C32.0358 69.3374 31.5465 69.3938 30.9612 69.1681C29.8195 68.7449 29.1767 67.5692 29.4357 66.4029C29.7523 65.0391 30.328 63.7599 30.8749 62.4808C31.345 61.3709 31.8343 60.2611 32.314 59.1512C32.4388 58.8597 32.5443 58.5681 32.4579 58.2389C32.3812 57.9662 32.5155 57.8721 32.7746 57.8533C33.4557 57.8063 34.6359 58.4458 34.9429 59.0384C35.1156 59.3676 35.0868 59.7062 34.9812 60.0448C34.5591 61.4086 33.9259 62.6971 33.379 64.0139C33.1487 64.5782 32.9089 65.1426 32.6978 65.7163C32.621 65.9326 32.5059 66.1489 32.5827 66.4029C32.8417 66.3653 32.9472 66.1489 33.072 65.989C35.106 63.4119 36.7754 60.5715 38.0322 57.5617C38.1282 57.336 38.0706 57.2325 37.9171 57.082C37.0152 56.2449 36.6794 55.2103 36.8521 54.0158C36.9769 53.1317 37.4086 52.6332 38.0994 52.5768C39.1932 52.5016 39.9991 52.9812 40.2198 53.8654C40.4596 54.8247 40.2389 55.7465 39.9031 56.6306C39.7304 57.082 39.8648 57.2325 40.2485 57.3736C40.757 57.5617 41.2943 57.6652 41.8316 57.6746C43.5586 57.7028 44.1342 58.5681 43.4818 60.1388C43.1076 61.0512 42.5896 61.9071 42.1098 62.7724C41.467 63.901 40.8818 65.0673 40.3637 66.2618C40.2965 66.4311 40.1718 66.591 40.2293 66.8167C40.4788 66.7509 40.6227 66.5534 40.7666 66.3841C42.0043 64.9262 43.1172 63.3743 44.0863 61.7284C44.5756 60.9195 44.7579 59.9413 45.1225 59.0572C45.8708 57.2231 46.6288 55.4079 47.4059 53.5832C47.5402 53.2634 47.5786 53.1317 47.1277 53.1317C45.8996 53.1129 44.7003 53.1976 43.5394 53.6114C43.1748 53.7337 42.839 53.9124 42.5416 54.1569C42.3305 54.345 42.2538 54.251 42.1962 54.0252C42.0427 53.4609 42.3593 52.7555 42.9637 52.3793C43.7313 51.8902 44.6044 51.7867 45.487 51.7397C46.2738 51.6833 47.0509 51.7021 47.8377 51.7867C48.0775 51.815 48.2118 51.7773 48.3078 51.5328C48.5572 50.8932 48.8451 50.263 49.1137 49.6235C49.1713 49.5012 49.2096 49.3601 49.2096 49.219C49.1809 48.7864 49.2576 48.7111 49.6894 48.7958C50.9654 49.0497 51.6658 50.2348 51.2724 51.4764C51.0326 52.2288 51.0326 52.2288 51.8385 52.3887C52.5869 52.5392 53.3352 52.6991 54.0836 52.8872C54.2946 52.9436 54.4098 52.9154 54.4865 52.7179C54.6592 52.2664 55.0622 51.8714 54.8511 51.3071C54.7744 51.1095 54.9567 51.1189 55.0814 51.1378C55.6762 51.2036 56.2423 51.3541 56.722 51.7209C57.2209 52.1065 57.2209 52.605 57.0098 53.1223C56.8755 53.4421 56.9235 53.555 57.3073 53.6302C59.3125 54.0441 61.3081 54.4391 63.3709 54.4579C64.1097 54.4767 64.8388 54.3356 65.5104 54.0441C66.6905 53.4985 67.1511 52.605 66.9496 51.2694C66.9208 51.1001 66.892 50.9308 66.8536 50.7615C66.7673 50.3007 66.8344 50.2254 67.3238 50.3007C68.9068 50.5546 69.7895 51.862 69.4249 53.4045C69.1371 54.6178 68.3599 55.4173 67.199 55.8687C65.5584 56.4989 63.8602 56.4989 62.1524 56.1885C60.3295 55.8593 58.5449 55.3702 56.7508 54.9188C56.5589 54.8717 56.3958 54.7777 56.2711 55.0693C55.1485 57.6558 54.0068 60.2423 52.8747 62.8288C52.8459 62.904 52.8267 62.9793 52.7979 63.0545C52.7691 63.1016 52.7404 63.158 52.8075 63.1862C52.8171 63.1956 52.8555 63.1392 52.8843 63.1204C53.4983 62.2645 54.0068 61.3427 54.688 60.5245C55.2829 59.8002 55.9065 59.1136 56.7412 58.6434C57.5279 58.2013 58.2859 58.2201 59.0342 58.728C59.6771 59.1701 59.869 59.7156 59.6291 60.4398C59.2549 61.5402 58.6984 62.5654 58.1899 63.6095C57.7774 64.456 57.3648 65.3024 56.9619 66.1489C56.8467 66.3841 56.7316 66.6192 56.7316 66.9296C57.0962 66.7979 57.2977 66.5252 57.5087 66.2806C58.9575 64.6535 60.2719 62.9134 61.5672 61.164C62.2484 60.2423 63.0159 59.4146 64.0041 58.8032C64.9635 58.2013 65.9901 58.0696 67.0839 58.3236C67.6596 58.4552 68.1393 58.7468 68.4271 59.3676C69.3769 57.336 70.298 55.389 71.1999 53.4327C71.6412 52.4827 72.0825 51.5234 72.4088 50.517C72.5047 50.2254 72.5719 49.9433 72.3128 49.6799C72.1977 49.567 72.0346 49.4071 72.1593 49.2284C72.2648 49.078 72.4759 49.0874 72.6486 49.0968C73.9342 49.1344 75.0184 50.517 74.6922 51.7303C74.3852 52.906 73.9055 54.0064 73.4353 55.1257C71.9002 58.7844 70.1349 62.3491 68.571 65.989C68.4271 66.3182 68.264 66.638 68.216 67.0613C68.4751 66.9108 68.7053 66.7227 68.9068 66.4969C70.4707 64.851 72.0346 63.1862 73.397 61.3615C74.3756 60.0542 75.5749 58.9819 77.11 58.3236C78.5395 57.7028 80.2761 58.1637 81.1012 59.3488C81.2163 59.2923 81.3123 59.1701 81.2739 59.0666C81.0916 58.6151 81.4082 58.6528 81.6769 58.6434C82.9913 58.5869 83.5478 59.3488 83.116 60.5809C82.9625 61.0135 82.7035 61.3898 82.4444 61.766C81.3315 63.3837 80.4968 65.1426 79.806 66.9578C79.7196 67.193 79.6141 67.4187 79.6333 67.7008C79.8635 67.7197 79.9787 67.5598 80.113 67.4469C81.7632 66.0079 83.2503 64.4089 84.7375 62.81C84.9294 62.6125 85.0157 62.3209 85.15 62.067C85.6297 61.117 86.1095 60.1576 86.5892 59.2077C86.7235 58.9349 86.8098 58.6528 86.6371 58.3612C86.4932 58.1166 86.6467 58.0602 86.8482 58.032C88.0283 57.8909 89.0645 59.0666 88.7479 60.1953C88.508 61.0229 88.1339 61.8036 87.7789 62.5937C87.184 63.9104 86.5124 65.1896 86.0615 66.5628C85.9655 66.8638 85.8888 67.1647 85.8312 67.4751C85.812 67.5786 85.8024 67.7008 85.9272 67.7667C86.0231 67.8137 86.1191 67.7479 86.1862 67.6914C86.4261 67.5127 86.6659 67.3246 86.8866 67.1271C88.0859 65.9702 89.1605 64.7099 90.2158 63.4308C90.3406 63.2615 90.4365 63.0827 90.5037 62.8946C91.0122 61.7284 91.559 60.5809 92.2306 59.4992C92.4705 59.1136 92.7391 58.7374 93.027 58.3894C93.5355 57.7874 93.8617 57.7404 94.5813 58.079C95.2625 58.3988 95.4543 58.9537 95.0514 59.5745C94.0344 61.1452 93.1709 62.81 92.4801 64.5406C91.9716 65.8103 91.5015 67.0895 91.1273 68.3969C91.0985 68.4627 91.0314 68.5662 91.0985 68.5944C91.1945 68.6602 91.1657 68.5285 91.204 68.4721ZM45.7845 67.1459C46.1491 66.986 46.4561 66.7321 46.6863 66.4029C48.4901 64.0515 50.313 61.7284 51.4355 58.9537C52.0975 57.3266 52.9227 55.7747 53.7382 54.1663C53.1529 54.0347 52.5964 53.903 52.04 53.7901C51.5603 53.6867 50.975 53.4139 50.6104 53.5738C50.2075 53.7525 50.1595 54.4203 49.9676 54.8811C48.7107 57.9567 47.3292 60.9853 46.4177 64.1832C46.1395 65.1237 45.8612 66.0737 45.7845 67.1459ZM80.7654 59.9037C79.355 59.9601 78.7506 60.1953 77.7912 61.117C76.2273 62.6219 75.1335 64.4277 74.318 66.4029C74.2509 66.5628 74.1357 66.7321 74.2796 67.0048C76.6207 64.804 78.6643 62.3961 80.7654 59.9037ZM62.21 66.8449C62.21 67.0237 62.2004 67.1835 62.3539 67.2494C62.4978 67.3152 62.5937 67.2118 62.6897 67.1177C62.8528 66.9672 63.0063 66.8073 63.1406 66.6286C64.5702 64.6629 65.9997 62.7065 67.4197 60.7408C67.4773 60.6655 67.5252 60.5809 67.5636 60.4962C67.6212 60.374 67.7459 60.2329 67.65 60.1106C67.554 59.9883 67.3813 60.0542 67.2374 60.0824C66.585 60.2235 66.0861 60.6091 65.6256 61.0512C64.2152 62.4338 63.2078 64.0703 62.4786 65.8856C62.3539 66.196 62.2579 66.5158 62.21 66.8449ZM38.5983 56.2167C38.8861 55.5395 39.1068 54.9188 39.1356 54.2698C39.1452 53.9782 39.078 53.6772 38.723 53.6208C38.3872 53.5644 38.2433 53.8371 38.157 54.0911C37.9075 54.8435 38.061 55.5207 38.5983 56.2167ZM22.6909 61.0888C23.0075 61.07 23.3337 61.0794 23.6503 61.1358C24.8976 61.3051 25.4445 61.9635 25.3773 63.1862C25.3006 64.5406 24.7537 65.7163 23.8422 66.7039C21.7986 68.9048 19.2465 69.977 16.2051 69.8453C14.3918 69.7701 12.9143 69.0552 11.9165 67.5033C11.8301 67.3717 11.7342 67.24 11.6382 67.1177C11.5807 67.0425 11.5231 66.9014 11.3888 66.9484C11.2737 66.986 11.2832 67.1271 11.2641 67.2306C11.1873 67.7008 11.312 68.1335 11.5135 68.5473C12.0988 69.7418 13.039 70.5883 14.2287 71.1715C16.4642 72.2719 18.834 72.3754 21.1846 71.717C24.8688 70.6824 27.4113 68.4063 28.4571 64.7287C29.0903 62.5184 28.1981 60.6091 26.212 59.4992C26.1928 59.4898 26.1832 59.4616 26.1737 59.4428C27.7663 57.9191 28.342 57.0914 28.7833 55.69C29.6084 53.0565 28.7545 50.7239 26.4231 49.426C24.8784 48.5418 23.0939 48.1562 21.3093 48.3067C17.5579 48.6359 14.3438 50.1596 11.6862 52.7649C10.0744 54.345 9.10533 56.2544 9.00939 58.5305C8.92304 60.3269 9.86328 61.8036 11.3792 62.2457C11.715 62.3491 12.0508 62.415 12.3962 62.2927C12.377 62.2551 12.3578 62.2268 12.3386 62.1892C12.2331 62.0764 12.1275 61.9635 12.0028 61.86C11.0626 61.0606 10.8419 60.0824 11.2065 58.9349C11.5327 57.9003 12.0796 56.9504 12.8087 56.1321C15.0826 53.5456 17.9129 51.8056 21.2614 50.8838C22.6046 50.5076 24.0245 50.4982 25.3773 50.865C26.26 51.1095 26.5958 51.5798 26.6054 52.4733C26.615 52.9624 26.5382 53.4421 26.3655 53.903C25.3677 56.4519 23.4872 58.1825 21.0407 59.3676C20.82 59.4898 20.5514 59.5275 20.2923 59.471C20.4362 59.1983 20.5897 58.9349 20.7241 58.6716C21.2038 57.7592 21.7219 56.8657 22.0289 55.8593C22.3359 54.8529 22.2208 53.903 21.6451 53.0189C21.2518 52.4263 20.6953 52.0501 19.9469 52.0313C19.7454 52.0219 19.5056 52.0501 19.6111 52.3323C19.8798 53.0565 19.5823 53.6867 19.2753 54.3074C18.6421 55.6148 17.8841 56.8469 17.1646 58.0978C16.1572 59.8378 15.121 61.5685 14.3726 63.4402C14.0656 64.2208 13.8545 65.0203 13.9313 65.8668C14.0656 67.2776 15.0154 68.1993 16.3874 68.284C16.7808 68.3122 16.9439 68.2182 16.9055 67.8043C16.8192 66.8826 17.0398 65.9985 17.3756 65.1426C18.1144 63.2709 19.141 61.5402 20.1196 59.7626C20.6857 60.8066 21.53 61.2299 22.6909 61.0888ZM70.0294 75.8084C70.3652 75.0465 70.3364 74.2941 69.9046 73.5605C69.5113 72.9115 68.9548 72.4224 68.312 72.0274C67.247 71.369 66.0765 70.9646 64.858 70.7012C60.8476 69.8359 56.8275 69.977 52.7979 70.5601C49.4975 71.0398 46.2738 71.8863 43.0213 72.6293C40.6131 73.1843 38.1954 73.7298 35.6912 73.6075C34.4728 73.5417 33.2639 73.4758 32.1029 73.062C31.652 72.8927 31.2107 72.7046 31.1531 72.1308C31.1531 72.0086 31.0572 71.9145 30.942 71.9051C30.8077 71.8957 30.7501 71.9992 30.6926 72.0932C30.4335 72.5353 30.5199 73.1937 30.9133 73.6733C31.2491 74.0778 31.6808 74.3411 32.1509 74.5481C33.2926 75.0371 34.5303 75.3005 35.7776 75.3005C40.2198 75.3569 44.5564 74.6233 48.8642 73.6545C53.8725 72.5353 58.9095 72.2343 63.9945 73.0526C65.3089 73.2689 66.5946 73.5605 67.7747 74.1906C68.6574 74.6609 69.3482 75.2723 69.4249 76.3633C69.7895 76.2975 69.9238 76.0623 70.0294 75.8084ZM35.2307 56.7058C35.1635 56.3014 35.3075 55.9722 35.4802 55.6336C35.7392 55.1351 36.0174 54.646 36.2669 54.1381C36.5355 53.602 36.5643 53.0565 36.1805 52.5486C35.768 51.9937 35.1539 51.8526 34.4919 51.8526C34.3576 51.8526 34.2233 51.8808 34.2809 52.0595C34.4056 52.4169 34.1945 52.6897 34.0218 52.9624C33.7148 53.4703 33.3502 53.9406 33.1104 54.4955C32.5251 55.8687 33.2447 56.9692 34.799 56.988C34.9429 56.9221 35.3266 57.1385 35.2307 56.7058Z" fill="#FFC16A"/>
<path fill-rule="evenodd" clip-rule="evenodd" d="M31.9403 39.9928C30.4052 40.4161 29.062 40.9616 27.997 42.0056C27.642 42.3254 27.383 42.7298 27.2295 43.1813C27.0856 43.6422 27.0952 44.0748 27.4981 44.4322C27.5941 44.5169 27.6708 44.6109 27.7476 44.7144C27.9491 44.9872 27.9107 45.1753 27.5365 45.2411C26.9225 45.354 26.2892 45.3446 25.6752 45.2129C23.2766 44.6392 21.4345 43.407 20.7149 40.9616C20.312 39.5978 20.5902 38.2716 21.1851 37.0301C23.0464 33.155 26.2029 30.9259 30.4628 30.1735C31.8731 29.9289 33.2931 29.9007 34.6939 30.2581C37.2939 30.9165 38.522 33.1738 37.6489 35.6663C37.3899 36.4187 37.0253 37.1336 36.6415 38.0083C37.5434 38.0083 38.3493 38.0083 39.1648 38.0083C39.3279 38.0083 39.3759 37.886 39.4335 37.7825C40.2874 36.0143 41.2372 34.2931 41.9856 32.4778C42.2062 31.9417 42.3693 31.415 41.9952 30.8695C41.8321 30.625 41.976 30.5497 42.2254 30.5309C44.0292 30.3804 45.3532 31.9041 44.8927 33.6253C44.5664 34.8198 44.0292 35.9485 43.5207 37.0771C42.2446 39.8612 40.8151 42.5699 39.7117 45.4292C39.3855 46.2475 39.1265 47.0846 38.9442 47.9405C38.7427 48.9657 38.8482 49.9344 39.4143 50.8374C39.6925 51.2794 39.6541 51.3359 39.1169 51.3829C36.7663 51.571 35.2216 49.9062 35.567 47.5549C35.826 45.7866 36.5072 44.1501 37.2076 42.5229C37.6489 41.4883 38.1382 40.4725 38.618 39.4003C37.7545 39.4003 36.9294 39.4003 36.1042 39.4003C35.9795 39.3909 35.8548 39.4661 35.8068 39.5884C34.3869 42.316 32.775 44.9495 31.6621 47.8276C31.5469 48.138 31.4606 48.4578 31.3646 48.7682C31.1536 49.4642 31.1536 50.1226 31.6237 50.7339C31.7388 50.875 31.8731 51.0631 31.7484 51.2512C31.6237 51.4393 31.4126 51.3923 31.2207 51.3923C29.5225 51.3547 28.6015 50.4329 28.5919 48.7682C28.5823 47.395 29.014 46.1158 29.5129 44.8555C30.1845 43.2001 31.0288 41.6482 31.9403 39.9928ZM31.5661 37.7167C31.7772 37.7167 31.9883 37.6791 32.1898 37.7261C33.0245 37.9236 33.437 37.538 33.7728 36.8232C34.3389 35.6381 35.0968 34.5282 35.4422 33.2491C35.7588 32.0922 35.2503 31.4526 34.0415 31.5561C29.4362 31.9229 26.1357 34.2273 24.0538 38.2246C23.3918 39.4661 23.2383 40.9052 23.6316 42.2502C23.8331 42.9556 24.2552 43.4729 25.0132 43.6704C25.5409 43.8021 25.5889 43.7644 25.4929 43.2377C25.0516 40.6136 26.414 38.6008 29.0428 37.9612C29.8775 37.7637 30.7218 37.7449 31.5661 37.7167ZM51.9541 36.6069C51.8389 36.1742 52.05 36.0895 52.3474 36.0707C53.4124 35.9955 54.1896 36.9831 53.7962 37.9518C53.0286 39.8423 52.0596 41.6388 51.2345 43.5105C51.0906 43.8397 50.9659 44.1689 50.8315 44.4981L50.9275 44.5827C51.0906 44.4322 51.2633 44.3006 51.4072 44.1407C52.9615 42.5605 54.439 40.9146 55.8206 39.184C56.5498 38.2716 56.9623 37.1336 57.49 36.0801C57.5764 35.9014 57.4804 35.751 57.3749 35.6099C57.1926 35.3653 57.3173 35.2901 57.5668 35.2525C58.4207 35.1396 59.3129 35.9485 59.3417 36.8514C59.3513 37.3969 59.1882 37.9142 59.1786 38.488C59.3897 38.2434 59.6008 37.9895 59.8118 37.7449C60.2628 37.2182 60.7425 36.7103 61.3469 36.3435C62.8149 35.4594 64.3499 36.2118 64.5131 37.8954C64.6282 39.0617 64.3691 40.1715 63.9182 41.2438C63.237 42.8427 62.2296 44.2253 60.8384 45.3069C60.2148 45.7866 59.5432 46.1628 58.7565 46.3133C57.9122 46.4826 57.2118 46.2193 56.6457 45.6079C56.5498 45.5045 56.4442 45.3916 56.5114 45.2317C56.5785 45.0718 56.7225 45.1188 56.8472 45.1094C57.6531 45.053 58.3247 44.705 58.9004 44.1971C60.8384 42.4665 62.0089 40.2938 62.6709 37.839C62.7381 37.585 62.8628 37.2182 62.5942 37.0489C62.3064 36.8702 62.0281 37.143 61.7883 37.3123C61.3373 37.6415 60.944 38.0271 60.5986 38.4691C58.1808 41.4507 56.2236 44.7614 54.7748 48.2979C54.4102 49.1914 54.3047 50.1132 54.3718 51.0631C54.4102 51.6368 54.3143 51.7121 53.7194 51.6839C52.4242 51.6274 51.8102 50.922 51.8965 49.5676C51.9637 48.4578 52.2899 47.4138 52.6545 46.3792C53.0286 45.2975 53.4796 44.2441 53.9497 43.2001C54.0073 43.0778 54.132 42.965 54.0073 42.7675C53.7098 43.1249 53.4124 43.4729 53.115 43.8115C52.4626 44.5827 51.7622 45.3163 51.0138 46.0029C50.5149 46.445 49.9968 46.5297 49.402 46.2193C48.7784 45.8901 48.2794 45.4762 48.2794 44.7144C48.2794 43.9526 48.5289 43.2377 48.8455 42.5511C49.1621 41.8645 49.5075 41.1779 49.8913 40.4067C49.6131 40.5101 49.5267 40.6794 49.4116 40.8111C48.3082 42.1091 47.2049 43.407 46.0919 44.705C45.7561 45.1 45.4011 45.4856 45.0366 45.8619C44.3746 46.5485 44.0963 46.5861 43.252 46.1252C42.5229 45.7302 42.1103 45.1282 42.1391 44.2911C42.2446 41.272 43.6934 38.93 45.9384 36.9831C46.4757 36.5128 47.0898 36.1272 47.7422 35.8356C49.3252 35.1302 50.6109 35.3465 51.9541 36.6069ZM44.8735 44.1124C45.1517 44.009 45.3052 43.7833 45.4683 43.5857C47.0418 41.8175 48.6153 40.0399 50.1791 38.2622C50.3902 38.0271 50.5725 37.7731 50.7644 37.5192C50.8411 37.4251 50.9659 37.3029 50.8891 37.19C50.8028 37.0489 50.6301 37.1336 50.4957 37.1524C49.6322 37.3217 48.9511 37.8108 48.337 38.3939C46.8499 39.8329 45.7657 41.5353 44.9694 43.4164C44.8926 43.6328 44.7679 43.8491 44.8735 44.1124ZM68.8113 37.1242C68.6866 36.0143 67.8807 35.1772 66.9212 35.1302C66.4415 35.102 66.3839 35.1772 66.595 35.5817C66.7389 35.8544 66.7965 36.1742 66.7293 36.4846C66.5662 37.4251 66.1825 38.281 65.7891 39.1369C64.9064 41.0839 63.8894 42.965 63.1027 44.9495C62.4407 46.6049 61.865 48.2791 61.8938 50.0849C61.913 51.0537 62.5174 51.7121 63.4961 51.8061C64.2636 51.872 64.3499 51.825 64.3116 51.0725C64.2252 49.436 64.6282 47.9029 65.2806 46.4262C66.6142 43.407 68.3892 40.5948 70.5383 38.0647C70.8645 37.6979 71.2099 37.3405 71.5745 37.0207C71.8143 36.8044 72.0926 36.4564 72.4188 36.6351C72.745 36.8138 72.6011 37.2464 72.5243 37.5474C71.9103 39.9646 70.7877 42.1091 68.9456 43.8585C68.3412 44.4322 67.6312 44.8555 66.7389 44.8555C66.5854 44.8555 66.4127 44.8743 66.336 45.0436C66.2592 45.2317 66.3744 45.3822 66.4991 45.5045C66.643 45.6455 66.8061 45.7772 66.9884 45.8807C67.8711 46.3698 68.7537 46.3604 69.6172 45.8336C71.5457 44.6956 73.0712 43.0026 74.0114 40.9992C74.424 40.1245 74.5871 39.1651 74.4816 38.2058C74.4048 37.4816 74.2033 36.795 73.6948 36.2306C72.9753 35.4312 72.1597 35.3465 71.2867 35.9673C70.5863 36.4752 70.0202 37.1148 69.4445 37.7449C69.2622 37.933 69.0895 38.1305 68.8209 38.4127C68.8209 37.8954 68.8497 37.5098 68.8113 37.1242ZM76.4964 44.3946C76.8514 44.2817 77.0624 44.0372 77.2639 43.8021C79.3843 41.4319 81.1208 38.8171 82.6367 36.0519C82.7902 35.7792 82.6943 35.3183 83.222 35.3183C83.836 35.3183 84.4117 35.4029 84.8242 35.9014C85.0929 36.2306 85.0833 36.5974 84.901 36.9643C84.5172 37.7167 84.1143 38.4691 83.7305 39.2216C82.7135 41.1779 81.8884 43.2095 81.1592 45.2787C81.1208 45.3728 81.0441 45.4668 81.14 45.5985C81.188 45.5703 81.2456 45.5327 81.2839 45.4951C82.6655 43.8397 84.3445 42.4759 85.9852 41.0839C87.0501 40.1809 88.0959 39.2592 88.9114 38.1117C90.4081 36.0049 90.7823 33.757 89.7365 31.3586C89.276 30.2958 88.5085 29.4587 87.549 28.7909C84.7283 26.7969 80.2861 26.6652 77.3407 28.4805C76.0454 29.2612 75.0764 30.4557 74.5967 31.8665C74.1745 33.0422 74.1841 34.1708 75.1819 35.1396C74.424 35.2242 73.666 34.7069 73.4262 33.9451C73.1671 33.1456 73.2151 32.3368 73.3782 31.5279C73.7044 30.0042 74.4336 28.6968 75.6809 27.7281C78.8758 25.2544 82.4928 24.3233 86.4265 25.5272C92.2886 27.3236 94.4186 33.7476 90.9358 38.7795C90.1491 39.9176 89.1513 40.877 88.0479 41.7046C86.8678 42.5888 85.659 43.4352 84.4597 44.2911C83.3947 45.0718 82.4065 45.9465 81.5046 46.8871C80.478 47.9123 79.8352 49.2384 79.6721 50.6587C79.5378 51.7309 79.3651 52.8031 79.4898 53.8848C79.5378 54.2798 79.3747 54.3644 79.0101 54.3738C77.8492 54.3832 77.2351 53.8754 77.0624 52.7373C76.8801 51.5052 77.2351 50.3389 77.5134 49.1726C77.9163 47.4326 78.4344 45.7208 78.9621 44.0184C79.0293 43.8115 79.1444 43.614 79.0772 43.36C78.9045 43.4352 78.8374 43.6045 78.7414 43.7268C78.0986 44.5263 77.4654 45.3352 76.6787 46.0124C76.2661 46.3698 75.844 46.4074 75.3546 46.2193C74.2321 45.796 73.5989 44.6297 73.8771 43.4823C74.2225 42.015 74.8845 40.6512 75.489 39.2686C75.9303 38.2622 76.3812 37.2652 76.8322 36.2588C76.9569 35.9955 77.0337 35.7227 76.8706 35.45C76.7074 35.1772 76.8801 35.1396 77.1104 35.1302C78.3385 35.0549 79.3651 36.1742 79.1348 37.3593C78.9045 38.5444 78.3769 39.6448 77.9163 40.7641C77.5038 41.7517 77.0816 42.7298 76.6691 43.708C76.5731 43.9149 76.4676 44.1124 76.4964 44.3946Z" fill="#F7C80F"/>
</g>
<path d="M230.935 52.1402C230.288 52.2049 229.608 52.1402 228.993 52.1726C228.313 52.1726 227.633 52.1726 226.954 52.1726C226.306 52.1726 225.626 52.1726 224.979 52.1726C224.299 52.1726 223.619 52.1726 222.94 52.1726C222.292 52.1726 221.612 52.1726 220.9 52.1726C220.9 52.3668 220.868 52.561 220.868 52.7229C220.9 57.5784 220.9 62.434 220.933 67.2895C220.933 67.8398 220.868 68.3901 220.836 69.0051C219.249 69.0699 217.696 69.1022 216.077 69.167C216.045 63.5022 216.012 57.8697 216.012 52.2373C215.592 52.1402 212.905 52.0754 212.257 52.1726C212.16 52.3668 212.355 52.4963 212.387 52.6581C213.002 53.9853 213.488 55.3125 213.682 56.7691C214.103 60.0709 213.649 63.1785 211.869 66.0594C211.092 67.3219 210.024 68.2282 208.664 68.7785C207.078 69.4259 205.492 69.3288 204.035 68.3254C202.158 67.0305 201.219 65.2178 200.96 63.049C200.734 61.2686 200.831 59.4883 200.895 57.6755C200.928 57.0928 200.993 56.5426 201.025 55.9599C201.057 55.8304 201.09 55.6686 201.122 55.4743C202.546 55.442 203.971 55.4096 205.427 55.3772C205.427 55.6686 205.427 55.9275 205.427 56.1865C205.363 57.9345 205.298 59.6501 205.265 61.3981C205.265 61.916 205.363 62.4663 205.427 62.9842C205.427 63.0166 205.427 63.0166 205.427 63.049C205.589 63.6317 205.88 64.2143 206.528 64.2791C207.208 64.3762 207.79 64.0201 208.114 63.4374C208.697 62.434 209.053 61.3657 209.15 60.2328C209.441 57.546 208.794 55.0859 207.208 52.8847C205.945 51.1367 204.456 49.68 202.805 48.3205C201.705 47.4465 200.636 46.5725 199.536 45.6661C199.439 45.569 199.374 45.5043 199.277 45.4072C199.73 44.0476 199.568 42.7204 198.759 41.4903C197.917 40.2926 196.752 39.7423 195.198 40.0013C195.069 39.5805 194.939 39.192 194.777 38.7712C193.645 34.5307 195.231 29.1896 199.083 26.4381C201.543 24.6254 204.294 24.3664 207.078 25.5318C210.089 26.7942 212.096 29.0925 213.099 32.2001C213.941 34.7897 214.264 37.444 213.973 40.1632C213.876 41.1343 213.811 42.073 213.455 43.0117C213.423 43.1089 213.39 43.1412 213.358 43.2707C211.934 43.2383 210.509 43.3678 209.053 43.1736C208.956 42.8175 209.085 42.5262 209.15 42.2025C209.474 40.6811 209.635 39.192 209.603 37.6383C209.538 36.214 209.279 34.7897 208.826 33.4301C208.373 32.0706 207.596 31.0023 206.398 30.2255C205.33 29.5133 204.165 29.1249 202.838 29.5133C202.19 29.7075 201.64 30.0636 201.187 30.5168C199.892 31.8116 199.18 33.3978 198.953 35.2105C198.727 37.0556 199.212 38.6741 200.378 40.0984C200.993 40.8429 201.608 41.5875 202.352 42.2025C203.226 42.9146 204.1 43.6592 205.006 44.3389C206.301 45.3424 207.531 46.443 208.697 47.6407C208.794 47.7378 208.826 47.8349 208.826 47.8349H215.851C215.851 47.576 215.851 47.3817 215.851 47.1875C215.851 46.2164 215.818 45.2777 216.012 44.3389C216.045 44.1771 216.11 44.08 216.174 43.9505H216.207C216.368 43.9505 216.498 43.9505 216.66 43.9505C216.919 43.9829 217.178 43.9829 217.437 43.9505C218.505 43.9829 219.606 44.0152 220.674 44.0476C220.674 44.1123 220.674 44.1447 220.674 44.1771C220.674 45.1806 220.706 46.2488 220.706 47.2523C220.706 47.4141 220.706 47.576 220.706 47.8349C221.871 47.8673 222.972 47.8673 224.073 47.8673C225.206 47.8673 226.339 47.8673 227.472 47.8673C228.572 47.8673 229.705 47.8673 230.87 47.8673C231.065 49.2916 231 50.6835 230.935 52.1402ZM162.148 55.8628C160.95 55.8304 159.785 55.8304 158.587 55.798C158.328 55.798 158.167 55.8951 158.134 56.2188C158.037 56.672 158.037 57.1252 157.972 57.5784C157.843 58.7761 157.713 59.9414 157.519 61.1391C157.325 62.3368 156.872 63.4374 156.16 64.4085C155.965 64.6675 155.739 64.9265 155.48 65.056C154.573 65.3797 153.667 65.4444 152.825 64.797C152.534 64.538 152.243 64.3114 151.984 63.9877C151.045 62.9842 150.495 61.7865 150.203 60.4594C149.524 57.7079 149.265 54.8917 149.2 52.1078C149.071 47.1875 149.297 42.2672 149.653 37.3793C149.912 34.0452 150.365 30.7758 151.11 27.5387C151.498 25.8231 151.951 24.1398 152.728 22.5537C153.149 21.7444 153.602 20.9675 154.25 20.2878C154.509 20.0288 154.768 19.8346 155.059 19.6404C155.512 19.3814 155.998 19.3814 156.419 19.7375C156.937 20.1259 157.357 20.5467 157.616 21.1294C157.908 21.8092 158.231 22.5213 158.458 23.2335C158.943 24.7549 159.041 26.3086 159.138 27.8948C159.3 30.1283 159.235 32.3619 159.17 34.5631C159.073 36.4406 158.911 38.2857 158.652 40.1308C158.587 40.5516 158.523 40.94 158.458 41.3609C158.361 41.9435 158.587 42.2349 159.17 42.2349C160.206 42.2672 161.274 42.2349 162.31 42.2672C162.537 42.2672 162.666 42.1701 162.731 42.0083C162.86 41.5551 163.022 41.1666 163.087 40.6811C163.411 38.4475 163.572 36.214 163.67 34.0128C163.767 30.8729 163.734 27.7329 163.313 24.6254C163.055 22.5213 162.342 20.5144 161.339 18.6692C160.659 17.4715 159.688 16.5004 158.49 15.7883C157.357 15.1409 156.16 14.8495 154.865 15.0761C153.441 15.2704 152.275 15.9501 151.272 16.9212C150.462 17.6981 149.783 18.5721 149.232 19.5432C148.455 20.9028 147.873 22.3271 147.42 23.8161C146.319 27.5387 145.672 31.3261 145.316 35.1781C145.057 38.1562 144.862 41.1343 144.733 44.1123C144.603 47.9968 144.571 51.8812 144.862 55.7333C145.024 57.7079 145.316 59.6825 145.801 61.6247C146.449 64.0848 147.614 66.2537 149.556 67.9693C151.272 69.4907 153.246 70.0734 155.512 69.7173C157.195 69.4583 158.555 68.7138 159.623 67.3542C160.659 65.9623 161.371 64.4085 161.792 62.7253C162.181 61.1715 162.375 59.5206 162.472 57.9345C162.537 57.2871 162.472 56.672 162.472 55.9923C162.342 55.8951 162.213 55.8628 162.148 55.8628ZM162.828 88.5245C160.271 84.2516 157.746 80.0111 155.221 75.7382C154.735 74.8965 154.217 74.0549 153.699 73.2133C153.602 73.0514 153.505 72.8896 153.246 72.8896C151.66 72.9219 150.074 72.9543 148.488 72.9867C148.391 72.9867 148.326 73.0191 148.229 73.0191C148.197 73.1485 148.132 73.278 148.132 73.4075C148.067 74.1197 148.002 74.7994 148.002 75.5116C147.938 83.4747 147.905 91.4702 147.84 99.4333C147.84 99.5951 147.873 99.757 147.873 99.8864C147.938 99.9512 147.938 99.9512 147.97 99.9512C149.2 99.9512 150.462 99.9512 151.725 99.9188C151.984 99.9188 152.049 99.7893 152.049 99.5627C152.081 99.1419 152.146 98.7211 152.146 98.3003C152.21 92.0852 152.243 85.9025 152.275 79.6873C152.275 79.5255 152.308 79.3636 152.308 79.2018C152.34 79.2018 152.372 79.1694 152.405 79.1694C152.502 79.2989 152.599 79.4608 152.664 79.6226C154.056 81.9856 155.512 84.3163 156.904 86.6793C158.231 88.9129 159.559 91.1465 160.886 93.3476C161.048 93.639 161.274 93.7684 161.598 93.7684C162.601 93.7361 163.54 93.7684 164.544 93.7361C165.256 93.7361 165.256 93.7037 165.644 93.0887C168.299 88.8805 170.953 84.6724 173.607 80.4642C173.704 80.3024 173.834 80.1729 173.931 80.0111C173.963 80.0434 174.028 80.0434 174.028 80.0758C173.899 86.7765 173.769 93.5095 173.575 100.275C174.999 100.307 176.391 100.372 177.848 100.275C178.074 91.017 178.236 81.8238 178.463 72.5659C178.204 72.5659 178.042 72.5659 177.848 72.5659C176.618 72.5982 175.355 72.6306 174.093 72.6306C173.672 72.6306 173.445 72.7601 173.219 73.1162C170.014 78.2307 166.777 83.3128 163.572 88.4273C163.475 88.5892 163.346 88.751 163.216 88.9776C163.022 88.8158 162.925 88.6539 162.828 88.5245ZM225.821 78.6191C225.4 77.1301 224.558 75.9648 223.296 75.0584C221.192 73.537 218.796 72.7277 216.207 72.5011C214.167 72.3393 212.16 72.4688 210.153 72.6306C208.082 72.8248 206.172 73.4399 204.391 74.5081C203 75.3174 201.996 76.4503 201.381 77.9394C200.41 80.3024 200.734 83.4423 203.388 85.4816C204.294 86.1614 205.33 86.6146 206.431 86.8736C208.049 87.2944 209.733 87.3268 211.416 87.3268C213.131 87.2944 214.815 87.2296 216.53 87.4239C217.825 87.5533 219.023 87.877 220.091 88.6539C221.289 89.5603 221.645 90.7904 221.386 92.2147C221.062 93.995 219.897 95.1927 218.181 95.743C216.012 96.4552 213.746 96.7465 211.448 96.4228C209.441 96.1315 207.564 95.5165 206.107 93.995C205.622 93.5095 205.168 92.9592 204.942 92.2794C204.683 91.5025 204.456 90.7256 204.197 89.9811C204.1 89.7222 204.035 89.4308 203.938 89.1395C202.514 89.2366 201.09 89.3661 199.665 89.4632C199.665 89.625 199.633 89.7222 199.665 89.8516C199.957 91.4702 200.442 93.0239 201.122 94.513C201.316 94.9338 201.575 95.3546 201.834 95.7107C203.258 97.5234 205.006 98.9153 207.208 99.6922C208.114 99.9836 209.053 100.243 209.992 100.437C212.581 100.922 215.138 100.793 217.663 100.178C218.764 99.9188 219.864 99.6275 220.868 99.0772C222.486 98.1708 223.717 96.9084 224.591 95.2575C225.529 93.5095 225.918 91.6967 225.432 89.6898C224.947 87.6181 223.878 85.9348 222.033 84.8342C221.062 84.2516 220.059 83.8308 218.99 83.5394C216.919 83.0539 214.815 83.0215 212.711 83.0539C211.481 83.0862 210.218 83.0862 208.956 83.0215C208.082 82.9891 207.208 82.7949 206.431 82.3741C205.622 81.9209 205.168 81.2411 205.233 80.27C205.298 79.2989 205.719 78.5544 206.56 78.0688C208.146 77.0977 209.894 76.6445 211.74 76.5151C212.872 76.4503 214.005 76.4503 215.138 76.5151C217.016 76.6122 218.764 77.1625 220.35 78.2307C220.738 78.4896 221.095 78.7486 221.321 79.1694C221.418 79.2989 221.515 79.396 221.677 79.396C223.037 79.396 224.396 79.396 225.885 79.396C225.853 79.1047 225.853 78.8457 225.821 78.6191ZM182.93 55.0211C182.833 57.3518 182.833 59.6825 182.768 62.0131C182.703 64.3114 182.671 66.6097 182.606 68.9728C184.095 68.9404 185.52 68.908 187.009 68.8757C187.073 68.3577 187.106 67.8722 187.106 67.3542C187.203 63.7935 187.268 60.2004 187.365 56.6397C187.365 56.3483 187.462 56.0894 187.624 55.8304C188.174 54.9564 188.983 54.309 189.792 53.7587C190.602 53.2084 191.476 52.9818 192.447 53.0789C192.641 53.1113 192.835 53.0789 193.062 53.0789C193.094 51.5899 193.127 50.198 193.159 48.7737C191.152 48.3205 189.372 48.9032 187.591 49.8419C187.591 49.1945 187.591 48.6118 187.591 48.0615C186.135 48.0615 184.743 48.0615 183.254 48.0615C182.995 50.4246 183.027 52.7229 182.93 55.0211ZM217.599 40.2279C220.156 37.0556 220.447 31.3908 219.703 27.5387C219.508 26.5676 219.249 25.5965 218.602 24.852C217.955 24.1075 216.919 23.6219 215.98 23.9456C214.847 24.3341 214.329 25.6936 214.459 26.8266C214.588 28.0243 215.203 29.0601 215.689 30.1283C217.275 33.4949 217.21 36.6672 217.599 40.2279ZM220.641 40.8106C221.645 41.7169 225.691 38.0267 226.403 37.3793C227.18 36.6672 227.892 35.8579 228.151 34.8868C228.41 33.9157 228.054 32.6532 227.148 32.2324C226.5 31.9411 225.691 32.1029 225.044 32.4914C224.396 32.8798 223.976 33.4625 223.522 34.0452C222.972 34.822 219.67 39.9689 220.641 40.8106ZM223.652 42.9146C224.623 43.821 225.659 44.7921 226.986 45.0187C228.313 45.2777 229.899 44.4684 229.996 43.1412C230.094 41.7817 228.475 40.7458 227.115 40.9077C225.756 41.0695 224.591 42.0406 223.555 42.947" fill="#DE333C"/>
<path d="M169.626 60.5562C171.698 60.4914 173.704 60.4591 175.744 60.3943C175.776 59.6174 175.841 58.8729 175.841 58.1284C175.97 54.9561 176.1 51.8162 176.262 48.6439C176.359 46.0219 176.488 43.4323 176.585 40.8103C176.683 39.0299 176.747 37.2172 176.844 35.4044C176.844 35.1778 176.942 34.9836 176.942 34.757C178.398 34.757 179.79 34.757 181.214 34.757C181.247 34.7894 181.247 34.7894 181.279 34.7894L181.312 34.8218C181.312 35.016 181.344 35.2426 181.312 35.4368C180.826 46.6369 180.308 57.8047 179.855 69.0048C179.855 69.1667 179.79 69.3285 179.758 69.5228C178.301 69.5228 176.877 69.5228 175.388 69.5228C175.452 67.969 175.517 66.5123 175.582 64.8938C173.543 64.9586 171.536 64.9909 169.529 65.0557C169.496 65.8325 169.464 66.5123 169.432 67.2245C169.399 67.8071 169.334 68.3898 169.302 68.9401C169.237 69.4257 169.108 69.5228 168.622 69.5228C167.619 69.5228 166.551 69.5551 165.547 69.5551C165.353 69.5551 165.159 69.5551 164.9 69.5551C164.9 69.2962 164.9 69.102 164.9 68.9077C164.997 66.0915 165.094 63.34 165.191 60.5238C165.321 56.6717 165.45 52.852 165.612 49C165.709 46.1837 165.806 43.4323 165.903 40.616C165.968 39.0946 166 37.6056 166.065 36.0842C166.097 35.7281 166.162 35.4044 166.227 34.9836C167.684 34.9512 169.076 34.8865 170.565 34.8865C170.208 43.3999 169.917 51.978 169.626 60.5562ZM198.403 90.8548C197.529 87.812 196.623 84.7368 195.716 81.694C194.81 78.6512 193.936 75.576 193.03 72.5656C192.641 72.5656 192.382 72.5656 192.058 72.5656C190.99 72.5656 189.954 72.5656 188.854 72.5656C188.562 72.5656 188.336 72.6627 188.239 72.954C188.109 73.3101 187.947 73.6662 187.786 74.0222C185.487 80.7553 183.221 87.5207 180.923 94.2537C180.373 95.8722 179.79 97.4907 179.24 99.1093C179.143 99.433 179.046 99.8214 178.981 100.145C179.078 100.21 179.078 100.242 179.11 100.242C180.34 100.275 181.603 100.339 182.865 100.339C182.898 100.339 182.93 100.339 182.962 100.339C183.157 100.339 183.254 100.242 183.351 100.08C183.513 99.6596 183.707 99.2711 183.869 98.8827C184.063 98.4295 184.063 98.4295 184.549 98.4295C188.239 98.4295 191.929 98.3971 195.619 98.3971C195.781 98.3971 195.943 98.4295 196.105 98.4295C196.267 99.0122 196.428 99.5625 196.623 100.113C198.047 100.113 199.439 100.113 200.96 100.113C200.281 96.9405 199.309 93.8976 198.403 90.8548ZM185.552 94.1242C187.203 89.2039 188.854 84.316 190.537 79.3957C190.764 79.7194 194.842 93.6063 194.875 94.1242C191.8 94.1242 188.692 94.1242 185.552 94.1242ZM197.529 48.2878C196.687 48.2878 195.846 48.2878 195.004 48.2878C194.842 48.2878 194.648 48.3202 194.486 48.3202C194.292 48.9676 194.065 68.1632 194.227 68.7135C194.292 68.7135 194.324 68.7459 194.357 68.7459C195.587 68.7135 196.849 68.6811 198.112 68.6811C198.371 68.6811 198.5 68.5517 198.533 68.3251C198.597 67.8719 198.63 67.4187 198.63 66.9655C198.694 60.8799 198.727 54.8266 198.792 48.7734C198.792 48.6439 198.792 48.482 198.792 48.2555C198.338 48.2555 197.918 48.2878 197.529 48.2878ZM193.127 22.2297C193.03 22.4563 192.997 22.6505 192.868 22.8771C192.609 23.395 192.35 23.913 192.091 24.4309C191.832 24.9488 191.541 25.4344 191.314 25.9847C191.184 26.3084 191.055 26.6644 191.023 27.0529C190.926 27.9592 191.67 28.5419 192.512 28.2506C192.803 28.1535 193.127 27.9592 193.353 27.7327C193.806 27.3766 194.163 26.9558 194.583 26.5673C194.713 26.4378 194.842 26.3084 194.972 26.1789C195.004 26.3407 194.939 26.4702 194.875 26.5997C194.195 27.8621 193.548 29.1569 192.803 30.4194C192.253 31.3905 191.605 32.2969 190.958 33.2032C190.699 33.5917 190.31 33.9478 189.954 34.2715C189.501 34.6599 188.951 34.9189 188.401 34.9836C187.591 35.0807 187.041 34.7246 186.879 33.883C186.847 33.7212 186.847 33.5269 186.847 33.3651C186.912 32.0703 188.077 30.646 189.663 30.7755C189.793 30.7755 189.922 30.8078 190.084 30.7755C190.375 30.7431 190.569 30.5489 190.569 30.3223C190.569 30.0633 190.408 29.9015 190.149 29.8367C190.052 29.8044 189.89 29.772 189.793 29.772C187.365 29.5454 185.52 31.9084 185.876 34.0772C186.102 35.3721 187.138 36.1813 188.465 35.9871C189.372 35.89 190.181 35.5015 190.796 34.8541C191.249 34.4009 191.67 33.9478 192.058 33.4622C192.932 32.2969 193.645 31.0668 194.357 29.772C195.619 27.3442 196.914 24.9164 198.468 22.6829C198.533 22.5858 198.565 22.521 198.63 22.4239C198.759 22.1326 198.727 21.8736 198.533 21.7118C198.306 21.5499 198.079 21.5499 197.82 21.7765C197.561 22.0355 197.302 22.2944 197.011 22.5534C195.878 23.7511 194.778 24.9812 193.677 26.1465C193.353 26.5026 192.997 26.7939 192.641 27.1176C192.512 27.2471 192.285 27.3118 192.091 27.4089C192.026 26.9558 192.026 26.9558 192.188 26.5997C192.447 26.0818 192.706 25.5638 192.965 25.0459C193.289 24.3985 193.612 23.7511 193.904 23.1037C194.033 22.78 194.13 22.3915 194.163 22.0355C194.163 21.3881 193.645 21.032 193.03 21.2262C192.674 21.3233 192.317 21.5499 192.026 21.7765C191.379 22.2297 190.828 22.8771 190.375 23.5569C189.89 24.3338 189.404 25.1107 188.919 25.8875C188.53 26.4702 188.109 27.0205 187.721 27.5708C187.624 27.7003 187.462 27.8298 187.3 27.9592C187.235 27.7974 187.203 27.6355 187.268 27.5061C187.494 27.0205 187.721 26.5026 187.98 26.017C188.239 25.5315 188.498 25.0459 188.724 24.5604C188.983 23.913 188.886 23.3303 188.465 22.78C188.368 22.6505 188.239 22.521 188.206 22.4239C188.465 21.6147 188.821 20.8701 189.016 20.1256C189.145 19.6724 189.178 19.1869 189.145 18.7337C189.048 17.7302 188.109 17.277 187.235 17.7626C186.814 18.0215 186.491 18.3776 186.264 18.7661C185.779 19.7372 185.779 20.6759 186.297 21.647C186.458 21.9384 186.685 22.2621 186.879 22.5534C186.847 22.6505 186.782 22.7152 186.782 22.78C185.843 24.2367 184.872 25.6286 183.675 26.891C183.351 27.2471 182.995 27.5384 182.639 27.8621C182.509 27.9592 182.347 28.0564 182.088 28.1858C182.121 27.9269 182.153 27.8298 182.186 27.7327C182.315 27.3766 182.477 27.0205 182.639 26.6644C182.898 26.0818 183.221 25.4991 183.48 24.9164C183.772 24.2367 183.772 23.5569 183.383 22.9095C183.351 22.8447 183.318 22.78 183.286 22.78C183.513 22.1326 183.739 21.5175 183.934 20.8701C184.16 20.158 184.192 19.4135 184.031 18.669C183.772 17.536 182.736 17.1475 181.797 17.8597C180.988 18.4747 180.567 19.6401 180.794 20.6435C180.955 21.291 181.279 21.8736 181.7 22.3915C181.797 22.521 181.959 22.6829 182.088 22.8447C180.923 24.7222 179.693 26.4378 177.977 27.8298C177.654 28.0887 177.233 28.2829 176.844 28.4772C176.65 28.5743 176.391 28.5743 176.197 28.5743C175.744 28.5419 175.485 28.3153 175.485 27.8298C175.452 27.3442 175.614 26.891 175.841 26.4055C176.132 26.7939 176.488 26.7292 176.844 26.6644C178.107 26.3407 179.11 25.6286 179.822 24.528C179.952 24.3014 180.081 24.0748 180.146 23.8158C180.276 23.2979 180.308 22.78 179.887 22.3915C179.466 22.0031 178.981 22.0678 178.495 22.2621C178.463 22.2621 178.431 22.2944 178.398 22.2944C176.229 23.4921 174.87 25.2725 174.481 27.7003C174.352 28.6067 174.935 29.3512 175.841 29.5778C176.326 29.7072 176.844 29.6101 177.298 29.4483C178.107 29.1246 178.787 28.6066 179.402 27.9916C180.567 26.9234 181.506 25.6609 182.38 24.3661C182.477 24.2367 182.574 24.1072 182.703 23.913C182.801 24.269 182.671 24.528 182.574 24.7222C182.283 25.3696 181.927 25.9199 181.668 26.5673C181.473 27.0205 181.247 27.5061 181.182 27.9916C181.053 28.8009 181.797 29.3835 182.542 29.1246C182.801 29.0275 183.092 28.8656 183.318 28.6714C183.772 28.2829 184.192 27.8945 184.581 27.4737C185.649 26.3084 186.588 25.0135 187.462 23.6864C187.559 23.5569 187.624 23.4274 187.721 23.2979C188.077 23.5892 188.012 23.9453 187.883 24.2367C187.656 24.6898 187.397 25.143 187.171 25.5962C186.912 26.1141 186.62 26.6644 186.426 27.2147C186.329 27.5061 186.329 27.9269 186.361 28.2506C186.491 28.8332 187.009 29.0922 187.591 28.898C187.85 28.8009 188.077 28.639 188.271 28.4448C188.66 28.0564 189.016 27.6355 189.307 27.1824C189.728 26.5673 190.084 25.9523 190.472 25.3372C190.893 24.6898 191.282 24.0748 191.735 23.4274C192.091 22.9418 192.544 22.521 193.094 22.2297C193.094 22.165 193.094 22.1973 193.127 22.2297ZM181.668 20.158C181.603 19.6077 181.765 19.1545 182.121 18.7661C182.283 18.6042 182.444 18.41 182.703 18.4747C182.962 18.5718 182.995 18.7984 182.995 19.025C182.995 19.4782 182.995 19.9314 182.898 20.3846C182.801 20.8378 182.639 21.2586 182.477 21.7765C182.056 21.2262 181.732 20.7083 181.668 20.158ZM176.165 25.5962C176.553 24.5604 178.074 23.1684 179.046 23.0713C179.11 24.1719 177.492 25.5638 176.165 25.5962ZM187.041 19.3164C187.203 18.8632 187.494 18.5071 187.98 18.3776C188.304 19.025 188.045 20.3198 187.365 21.3557C186.912 20.7083 186.75 20.0609 187.041 19.3164ZM171.018 22.521C170.791 23.3303 170.565 24.1395 170.306 24.9488C169.95 25.9523 169.529 26.9558 169.14 27.9592C169.043 28.2182 168.978 28.4448 168.914 28.7361C168.849 28.9951 168.978 29.1893 169.205 29.2864C169.432 29.3835 169.691 29.2864 169.852 29.0275C169.95 28.8656 170.014 28.6714 170.079 28.5095C170.532 27.2795 171.018 26.0494 171.503 24.8193C171.795 24.1072 172.151 23.4274 172.539 22.7476C172.766 22.3592 173.122 22.0355 173.413 21.7118C173.575 21.5175 173.834 21.3881 174.19 21.4204C174.222 21.6794 174.287 21.906 174.255 22.1326C174.158 22.6181 174.061 23.1037 173.899 23.5569C173.672 24.1395 173.413 24.6898 173.154 25.2725C172.669 26.4055 172.151 27.5061 171.73 28.639C171.471 29.3835 171.277 30.1604 171.082 30.9373C170.856 31.9408 170.985 32.9443 171.439 33.883C171.536 34.0449 171.6 34.1744 171.698 34.3362C171.859 34.5304 172.151 34.5304 172.345 34.4009C172.539 34.2715 172.604 34.0772 172.507 33.8506C172.474 33.7535 172.41 33.6241 172.345 33.5269C172.118 33.0738 171.989 32.6206 171.989 32.1026C171.956 31.3905 172.086 30.7107 172.313 29.9986C172.604 29.0922 172.96 28.2182 173.316 27.3442C173.737 26.3407 174.255 25.3696 174.676 24.3338C174.935 23.7187 175.096 23.1037 175.226 22.4563C175.323 21.9707 175.291 21.4528 175.032 21.032C174.773 20.5141 174.32 20.3198 173.737 20.4817C173.219 20.6112 172.766 20.9349 172.41 21.291C172.313 21.3881 172.183 21.4852 172.086 21.5823C171.633 20.5788 170.953 20.3846 170.111 20.9996C169.691 21.291 169.334 21.7118 168.978 22.1002C168.881 22.1973 168.817 22.3268 168.687 22.4887C168.655 22.3268 168.655 22.2297 168.655 22.165C168.59 21.7765 168.59 21.3881 168.46 21.032C168.169 20.2227 167.457 19.9314 166.68 20.2551C166.324 20.3846 166 20.6112 165.677 20.8701C164.835 21.6147 164.252 22.521 163.929 23.5892C163.734 24.2367 163.702 24.9164 163.832 25.5638C163.929 26.017 164.155 26.2436 164.479 26.2112C164.803 26.1465 164.932 25.8875 164.867 25.402C164.608 23.7187 165.353 22.4887 166.615 21.4528C166.712 21.3557 166.81 21.3233 166.939 21.2586C167.392 21.0644 167.619 21.1615 167.684 21.647C167.748 21.9707 167.748 22.3268 167.684 22.6505C167.554 23.5245 167.392 24.3985 167.166 25.2401C166.874 26.4378 166.518 27.6355 166.227 28.8009C166.13 29.2541 166.227 29.5454 166.551 29.6101C166.842 29.7072 167.101 29.513 167.263 29.0598C167.489 28.4124 167.716 27.765 167.943 27.1176C168.428 25.8875 168.914 24.6251 169.464 23.395C169.691 22.9418 170.047 22.521 170.37 22.1002C170.532 21.8736 170.791 21.7118 171.147 21.647C171.082 21.9707 171.115 22.2621 171.018 22.521ZM193.839 44.63C194.033 45.6011 194.842 46.4103 195.749 46.5722C196.817 46.7664 197.788 46.3132 198.338 45.4069C198.792 44.6623 198.856 43.8855 198.662 43.0762C198.371 41.9109 197.497 41.1987 196.396 41.1663C194.972 41.1016 193.742 42.3964 193.774 43.9178C193.806 44.1444 193.806 44.4034 193.839 44.63ZM143.632 62.984C143.276 61.9805 143.05 60.9123 142.499 60.0059C141.949 59.0995 140.946 58.3226 139.91 58.4845C138.777 58.6463 138 59.844 138 61.0094C138 62.1747 138.647 63.2105 139.36 64.1169C141.237 66.4152 144.604 68.4545 147.646 68.228C145.866 66.7713 144.409 65.1528 143.632 62.984ZM141.01 69.976C139.942 69.976 138.583 70.1702 138.324 71.1737C138.065 72.2095 139.198 73.0835 140.266 73.3425C142.823 73.9575 146.222 72.6951 147.323 70.2025C145.607 69.5875 142.953 69.976 141.01 69.976Z" fill="#6DA742"/>
<path d="M167.263 67.7107H167.004L167.975 36.6351H168.234L167.263 67.7107ZM177.751 67.6783H178.01L178.981 36.6028H178.722L177.751 67.6783ZM185.39 50.1336H185.131L184.775 67.1927H185.034L185.39 50.1336ZM196.558 49.9393H196.299L195.943 66.9985H196.202L196.558 49.9393ZM210.089 52.4642C212.096 55.766 212.387 60.0389 210.898 63.5996C210.218 65.2181 208.794 66.9985 206.949 66.9985H206.917C205.104 66.9985 203.712 65.3153 203.291 63.6967C202.838 61.9164 203.194 60.0065 203.55 58.2909L203.291 58.2261C202.967 59.9418 202.579 61.884 203.032 63.7291C203.485 65.4447 204.974 67.2251 206.917 67.2251C206.917 67.2251 206.949 67.2251 206.981 67.2251C209.474 67.1927 210.833 64.4736 211.189 63.6644C212.743 60.0389 212.419 55.6689 210.38 52.27C209.021 50.0365 207.046 48.3532 205.169 46.7023L201.608 43.5948L201.414 43.8213L204.974 46.9289C206.787 48.5798 208.762 50.2954 210.089 52.4642ZM197.076 38.4155C196.137 35.5345 196.526 32.2975 198.112 30.0316C199.86 27.5391 202.967 26.2766 205.686 26.9564C208.211 27.6038 210.348 29.805 211.319 32.8154C212.193 35.5669 212.063 38.545 211.772 41.3288L212.031 41.3612C212.29 38.545 212.452 35.5669 211.545 32.7507C210.542 29.6755 208.341 27.3448 205.719 26.7298C202.87 26.0177 199.633 27.3448 197.82 29.9345C196.202 32.2651 195.781 35.5669 196.752 38.545L197.076 38.4155ZM153.732 67.7754C153.959 67.8078 154.153 67.8401 154.379 67.8401C156.289 67.8401 158.037 66.3511 158.847 64.7002C159.785 62.7904 159.85 60.5568 159.882 58.5822H159.623C159.559 60.4921 159.526 62.6933 158.62 64.5707C157.811 66.2864 155.869 67.8401 153.829 67.4841C152.373 67.2251 151.11 66.2864 150.074 64.6355C148.65 62.3372 148.164 60.5244 147.776 57.9672C145.866 45.2133 146.449 35.2108 149.783 23.4604C150.366 21.3887 151.628 18.7667 152.988 17.8927C154.347 17.0187 156.095 16.954 157.649 17.7956C158.879 18.443 159.591 19.7378 160.109 20.9355C160.692 22.2627 160.918 23.6546 161.113 25.0142C161.76 30.0316 161.663 35.1137 160.756 40.0988L161.015 40.1635C161.922 35.1461 162.019 30.0316 161.371 25.0142C161.177 23.6546 160.918 22.1979 160.368 20.8708C159.818 19.6407 159.106 18.2811 157.778 17.6014C156.127 16.7274 154.282 16.7921 152.826 17.7308C151.434 18.6696 150.139 21.3563 149.524 23.4928C146.157 35.2432 145.542 45.2456 147.485 58.0643C147.873 60.6539 148.359 62.499 149.783 64.8297C150.851 66.513 152.178 67.5164 153.732 67.7754ZM164.382 91.3734H161.954L153.279 75.5119L153.247 75.4148H150.042L149.783 98.333H150.042L150.301 75.7061H153.117L161.792 91.5676L161.825 91.6647H164.544L174.028 75.9975H175.873V99.1746H176.132V75.7061H173.834L164.382 91.3734ZM192.22 75.7061H189.275L181.473 98.7862L181.732 98.8833L189.501 75.9651H192.059L198.727 98.8833L198.986 98.7862L192.318 75.7709L192.22 75.7061ZM183.545 96.585H196.267V96.326H183.545V96.585ZM168.072 62.9198V63.1788L176.683 62.758V62.499L168.072 62.9198ZM218.505 49.4214L218.473 45.4722H218.214L218.246 49.4214H212.937V49.6804H218.246L218.376 67.8078H218.635L218.505 49.6804H229.252V49.4214H218.505V49.4214ZM222.131 87.6508C219.832 85.9999 216.045 85.1906 210.898 85.1906C210.833 85.1906 210.801 85.1906 210.736 85.1906C206.658 85.1906 203.938 84.0577 203.291 82.1155C202.741 80.4969 203.744 78.4252 205.784 76.8715C209.28 74.2171 215.915 72.9223 223.069 77.8749L223.231 77.6484C215.948 72.631 209.182 73.9581 205.589 76.6449C203.421 78.2634 202.385 80.4646 203 82.2126C203.421 83.4103 204.974 85.4496 210.704 85.4496C210.769 85.4496 210.801 85.4496 210.866 85.4496C215.948 85.4172 219.67 86.2265 221.936 87.845C223.458 88.9456 224.073 90.8878 223.49 92.7006C222.778 94.9341 220.512 98.6567 213.52 98.6567C203.453 98.6567 202.093 90.3375 202.093 90.2404L201.834 90.2728C201.834 90.3699 203.194 98.9157 213.52 98.9157C220.706 98.9157 223.005 95.0636 223.749 92.7977C224.397 90.9202 223.749 88.8161 222.131 87.6508ZM191.152 50.6839V50.4249C189.404 50.4249 187.753 51.4284 186.847 52.885L187.106 53.0145C187.915 51.5902 189.501 50.6839 191.152 50.6839Z" fill="#F7EBDF"/>
<path d="M285.159 75.7275H286.836C287.861 75.7275 288.42 76.1934 288.42 77.0321V79.6411C288.42 80.4797 287.861 80.9456 286.836 80.9456H285.159V75.7275ZM286.184 76.473V80.107H286.836C287.209 80.107 287.395 80.0138 287.395 79.6411V77.0321C287.395 76.6593 287.209 76.5662 286.836 76.5662H286.184V76.473ZM297.273 80.8524H296.248L296.061 79.9206H294.757L294.57 80.8524H293.639L294.757 75.7275H296.341L297.273 80.8524ZM294.85 79.2684H295.875L295.409 76.6593L294.85 79.2684ZM303.516 79.1752L302.211 75.7275H303.329L304.168 78.057L305.006 75.7275H306.031L304.727 79.1752V80.8524H303.702V79.1752H303.516Z" fill="#AABFFF"/>
<path d="M307.802 43.6733L307.895 48.2391C307.895 48.2391 307.895 48.3322 307.802 48.3322H307.243C307.243 48.3322 307.15 48.3322 307.15 48.2391V46.2823H306.032V48.2391C306.032 48.2391 306.032 48.3322 305.938 48.3322H305.379C305.379 48.3322 305.286 48.3322 305.286 48.2391V43.6733C305.286 43.6733 305.286 43.5801 305.379 43.5801H305.938C305.938 43.5801 306.032 43.5801 306.032 43.6733V45.63H307.15V43.6733C307.15 43.6733 307.15 43.5801 307.243 43.5801H307.802V43.6733ZM312.275 43.6733L313.3 48.1459C313.3 48.1459 313.3 48.1459 313.3 48.2391H312.74H312.647L312.461 47.4004H311.25L311.063 48.2391C311.063 48.2391 311.063 48.2391 310.97 48.2391H310.411C310.411 48.2391 310.411 48.2391 310.411 48.1459L311.436 43.6733C311.436 43.6733 311.436 43.6733 311.529 43.6733H312.275ZM311.809 44.5119L311.343 46.8414H312.368L311.809 44.5119ZM318.238 44.7914V45.3505C318.238 46.0959 317.772 46.4686 316.934 46.4686H316.468V48.2391C316.468 48.2391 316.468 48.3322 316.374 48.3322H315.815C315.815 48.3322 315.722 48.3322 315.722 48.2391V43.6733C315.722 43.6733 315.722 43.5801 315.815 43.5801H316.934C317.865 43.6733 318.238 44.046 318.238 44.7914ZM317.586 44.7914C317.586 44.4187 317.399 44.2323 317.027 44.2323H316.561V45.9096H317.027C317.399 45.9096 317.586 45.7232 317.586 45.3505V44.7914ZM323.27 44.7914V45.3505C323.27 46.0959 322.804 46.4686 321.965 46.4686H321.499V48.2391C321.499 48.2391 321.499 48.3322 321.406 48.3322H320.847C320.847 48.3322 320.754 48.3322 320.754 48.2391V43.6733C320.754 43.6733 320.754 43.5801 320.847 43.5801H321.965C322.804 43.6733 323.27 44.046 323.27 44.7914ZM322.058 44.2323H321.593V45.9096H322.058C322.431 45.9096 322.618 45.7232 322.618 45.3505V44.7914C322.618 44.4187 322.431 44.2323 322.058 44.2323ZM328.488 43.6733H327.929C327.929 43.6733 327.929 43.6733 327.836 43.6733L327.09 45.7232L326.345 43.6733C326.345 43.6733 326.345 43.6733 326.252 43.6733H325.692C325.692 43.6733 325.692 43.6733 325.692 43.7664L326.811 46.655V48.2391C326.811 48.2391 326.811 48.3322 326.904 48.3322H327.463C327.463 48.3322 327.556 48.3322 327.556 48.2391V46.655L328.488 43.6733C328.581 43.6733 328.581 43.6733 328.488 43.6733Z" fill="#AABFFF"/>
<path d="M272.021 73.6767C271.834 73.6767 271.648 73.6767 271.462 73.5835C270.53 73.3971 270.157 72.6517 270.157 71.1608C270.157 68.8313 271.368 64.8246 273.698 59.2338C274.63 57.0907 275.282 55.0408 275.748 52.9908C275.934 52.1522 276.027 51.5931 276.027 51.1272C276.027 50.6613 276.027 50.2886 275.934 50.0091C275.841 49.1704 275.561 48.6114 275.002 48.3318C274.071 47.8659 272.952 47.5864 271.834 47.5864C270.623 47.5864 269.318 47.8659 267.921 48.5182C266.523 49.1704 265.219 49.8227 264.007 50.7545C262.796 51.5931 261.678 52.7113 260.746 53.9226C259.721 55.1339 258.975 56.3453 258.51 57.743C258.044 59.0475 257.764 60.2588 257.764 61.377C257.764 61.8429 257.764 62.2156 257.857 62.5883C258.137 63.8928 258.696 64.9178 259.535 65.4769C260.373 66.1291 261.398 66.4087 262.516 66.4087C264.1 66.4087 265.591 65.6632 266.989 64.2655C268.387 62.8678 269.039 61.377 269.039 59.7929C269.039 58.9543 268.853 58.302 268.573 57.9293C268.2 57.5566 267.828 57.3702 267.548 57.3702C267.175 57.3702 266.803 57.4634 266.43 57.5566C266.057 57.6498 265.871 57.6498 265.871 57.5566C265.871 57.4634 266.15 57.2771 266.523 57.0907C266.989 56.9043 267.362 56.8112 267.828 56.8112C268.293 56.8112 268.759 56.9043 269.132 57.2771C269.877 57.8361 270.25 58.6748 270.25 59.8861C270.25 61.0042 269.784 62.2156 268.946 63.3337C268.107 64.5451 266.989 65.4769 265.684 66.1291C264.38 66.8745 263.169 67.2473 261.864 67.2473C260.653 67.2473 259.441 66.7814 258.323 65.8496C257.205 64.9178 256.46 63.7064 256.087 62.1224C256.18 61.4701 256.087 61.0042 256.087 60.4452C256.087 59.2338 256.366 57.9293 256.926 56.5316C257.578 55.1339 258.416 53.8294 259.441 52.6181C260.56 51.4067 261.771 50.3818 263.075 49.5432C264.38 48.7045 265.778 48.0523 267.175 47.4932C268.666 46.9341 269.971 46.6546 271.275 46.6546C272.58 46.6546 273.698 46.841 274.816 47.3069C276.68 48.0523 277.611 49.8227 277.611 52.3385C277.611 54.2953 276.866 56.6248 275.561 59.4202C274.723 61.1906 273.977 63.0542 273.232 65.1041C272.3 68.0859 271.741 70.1358 271.741 71.3472C271.741 72.1858 272.021 72.6517 272.58 72.6517C273.791 72.6517 275.841 71.1608 278.823 68.0859C283.668 63.0542 289.632 49.7295 292.147 43.3001C279.848 26.9937 293.918 19.2598 296.62 24.7574C298.949 29.3232 297.552 36.2185 294.663 43.3933C297.459 47.2137 301.652 50.8477 307.708 53.6431C312.088 55.693 316.001 56.718 319.449 56.718L319.915 55.4135C320.94 52.6181 323.363 47.4 324.294 47.4C324.667 47.4 324.853 47.5864 324.853 48.0523C324.481 48.8909 322.71 53.9226 322.244 55.3203L321.872 56.4384L321.778 56.6248C328.394 55.693 332.494 50.3818 334.078 40.9706C334.358 39.1071 334.451 39.6661 334.358 40.9706C333.612 52.3385 328.115 57.2771 321.219 58.302C319.822 62.961 319.169 66.7814 319.169 69.7631C319.169 73.2108 319.822 74.888 321.219 74.888C321.778 74.888 322.338 74.6085 322.803 74.1426C323.269 73.6767 323.642 73.2108 323.828 72.7449C323.922 72.4653 324.108 72.4653 324.388 72.5585C324.481 72.6517 324.574 72.6517 324.481 72.7449C324.388 73.0244 324.201 73.3971 324.015 73.6767C323.828 74.0494 323.456 74.5153 322.897 75.0743C322.338 75.6334 321.778 75.913 321.219 75.913C318.61 75.913 317.306 73.6767 317.306 69.1109C317.306 65.7564 317.865 62.1224 318.983 58.3952C311.342 58.4884 302.677 54.4817 297.179 49.0773C295.968 47.8659 294.85 46.6546 293.825 45.5364C290.936 52.059 286.65 60.5383 282.27 66.1291C280.593 68.2722 278.636 70.4154 276.4 71.9062C274.536 73.0244 273.139 73.6767 272.021 73.6767ZM340.601 66.2223C340.414 66.2223 340.228 66.3155 340.135 66.3155C340.042 66.3155 339.948 66.3155 339.855 66.3155C339.762 66.3155 339.576 66.3155 339.576 66.3155C339.11 66.3155 338.737 66.1291 338.271 65.9428C338.178 66.595 338.085 67.2473 338.085 67.8995C338.085 69.3904 338.551 70.3222 339.389 70.6017C339.576 70.6949 339.762 70.6949 340.042 70.6949C340.321 70.6949 340.601 70.6017 340.88 70.5086C341.16 70.4154 341.439 70.229 341.626 70.0427C341.998 69.6699 342.371 69.2972 342.558 68.8313C342.651 68.7381 342.744 68.645 342.93 68.645C343.21 68.645 343.303 68.645 343.303 68.7381C343.21 68.9245 343.023 69.204 342.744 69.5768C342.464 69.9495 342.185 70.3222 341.905 70.5086C341.626 70.7881 341.346 70.9744 340.973 71.1608C340.601 71.3472 340.135 71.4403 339.762 71.4403C338.178 71.4403 337.06 70.6949 336.687 69.1109C336.594 68.5518 336.501 68.0859 336.501 67.5268C336.501 66.6882 336.687 65.8496 336.967 64.9178C334.544 62.6815 333.146 57.8361 336.128 51.4067C340.042 43.1138 346.378 45.1637 346.937 50.7545C360.914 37.3366 380.761 69.2972 352.621 73.3971C345.167 74.5153 348.987 80.3856 351.689 78.2425C352.435 77.6834 352.528 78.1493 352.062 78.7083C348.801 82.2492 342.558 74.1426 352.528 72.1858C374.518 67.8995 364.082 40.6911 347.03 53.7362C345.446 54.9476 344.98 53.1772 345.073 51.7795C345.167 50.1022 344.607 47.8659 342.93 47.4932C336.78 45.9092 334.917 58.9543 337.339 63.7996C338.085 62.1224 339.017 60.9111 340.321 60.0724C341.067 59.6997 341.719 59.4202 342.558 59.4202C343.676 59.4202 344.235 60.0724 344.235 61.4701C344.235 62.2156 343.955 63.0542 343.489 63.8928C342.744 65.011 341.905 65.7564 340.787 65.9428H340.601V66.2223ZM338.458 65.4769C338.737 65.6632 339.11 65.8496 339.389 65.8496C340.321 65.7564 341.16 65.1041 341.998 63.986C342.744 62.961 343.117 62.0292 343.117 61.1906C343.117 60.5383 342.837 60.2588 342.371 60.2588C341.346 60.2588 340.414 61.0974 339.576 62.5883C339.017 63.6133 338.644 64.5451 338.458 65.4769ZM326.903 66.595C328.86 61.7497 330.724 59.327 332.587 59.327C333.426 59.327 333.799 59.6997 333.799 60.4452C333.705 60.8179 333.519 61.2838 333.426 61.8429C327.276 82.9014 352.435 83.5537 344.235 73.3971C344.235 73.3971 344.235 73.3971 344.235 73.3039C344.701 72.6517 346.285 74.1426 346.564 74.9812C346.844 75.7266 346.937 76.472 346.937 77.0311C347.31 86.1627 325.972 83.8332 331.935 60.5383C332.028 60.352 331.935 60.2588 331.749 60.2588C331.656 60.2588 331.469 60.352 331.376 60.4452C330.631 61.0974 329.885 62.1224 329.046 63.6133C328.208 65.1041 327.556 66.4087 327.183 67.5268C326.717 68.7381 326.531 69.3904 326.531 69.5768C326.531 69.7631 326.437 69.8563 326.158 69.8563C325.692 69.8563 325.412 69.204 325.412 68.0859C325.412 65.7564 325.692 63.7064 326.158 61.936C326.624 60.0724 327.183 59.1406 327.835 59.1406C328.115 59.1406 328.208 59.327 328.208 59.6065C327.462 61.8429 326.997 64.1723 326.717 66.5018H326.903V66.595ZM286.743 70.3222C285.532 70.3222 284.879 69.3904 284.879 67.3404C284.879 66.1291 285.159 64.9178 285.718 63.5201C286.557 61.5633 287.582 60.2588 288.886 59.5134C289.445 59.2338 290.004 59.0475 290.47 59.0475C290.936 59.0475 291.309 59.1406 291.681 59.327C291.961 59.6065 292.147 59.7929 292.147 59.9793L292.241 60.2588C292.241 60.5383 292.054 60.6315 291.868 60.6315C291.588 60.6315 291.495 60.5383 291.402 60.4452C291.402 60.352 291.309 60.1656 291.309 60.1656C291.216 60.0724 291.122 59.9793 290.936 59.7929C290.75 59.6065 290.563 59.5134 290.377 59.5134C289.445 59.5134 288.513 60.4452 287.675 62.2156C286.743 64.2655 286.37 66.2223 286.37 67.9927C286.37 68.9245 286.557 69.2972 286.929 69.2972C287.209 69.2972 287.675 69.0177 288.141 68.3654C288.7 67.7132 289.259 66.8746 289.818 65.9428C290.843 64.2655 291.681 62.7747 292.241 61.5633C292.706 60.4452 293.266 59.8861 293.825 59.8861C294.104 59.8861 294.291 60.0724 294.291 60.4452C294.197 60.7247 294.011 61.0974 293.731 61.6565C293.545 62.2156 293.266 63.2405 292.893 64.8246C292.52 66.595 292.427 68.1791 292.427 69.7631C292.427 71.3472 292.706 72.0926 293.172 72.0926C293.359 72.0926 293.545 71.9994 293.638 71.8131C293.731 71.7199 293.918 71.4403 294.011 71.0676C294.011 70.8813 294.104 70.7881 294.291 70.7881C294.384 70.7881 294.384 70.7881 294.384 70.7881C294.384 70.8813 294.384 70.8813 294.384 71.0676C294.384 71.1608 294.291 71.3472 294.291 71.5335C294.197 71.7199 294.011 71.9994 293.825 72.279C293.545 72.6517 293.359 72.7449 293.079 72.7449C292.427 72.7449 291.961 72.279 291.588 71.4403C291.216 70.6017 291.122 69.5768 291.122 68.4586C291.122 67.3404 291.216 66.2223 291.402 65.1973H291.216C289.166 68.645 287.675 70.3222 286.743 70.3222ZM297.738 73.6767C296.9 73.6767 296.154 73.2108 295.781 72.279C295.409 71.3472 295.129 69.9495 295.129 68.0859C295.129 66.2223 295.409 64.0792 295.968 61.4701C296.527 58.9543 297.179 56.8112 297.925 55.1339C298.67 53.4567 299.322 52.6181 299.881 52.6181C300.161 52.6181 300.254 52.8044 300.254 53.084C299.881 53.8294 299.509 54.9476 299.043 56.3453C298.577 57.8361 298.111 59.1407 297.831 60.4452C297.459 61.6565 297.179 63.1474 296.9 64.8246C296.62 66.5018 296.527 67.8995 296.527 69.1109C296.527 70.3222 296.62 71.254 296.9 71.9062C297.179 72.5585 297.459 72.838 297.831 72.838C298.204 72.838 298.484 72.6517 298.763 72.3721C299.136 71.9994 299.322 71.7199 299.509 71.4403C299.602 71.254 299.695 71.1608 299.881 71.3472C299.974 71.3472 299.974 71.4403 299.974 71.5335C299.881 71.6267 299.881 71.8131 299.788 71.9062C299.695 71.9994 299.509 72.279 299.322 72.6517C298.856 73.3039 298.297 73.6767 297.738 73.6767ZM305.379 59.2338C306.497 59.2338 307.056 59.8861 307.056 61.2838C307.056 62.0292 306.777 62.8678 306.311 63.7064C305.472 65.1041 304.261 65.8496 302.77 65.8496C302.49 65.8496 302.304 65.8496 302.211 65.7564C302.024 65.6632 301.931 65.57 301.838 65.3837C302.956 65.3837 303.888 64.7314 304.82 63.5201C305.565 62.4951 305.938 61.5633 305.938 60.7247C305.938 60.0724 305.658 59.7929 305.193 59.7929C304.168 59.7929 303.236 60.5383 302.397 62.1224C301.465 63.7996 300.999 65.57 300.999 67.3404C300.999 68.8313 301.465 69.7631 302.304 70.0427C302.49 70.1358 302.677 70.1358 302.956 70.1358C303.236 70.1358 303.515 70.0427 303.795 69.9495C304.074 69.8563 304.354 69.6699 304.54 69.4836C304.913 69.1109 305.286 68.7381 305.472 68.2722C305.565 68.1791 305.658 68.0859 305.845 68.0859C306.124 68.0859 306.217 68.0859 306.217 68.1791C306.124 68.3654 305.938 68.645 305.658 69.0177C305.379 69.3904 305.099 69.7631 304.82 69.9495C304.54 70.229 304.261 70.4154 303.888 70.6017C303.515 70.7881 303.049 70.8813 302.677 70.8813C301.093 70.8813 299.974 70.1358 299.602 68.645C299.509 68.0859 299.415 67.5268 299.415 67.0609C299.415 66.0359 299.695 64.9178 300.161 63.7064C300.906 61.8429 301.931 60.5383 303.236 59.7929C303.888 59.4202 304.633 59.2338 305.379 59.2338ZM309.199 66.595C311.156 61.7497 313.113 59.327 314.976 59.327C315.722 59.327 316.188 59.6997 316.188 60.4452C316.095 60.8179 315.908 61.2838 315.815 61.8429C309.665 82.9014 334.824 83.5537 326.624 73.3971C326.624 73.3971 326.624 73.3971 326.624 73.3039C327.09 72.6517 328.674 74.1426 328.953 74.9812C329.233 75.7266 329.326 76.472 329.326 77.0311C329.699 86.1627 308.267 83.8332 314.324 60.5383C314.324 60.352 314.324 60.2588 314.138 60.2588C314.045 60.2588 313.858 60.352 313.765 60.4452C313.02 61.0974 312.274 62.1224 311.436 63.6133C310.597 65.1041 309.945 66.4087 309.572 67.5268C309.106 68.7381 308.827 69.3904 308.827 69.5768C308.827 69.7631 308.733 69.8563 308.547 69.8563C308.081 69.8563 307.802 69.204 307.802 68.0859C307.802 65.7564 308.081 63.7064 308.547 61.936C309.013 60.0724 309.572 59.1406 310.224 59.1406C310.504 59.1406 310.597 59.327 310.597 59.6065C309.851 61.8429 309.386 64.1723 309.106 66.5018H309.199V66.595ZM321.778 69.7631C321.778 67.5268 322.058 65.4769 322.431 63.7064C322.897 61.936 323.549 61.0042 324.201 61.0042C324.574 61.0042 324.667 61.1906 324.667 61.5633C324.574 61.936 324.294 62.4951 324.108 63.1474C323.922 63.7996 323.642 65.011 323.269 66.6882C322.897 68.3654 322.71 69.9495 322.71 71.254C322.71 71.5335 322.617 71.6267 322.338 71.6267C321.965 71.6267 321.778 71.0676 321.778 69.7631ZM324.574 60.352C324.201 60.352 324.108 60.0724 324.108 59.4202C324.108 59.0475 324.201 58.6748 324.388 58.302C324.574 57.9293 324.853 57.6498 325.226 57.6498C325.506 57.6498 325.692 57.8361 325.692 58.2089C325.692 58.5816 325.412 59.1407 324.853 59.9793L324.574 60.352ZM345.632 58.8611C345.912 58.8611 346.098 58.5816 346.285 58.1157C346.471 57.5566 346.564 57.0907 346.564 56.5316C346.564 55.9725 346.751 55.7862 347.216 55.7862C347.589 55.7862 347.869 56.0657 347.869 56.6248C347.869 57.4634 347.589 58.1157 347.03 58.6748C346.751 58.9543 346.471 59.1406 346.192 59.1406C345.726 59.1406 345.632 59.0475 345.632 58.8611ZM349.639 71.6267C350.291 71.6267 350.85 71.1608 351.41 70.0427C351.969 68.9245 352.248 67.62 352.248 66.0359C352.248 65.2905 352.155 64.1723 351.782 62.7747C351.503 61.377 351.41 60.4452 351.41 59.9793C351.41 59.5134 351.41 59.2338 351.41 59.1406C351.223 59.5134 350.664 60.5383 349.732 62.3088C348.801 64.0792 347.962 65.57 347.216 66.595C347.216 66.6882 347.123 66.6882 346.937 66.6882C346.844 66.6882 346.751 66.595 346.657 66.595C346.564 66.5018 346.564 66.5018 346.564 66.4087C346.564 66.4087 346.564 66.4087 346.564 66.3155C347.31 65.2905 348.148 63.8928 349.08 62.0292C350.012 60.1656 350.85 58.8611 351.503 57.9293C352.155 57.0907 352.807 56.6248 353.366 56.6248C353.739 56.6248 353.832 56.718 353.832 56.9975C353.832 57.1839 353.739 57.4634 353.46 57.743C352.621 58.6748 352.248 59.6065 352.248 60.6315C352.248 61.1906 352.435 62.3088 352.9 63.986C353.366 65.6632 353.553 66.8746 353.553 67.62C353.553 68.9245 353.18 70.0427 352.435 71.0676C351.689 71.9994 350.85 72.4653 349.919 72.4653C345.539 72.4653 349.919 65.011 351.037 63.3337L350.944 63.6133C350.385 64.3587 347.31 71.6267 349.639 71.6267ZM293.079 40.8775C295.688 33.5163 296.9 27.1801 294.384 25.4097C290.47 22.7075 287.768 31.5595 293.079 40.8775Z" fill="#EF29EF"/>
<defs>
<clipPath id="clip0">
<rect width="92" height="53" fill="white" transform="translate(9 25)"/>
</clipPath>
</defs>
</svg>
