<svg width="30" height="30" viewBox="0 0 30 30" fill="none" xmlns="http://www.w3.org/2000/svg">
<path d="M8 10C8 8.89543 8.89543 8 10 8H15V15H8V10Z" fill="white"/>
<path d="M22 20C22 21.1046 21.1046 22 20 22L15 22L15 15L22 15L22 20Z" fill="white"/>
<path d="M20 8C21.1046 8 22 8.89543 22 10L22 15L15 15L15 8L20 8Z" fill="#E5E5E5"/>
<path d="M10 22C8.89543 22 8 21.1046 8 20L8 15L15 15L15 22L10 22Z" fill="#E5E5E5"/>
<path fill-rule="evenodd" clip-rule="evenodd" d="M20 9H10C9.44772 9 9 9.44772 9 10V20C9 20.5523 9.44772 21 10 21H20C20.5523 21 21 20.5523 21 20V10C21 9.44772 20.5523 9 20 9ZM10 8C8.89543 8 8 8.89543 8 10V20C8 21.1046 8.89543 22 10 22H20C21.1046 22 22 21.1046 22 20V10C22 8.89543 21.1046 8 20 8H10Z" fill="#999999"/>
<path fill-rule="evenodd" clip-rule="evenodd" d="M14.5 21V8.5H15.5V21H14.5Z" fill="#999999"/>
<path fill-rule="evenodd" clip-rule="evenodd" d="M8.75 14.25L21.25 14.25V15.25L8.75 15.25L8.75 14.25Z" fill="#999999"/>
</svg>
