<?xml version="1.0" encoding="utf-8"?>
<!-- Generator: Adobe Illustrator 23.0.0, SVG Export Plug-In . SVG Version: 6.00 Build 0)  -->
<svg version="1.1" id="Layer_1" xmlns="http://www.w3.org/2000/svg" xmlns:xlink="http://www.w3.org/1999/xlink" x="0px" y="0px"
	 width="18px" height="18px" viewBox="0 0 18 18" style="enable-background:new 0 0 18 18;" xml:space="preserve">
<style type="text/css">
	.st0{fill-rule:evenodd;clip-rule:evenodd;}
</style>
<path d="M9.9,6.6c0.8,0,1.5-0.7,1.5-1.5c0-0.8-0.7-1.5-1.5-1.5c-0.8,0-1.5,0.7-1.5,1.5C8.4,6,9.1,6.6,9.9,6.6z"/>
<path class="st0" d="M3,0C1.4,0,0,1.4,0,3V15c0,1.7,1.4,3,3,3H15c1.7,0,3-1.4,3-3V3c0-1.7-1.4-3-3-3H3z M1.3,3
	c0-0.9,0.8-1.7,1.7-1.7H15c0.9,0,1.7,0.8,1.7,1.7v8.7l-2.9-2.9l-3.5,3.5L5.3,7.5l-4,4V3z M9.9,6.6c0.8,0,1.5-0.7,1.5-1.5
	c0-0.8-0.7-1.5-1.5-1.5c-0.8,0-1.5,0.7-1.5,1.5C8.4,6,9.1,6.6,9.9,6.6z M1.3,15c0,0.9,0.8,1.7,1.7,1.7h9.6L5.3,9.3l-4,4V15z
	 M16.7,15c0,0.9-0.8,1.7-1.7,1.7h-0.4l-3.4-3.4l2.6-2.6l2.9,2.9V15z"/>
</svg>
