<svg width="30" height="30" viewBox="0 0 30 30" fill="none" xmlns="http://www.w3.org/2000/svg">
<path d="M8.5 19C8.224 19 8 18.808 8 18.5714L8 11.4286C8 11.192 8.224 11 8.5 11C8.776 11 9 11.192 9 11.4286L9 18.5714C9 18.808 8.776 19 8.5 19Z" fill="#999999"/>
<path d="M22.4375 17H17.5625C17.252 17 17 16.748 17 16.4375C17 16.127 17.252 15.875 17.5625 15.875H21.875V11.5625C21.875 11.252 22.127 11 22.4375 11C22.748 11 23 11.252 23 11.5625V16.4375C23 16.748 22.748 17 22.4375 17Z" fill="#999999"/>
<path d="M22.4583 16.9995C22.2329 16.9995 22.0234 16.8435 21.9462 16.5956C21.1272 13.9661 18.9389 12.1999 16.5 12.1999C14.0611 12.1999 11.8728 13.9661 11.0538 16.5956C10.9563 16.9092 10.6486 17.0754 10.3648 16.9667C10.0825 16.8586 9.93225 16.517 10.0297 16.2036C10.9996 13.091 13.5996 11 16.5 11C19.4004 11 22.0004 13.091 22.9703 16.2036C23.0678 16.517 22.9175 16.8579 22.6352 16.9667C22.5767 16.9891 22.5167 16.9995 22.4583 16.9995Z" fill="#999999"/>
</svg>
