<svg width="30" height="30" viewBox="0 0 30 30" fill="none" xmlns="http://www.w3.org/2000/svg">
<path fill-rule="evenodd" clip-rule="evenodd" d="M20.5 11.5H9.5C9.22386 11.5 9 11.7239 9 12C9 12.2761 9.22386 12.5 9.5 12.5H20.5C20.7761 12.5 21 12.2761 21 12C21 11.7239 20.7761 11.5 20.5 11.5ZM9.5 10.5C8.67157 10.5 8 11.1716 8 12C8 12.8284 8.67157 13.5 9.5 13.5H20.5C21.3284 13.5 22 12.8284 22 12C22 11.1716 21.3284 10.5 20.5 10.5H9.5Z" fill="#999999"/>
<path fill-rule="evenodd" clip-rule="evenodd" d="M10.5 10.5C10.5 9.11929 11.6193 8 13 8H17C18.3807 8 19.5 9.11929 19.5 10.5V11.5H18.5V10.5C18.5 9.67157 17.8284 9 17 9H13C12.1716 9 11.5 9.67157 11.5 10.5V11.5H10.5V10.5Z" fill="#999999"/>
<path fill-rule="evenodd" clip-rule="evenodd" d="M20 13.5H10V20.5C10 21.0523 10.4477 21.5 11 21.5H19C19.5523 21.5 20 21.0523 20 20.5V13.5ZM9 12.5V20.5C9 21.6046 9.89543 22.5 11 22.5H19C20.1046 22.5 21 21.6046 21 20.5V12.5H9Z" fill="#999999"/>
<path fill-rule="evenodd" clip-rule="evenodd" d="M13 15C13.2761 15 13.5 15.2239 13.5 15.5V19.5C13.5 19.7761 13.2761 20 13 20C12.7239 20 12.5 19.7761 12.5 19.5V15.5C12.5 15.2239 12.7239 15 13 15Z" fill="#999999"/>
<path fill-rule="evenodd" clip-rule="evenodd" d="M17 15C17.2761 15 17.5 15.2239 17.5 15.5V19.5C17.5 19.7761 17.2761 20 17 20C16.7239 20 16.5 19.7761 16.5 19.5V15.5C16.5 15.2239 16.7239 15 17 15Z" fill="#999999"/>
</svg>
