<svg width="30" height="30" viewBox="0 0 30 30" fill="none" xmlns="http://www.w3.org/2000/svg">
<path d="M19.5 22C19.2238 22 19 21.7761 19 21.5V19.6735C16.4258 22.1657 12.3187 22.0992 9.8265 19.525C8.65198 18.3119 7.99676 16.6886 8.00001 15C8.00001 14.7239 8.22387 14.5 8.50002 14.5C8.77617 14.5 9 14.7239 9 15C9.00062 18.0376 11.4635 20.4995 14.5011 20.4989C16.0438 20.4986 17.5154 19.8504 18.557 18.7125L16.342 17.974C16.0797 17.8868 15.9378 17.6034 16.025 17.341C16.1123 17.0787 16.3957 16.9368 16.658 17.024L19.658 18.024C19.8628 18.0922 20.0007 18.2842 20 18.5V21.5C20 21.7761 19.7761 22 19.5 22Z" fill="#999999"/>
<path d="M20.5 15.5C20.2239 15.5 20 15.2761 20 15C19.9994 11.9624 17.5365 9.50048 14.4989 9.50109C12.9562 9.50139 11.4846 10.1496 10.443 11.2875L12.658 12.026C12.9203 12.1133 13.0623 12.3966 12.975 12.659C12.8877 12.9213 12.6043 13.0632 12.342 12.976L9.34201 11.976C9.13723 11.9078 8.99933 11.7158 9 11.5V8.49999C9 8.22384 9.22386 7.99998 9.50001 7.99998C9.77616 7.99998 10 8.22384 10 8.49999V10.3265C12.5742 7.83431 16.6813 7.90078 19.1735 10.475C20.348 11.6881 21.0032 13.3114 21 15C21.0001 15.2761 20.7762 15.5 20.5 15.5Z" fill="#999999"/>
</svg>
