<svg width="30" height="30" viewBox="0 0 30 30" fill="none" xmlns="http://www.w3.org/2000/svg">
<path d="M16.1114 8.00007C15.8123 7.99517 15.5658 8.23368 15.5609 8.53279L15.4552 14.9819L21.9043 14.8762C22.2034 14.8713 22.4419 14.6248 22.437 14.3257C22.4321 14.0266 22.1856 13.7881 21.8865 13.793L17.3357 13.8676L22.1178 9.08548C22.2541 8.94923 22.1931 8.6673 21.9815 8.45577C21.77 8.24423 21.4881 8.1832 21.3518 8.31944L16.5695 13.1018L16.6441 8.55055C16.649 8.25143 16.4105 8.00498 16.1114 8.00007Z" fill="#999999"/>
<path d="M14.3257 22.4377C14.6248 22.4426 14.8713 22.2041 14.8762 21.9049L14.9819 15.4559L8.53279 15.5616C8.23368 15.5665 7.99517 15.8129 8.00007 16.112C8.00498 16.4112 8.25143 16.6497 8.55055 16.6448L13.1013 16.5702L8.31922 21.3523C8.18297 21.4885 8.24401 21.7704 8.45554 21.982C8.66708 22.1935 8.94901 22.2545 9.08525 22.1183L13.8676 17.336L13.793 21.8872C13.7881 22.1863 14.0266 22.4328 14.3257 22.4377Z" fill="#999999"/>
<path fill-rule="evenodd" clip-rule="evenodd" d="M20.9997 18.5C21.2758 18.5 21.4997 18.7239 21.4997 19V21.5H18.9997C18.7235 21.5 18.4997 21.2761 18.4997 21C18.4997 20.7239 18.7235 20.5 18.9997 20.5H20.4997V19C20.4997 18.7239 20.7235 18.5 20.9997 18.5Z" fill="#999999"/>
<path fill-rule="evenodd" clip-rule="evenodd" d="M9.5 12.0003C9.22386 12.0003 9 11.7765 9 11.5003L9 9.00034L11.5 9.00034C11.7761 9.00034 12 9.22419 12 9.50034C12 9.77648 11.7761 10.0003 11.5 10.0003H10V11.5003C10 11.7765 9.77614 12.0003 9.5 12.0003Z" fill="#999999"/>
</svg>
