<svg width="19" height="19" viewBox="0 0 19 19" fill="none" xmlns="http://www.w3.org/2000/svg">
<circle cx="9.5" cy="9.5" r="9.5" fill="white"/>
<path d="M10.1552 15.3448C10.1552 14.9836 9.86111 14.6895 9.5 14.6895C6.63732 14.6895 4.31048 12.3627 4.31048 9.5C4.31048 6.63732 6.63732 4.31048 9.5 4.31048C12.3627 4.31048 14.6895 6.63732 14.6895 9.5C14.6895 10.927 14.1071 12.2695 13.0995 13.2392L12.9451 12.2608C12.8898 11.9026 12.5549 11.6579 12.1967 11.7133C11.8734 11.7628 11.6434 12.0423 11.6434 12.3598C11.6434 12.3947 11.6463 12.4267 11.6521 12.4617L12.0773 15.1759L14.7914 15.5981C15.1496 15.6535 15.4845 15.4088 15.5399 15.0506C15.5952 14.6924 15.3506 14.3575 14.9924 14.3022L14.0343 14.1566C15.2807 12.9451 16 11.2735 16 9.5C16 7.76434 15.3244 6.1306 14.0954 4.90457C12.8665 3.67854 11.2357 3 9.5 3C7.76434 3 6.1306 3.67563 4.90457 4.90457C3.67563 6.13351 3 7.76434 3 9.5C3 11.2357 3.67563 12.8694 4.90457 14.0954C6.13351 15.3244 7.76434 16 9.5 16C9.86111 16 10.1552 15.7059 10.1552 15.3448Z" fill="black"/>
</svg>
