<svg width="30" height="30" viewBox="0 0 30 30" fill="none" xmlns="http://www.w3.org/2000/svg">
<path d="M21.0268 14.6942C20.675 14.6942 20.3885 14.9808 20.3885 15.3326C20.3885 18.1216 18.1216 20.3885 15.3326 20.3885C12.5436 20.3885 10.2767 18.1216 10.2767 15.3326C10.2767 12.5436 12.5436 10.2767 15.3326 10.2767C16.7228 10.2767 18.0308 10.8442 18.9756 11.8258L18.0223 11.9762C17.6733 12.0301 17.435 12.3564 17.4889 12.7054C17.5371 13.0203 17.8095 13.2444 18.1187 13.2444C18.1528 13.2444 18.184 13.2416 18.218 13.2359L20.8623 12.8217L21.2737 10.1774C21.3276 9.82846 21.0893 9.50218 20.7403 9.44828C20.3913 9.39437 20.065 9.63269 20.0111 9.98167L19.8693 10.9151C18.689 9.70079 17.0605 9 15.3326 9C13.6416 9 12.05 9.65823 10.8555 10.8555C9.66107 12.0528 9 13.6416 9 15.3326C9 17.0236 9.65823 18.6152 10.8555 19.8097C12.0528 21.007 13.6416 21.6652 15.3326 21.6652C17.0236 21.6652 18.6152 21.007 19.8097 19.8097C21.007 18.6124 21.6652 17.0236 21.6652 15.3326C21.6652 14.9808 21.3787 14.6942 21.0268 14.6942Z" fill="#999999"/>
</svg>
