<svg width="30" height="30" viewBox="0 0 30 30" fill="none" xmlns="http://www.w3.org/2000/svg">
<path fill-rule="evenodd" clip-rule="evenodd" d="M10.5 10.75C10.5 10.0596 11.0596 9.5 11.75 9.5H14.25C14.9404 9.5 15.5 10.0596 15.5 10.75V13.25C15.5 13.9404 14.9404 14.5 14.25 14.5H11.75C11.0596 14.5 10.5 13.9404 10.5 13.25V10.75ZM11.75 10.3333C11.5199 10.3333 11.3333 10.5199 11.3333 10.75V13.25C11.3333 13.4801 11.5199 13.6667 11.75 13.6667H14.25C14.4801 13.6667 14.6667 13.4801 14.6667 13.25V10.75C14.6667 10.5199 14.4801 10.3333 14.25 10.3333H11.75Z" fill="#999999"/>
<path fill-rule="evenodd" clip-rule="evenodd" d="M15.5 15.75C15.5 15.0596 16.0596 14.5 16.75 14.5H19.25C19.9404 14.5 20.5 15.0596 20.5 15.75V18.25C20.5 18.9404 19.9404 19.5 19.25 19.5H16.75C16.0596 19.5 15.5 18.9404 15.5 18.25V15.75ZM16.75 15.3333C16.5199 15.3333 16.3333 15.5199 16.3333 15.75V18.25C16.3333 18.4801 16.5199 18.6667 16.75 18.6667H19.25C19.4801 18.6667 19.6667 18.4801 19.6667 18.25V15.75C19.6667 15.5199 19.4801 15.3333 19.25 15.3333H16.75Z" fill="#999999"/>
<path fill-rule="evenodd" clip-rule="evenodd" d="M10.5 8C10.3649 8 10.2347 8.01773 10.1113 8.05073C9.84452 8.12204 9.57044 7.96358 9.49913 7.6968C9.42782 7.43003 9.58628 7.15596 9.85305 7.08464C10.06 7.02934 10.2769 7 10.5 7H11.0556C11.3317 7 11.5556 7.22386 11.5556 7.5C11.5556 7.77614 11.3317 8 11.0556 8H10.5ZM12.7778 7.5C12.7778 7.22386 13.0016 7 13.2778 7H14.3889C14.665 7 14.8889 7.22386 14.8889 7.5C14.8889 7.77614 14.665 8 14.3889 8H13.2778C13.0016 8 12.7778 7.77614 12.7778 7.5ZM16.1111 7.5C16.1111 7.22386 16.335 7 16.6111 7H17.7222C17.9984 7 18.2222 7.22386 18.2222 7.5C18.2222 7.77614 17.9984 8 17.7222 8H16.6111C16.335 8 16.1111 7.77614 16.1111 7.5ZM19.4444 7.5C19.4444 7.22386 19.6683 7 19.9444 7H20.5C20.7231 7 20.94 7.02934 21.1469 7.08464C21.4137 7.15596 21.5722 7.43003 21.5009 7.6968C21.4296 7.96358 21.1555 8.12204 20.8887 8.05073C20.7653 8.01773 20.6351 8 20.5 8H19.9444C19.6683 8 19.4444 7.77614 19.4444 7.5ZM8.6968 8.49913C8.96358 8.57044 9.12204 8.84452 9.05073 9.11129C9.01773 9.23472 9 9.3649 9 9.5V10.0556C9 10.3317 8.77614 10.5556 8.5 10.5556C8.22386 10.5556 8 10.3317 8 10.0556V9.5C8 9.27694 8.02934 9.05996 8.08464 8.85305C8.15596 8.58628 8.43003 8.42782 8.6968 8.49913ZM22.3032 8.49913C22.57 8.42782 22.844 8.58628 22.9154 8.85305C22.9707 9.05996 23 9.27694 23 9.5V10.0556C23 10.3317 22.7761 10.5556 22.5 10.5556C22.2239 10.5556 22 10.3317 22 10.0556V9.5C22 9.3649 21.9823 9.23472 21.9493 9.11129C21.878 8.84452 22.0364 8.57044 22.3032 8.49913ZM8.5 11.7778C8.77614 11.7778 9 12.0016 9 12.2778V13.3889C9 13.665 8.77614 13.8889 8.5 13.8889C8.22386 13.8889 8 13.665 8 13.3889V12.2778C8 12.0016 8.22386 11.7778 8.5 11.7778ZM22.5 11.7778C22.7761 11.7778 23 12.0016 23 12.2778V13.3889C23 13.665 22.7761 13.8889 22.5 13.8889C22.2239 13.8889 22 13.665 22 13.3889V12.2778C22 12.0016 22.2239 11.7778 22.5 11.7778ZM8.5 15.1111C8.77614 15.1111 9 15.335 9 15.6111V16.7222C9 16.9984 8.77614 17.2222 8.5 17.2222C8.22386 17.2222 8 16.9984 8 16.7222V15.6111C8 15.335 8.22386 15.1111 8.5 15.1111ZM22.5 15.1111C22.7761 15.1111 23 15.335 23 15.6111V16.7222C23 16.9984 22.7761 17.2222 22.5 17.2222C22.2239 17.2222 22 16.9984 22 16.7222V15.6111C22 15.335 22.2239 15.1111 22.5 15.1111ZM8.5 18.4444C8.77614 18.4444 9 18.6683 9 18.9444V19.5C9 19.6351 9.01773 19.7653 9.05073 19.8887C9.12204 20.1555 8.96358 20.4296 8.6968 20.5009C8.43003 20.5722 8.15596 20.4137 8.08464 20.1469C8.02934 19.94 8 19.7231 8 19.5V18.9444C8 18.6683 8.22386 18.4444 8.5 18.4444ZM22.5 18.4444C22.7761 18.4444 23 18.6683 23 18.9444V19.5C23 19.7231 22.9707 19.94 22.9154 20.1469C22.844 20.4137 22.57 20.5722 22.3032 20.5009C22.0364 20.4296 21.878 20.1555 21.9493 19.8887C21.9823 19.7653 22 19.6351 22 19.5V18.9444C22 18.6683 22.2239 18.4444 22.5 18.4444ZM9.49913 21.3032C9.57044 21.0364 9.84452 20.878 10.1113 20.9493C10.2347 20.9823 10.3649 21 10.5 21H11.0556C11.3317 21 11.5556 21.2239 11.5556 21.5C11.5556 21.7761 11.3317 22 11.0556 22H10.5C10.2769 22 10.06 21.9707 9.85305 21.9154C9.58628 21.844 9.42782 21.57 9.49913 21.3032ZM21.5009 21.3032C21.5722 21.57 21.4137 21.844 21.1469 21.9154C20.94 21.9707 20.7231 22 20.5 22H19.9444C19.6683 22 19.4444 21.7761 19.4444 21.5C19.4444 21.2239 19.6683 21 19.9444 21H20.5C20.6351 21 20.7653 20.9823 20.8887 20.9493C21.1555 20.878 21.4296 21.0364 21.5009 21.3032ZM12.7778 21.5C12.7778 21.2239 13.0016 21 13.2778 21H14.3889C14.665 21 14.8889 21.2239 14.8889 21.5C14.8889 21.7761 14.665 22 14.3889 22H13.2778C13.0016 22 12.7778 21.7761 12.7778 21.5ZM16.1111 21.5C16.1111 21.2239 16.335 21 16.6111 21H17.7222C17.9984 21 18.2222 21.2239 18.2222 21.5C18.2222 21.7761 17.9984 22 17.7222 22H16.6111C16.335 22 16.1111 21.7761 16.1111 21.5Z" fill="#999999"/>
</svg>
