<svg width="370" height="117" viewBox="0 0 370 117" fill="none" xmlns="http://www.w3.org/2000/svg">
<path d="M126.823 0H243.175V116.352H126.823V0Z" fill="white"/>
<path d="M253.647 0H370V116.352H253.647V0Z" fill="white"/>
<path d="M0 0H116.352V116.352H0V0Z" fill="white"/>
<path d="M44.0996 79.0471L42.6934 87.642L44.0996 92.9397H63.7871L65.1934 87.642L63.7871 79.0471C61.0078 77.0742 57.6113 75.9136 53.9434 75.9136C50.2754 75.9136 46.8791 77.0743 44.0996 79.0471V79.0471Z" fill="#7ACEFA"/>
<path d="M59.3727 76.8008C57.6674 76.227 55.8422 75.9136 53.9434 75.9136C50.2754 75.9136 46.8789 77.0742 44.0996 79.0471L42.6934 87.642L44.0996 92.9397H47.7722C47.7722 85.4509 52.6375 79.0724 59.3727 76.8008Z" fill="#5DC1ED"/>
<path d="M63.7871 79.0474V92.94H67.8787C69.6458 92.94 70.9863 91.3272 70.6409 89.5941C69.7769 85.2581 67.2655 81.5165 63.7871 79.0474Z" fill="#5DC1ED"/>
<path d="M44.1007 79.0474V92.94H40.009C38.242 92.94 36.9015 91.3272 37.2469 89.5941C38.111 85.2581 40.6225 81.5165 44.1007 79.0474Z" fill="#42ACD1"/>
<path d="M53.9443 28.1118C41.5179 28.1118 31.4443 38.1853 31.4443 50.6118V52.7556H76.4443V50.6118C76.4442 38.1853 66.3707 28.1118 53.9443 28.1118V28.1118Z" fill="#FCF2D0"/>
<path d="M57.7165 28.4284C56.4898 28.2212 55.2299 28.1118 53.9443 28.1118C41.518 28.1118 31.4443 38.1853 31.4443 50.6118V52.7556H38.9886V50.6118C38.9886 39.4709 47.0862 30.2229 57.7165 28.4284V28.4284Z" fill="#EFDFB4"/>
<path d="M75.7585 59.9974C78.5607 59.9974 80.8324 57.7257 80.8324 54.9235C80.8324 52.1213 78.5607 49.8496 75.7585 49.8496C72.9562 49.8496 70.6846 52.1213 70.6846 54.9235C70.6846 57.7257 72.9562 59.9974 75.7585 59.9974Z" fill="#FFBF9E"/>
<path d="M32.1286 59.9974C34.9308 59.9974 37.2025 57.7257 37.2025 54.9235C37.2025 52.1213 34.9308 49.8496 32.1286 49.8496C29.3263 49.8496 27.0547 52.1213 27.0547 54.9235C27.0547 57.7257 29.3263 59.9974 32.1286 59.9974Z" fill="#F7AB8B"/>
<path d="M63.8838 85.7681C66.9904 85.7681 69.5088 83.2497 69.5088 80.1431C69.5088 77.0365 66.9904 74.5181 63.8838 74.5181C60.7772 74.5181 58.2588 77.0365 58.2588 80.1431C58.2588 83.2497 60.7772 85.7681 63.8838 85.7681Z" fill="#A3DEFE"/>
<path d="M43.9736 85.7681C47.0802 85.7681 49.5986 83.2497 49.5986 80.1431C49.5986 77.0365 47.0802 74.5181 43.9736 74.5181C40.867 74.5181 38.3486 77.0365 38.3486 80.1431C38.3486 83.2497 40.867 85.7681 43.9736 85.7681Z" fill="#A3DEFE"/>
<path d="M77.4064 58.1969C77.0499 57.0066 75.9546 56.1914 74.7122 56.1914H53.9435H33.175C31.9326 56.1914 30.8373 57.0066 30.4808 58.1969C28.1739 65.898 31.7917 74.1427 39.0301 77.6406C42.8441 79.4838 47.7518 80.8352 53.9435 80.8352C60.1354 80.8352 65.0431 79.4838 68.8571 77.6406C76.0955 74.1427 79.7133 65.8982 77.4064 58.1969V58.1969Z" fill="#FCF2D0"/>
<path d="M47.8592 77.6408C40.6209 74.1428 37.003 65.8982 39.3099 58.1969L39.9107 56.1914H33.175C31.9326 56.1914 30.8373 57.0066 30.4808 58.1969C28.1739 65.8981 31.7917 74.1428 39.0301 77.6408C42.8441 79.484 47.7518 80.8354 53.9435 80.8354C55.4946 80.8354 56.9651 80.7505 58.358 80.5944C54.1907 80.1273 50.7177 79.0222 47.8592 77.6408V77.6408Z" fill="#EFDFB4"/>
<path d="M74.3337 57.1879C74.2971 50.9223 71.4762 45.3627 67.0495 41.6582C64.0938 43.6485 59.3247 44.941 53.9434 44.941C48.5742 44.941 43.8143 43.6542 40.8571 41.6716C36.3921 45.412 33.5527 51.0292 33.5527 57.3095C33.5527 57.3629 33.5529 57.4164 33.5533 57.4698C33.5862 61.7347 37.0727 65.1665 41.3376 65.1665H66.5487C70.8352 65.1665 74.3119 61.7011 74.3336 57.4147C74.3341 57.3392 74.3341 57.2635 74.3337 57.1879V57.1879Z" fill="#FFD4BE"/>
<path d="M45.6802 43.8264C43.7937 43.2747 42.1531 42.5402 40.8581 41.6719C36.3931 45.4124 33.5537 51.0295 33.5537 57.3098C33.5537 57.3632 33.5539 57.4167 33.5543 57.4701C33.5872 61.735 37.0737 65.1668 41.3386 65.1668H42.1549C41.1441 62.7486 40.585 60.0947 40.585 57.3098C40.5848 52.1401 42.5093 47.4202 45.6802 43.8264V43.8264Z" fill="#FFBF9E"/>
<path d="M47.2279 60.1281C46.6454 60.1281 46.1732 59.6559 46.1732 59.0734C46.1732 58.5875 45.7779 58.1924 45.2921 58.1924C44.8064 58.1924 44.4111 58.5877 44.4111 59.0734C44.4111 59.6559 43.9389 60.1281 43.3564 60.1281C42.774 60.1281 42.3018 59.6559 42.3018 59.0734C42.3018 57.4244 43.6433 56.083 45.2921 56.083C46.941 56.083 48.2825 57.4246 48.2825 59.0734C48.2825 59.6559 47.8103 60.1281 47.2279 60.1281V60.1281Z" fill="black"/>
<path d="M64.5316 60.1281C63.9491 60.1281 63.4769 59.6559 63.4769 59.0734C63.4769 58.5875 63.0816 58.1924 62.5959 58.1924C62.1101 58.1924 61.7148 58.5877 61.7148 59.0734C61.7148 59.6559 61.2426 60.1281 60.6602 60.1281C60.0777 60.1281 59.6055 59.6559 59.6055 59.0734C59.6055 57.4244 60.947 56.083 62.5959 56.083C64.2447 56.083 65.5863 57.4246 65.5863 59.0734C65.5863 59.6559 65.114 60.1281 64.5316 60.1281Z" fill="black"/>
<path d="M38.3674 62.7085C40.7768 65.1201 44.6854 65.1209 47.096 62.7105C48.93 60.8765 51.9037 60.8765 53.7377 62.7105L53.7529 62.7257C55.5869 64.5597 55.5869 67.5334 53.7529 69.3674L52.8359 70.2844C49.0292 74.0911 42.8573 74.0911 39.0505 70.2844C37.2082 68.4421 36.2576 66.0457 36.1987 63.6316C36.1707 62.4877 37.5588 61.8992 38.3674 62.7085Z" fill="white"/>
<path d="M69.5208 62.7085C67.1113 65.1201 63.2028 65.1209 60.7922 62.7105C58.9582 60.8765 55.9845 60.8765 54.1505 62.7105L54.1353 62.7257C52.3013 64.5597 52.3013 67.5334 54.1353 69.3674L55.0523 70.2844C58.859 74.0911 65.0309 74.0911 68.8376 70.2844C70.68 68.4421 71.6306 66.0457 71.6895 63.6316C71.7174 62.4877 70.3294 61.8992 69.5208 62.7085Z" fill="white"/>
<path d="M67.2277 24.6758C67.2277 23.7779 66.1878 23.2799 65.4882 23.8429L61.9262 26.7096C61.1434 27.3396 60.0276 27.3396 59.2449 26.7096L55.284 23.5218C54.5013 22.8918 53.3855 22.8918 52.6026 23.5218L48.642 26.7096C47.8593 27.3396 46.7435 27.3396 45.9606 26.7096L42.3987 23.843C41.6992 23.2799 40.6592 23.7779 40.6592 24.6759C40.6592 24.6759 40.6579 35.329 53.9429 35.329C67.2279 35.329 67.2277 24.6758 67.2277 24.6758V24.6758Z" fill="#F7EF87"/>
<path d="M48.642 26.7094C47.8592 27.3394 46.7435 27.3394 45.9606 26.7094L42.3987 23.8428C41.6992 23.2797 40.6592 23.7777 40.6592 24.6757C40.6592 24.6757 40.6579 35.3288 53.9429 35.3288C49.5291 35.3288 46.5083 28.3885 48.642 26.7094V26.7094Z" fill="#EFD176"/>
<path d="M81.8872 54.9234C81.8872 52.1287 80.0062 49.7668 77.4444 49.0325C77.1895 45.2103 76.002 41.49 73.9897 38.2368C72.0887 35.1637 69.4863 32.5532 66.4288 30.6373C68.2495 27.7638 68.2827 24.8642 68.2827 24.6755C68.2827 23.8503 67.8203 23.1164 67.0761 22.7599C66.3318 22.4034 65.4701 22.5036 64.8273 23.0209L61.2651 25.8877C60.8715 26.2045 60.3 26.2045 59.9062 25.8877L55.9454 22.7002C54.7855 21.7667 53.1017 21.7665 51.9415 22.7002L47.981 25.8878C47.5872 26.2047 47.0157 26.2047 46.6221 25.8878L43.0602 23.0212C42.4174 22.504 41.5557 22.4039 40.8113 22.7602C40.0671 23.1165 39.6048 23.8506 39.6048 24.6757C39.6048 24.7967 39.6252 27.6741 41.4245 30.5602C41.4391 30.5837 41.455 30.6075 41.4699 30.631C38.4204 32.5397 35.8229 35.138 33.9214 38.1991C31.8947 41.4618 30.6991 45.195 30.4432 49.0325C27.8811 49.7667 26 52.1287 26 54.9235C26 57.0786 27.1398 59.0654 28.9554 60.1666C28.339 64.0824 29.0714 68.148 31.067 71.6126C31.2622 71.9515 31.617 72.1411 31.9819 72.1411C32.1605 72.1411 32.3415 72.0957 32.5073 72.0002C33.012 71.7095 33.1855 71.0646 32.8948 70.5599C30.7977 66.9188 30.2862 62.5232 31.4914 58.4998C31.6475 57.9787 32.0221 57.5771 32.4987 57.3802L32.4991 57.478C32.5171 59.8098 33.4797 62.0577 35.1455 63.6911C35.2218 66.4628 36.3423 69.0682 38.3044 71.0302C40.3447 73.0705 43.0574 74.1942 45.9427 74.1942C48.8281 74.1942 51.5409 73.0706 53.5812 71.0302L53.9437 70.6676L54.3063 71.0302C56.3466 73.0705 59.0592 74.1942 61.9447 74.1942C64.8302 74.1942 67.5429 73.0706 69.5832 71.0302C71.5472 69.0663 72.6681 66.458 72.7423 63.6833C74.4141 62.0379 75.3768 59.7713 75.3888 57.4203C75.3888 57.407 75.3888 57.3935 75.3888 57.3801C75.8655 57.577 76.2401 57.9786 76.3962 58.4998C78.5684 65.7512 75.205 73.4019 68.3983 76.6913C64.1562 78.7413 59.293 79.7808 53.9437 79.7808C48.5944 79.7808 43.7313 78.7413 39.489 76.6913C37.8765 75.9119 36.4292 74.8701 35.1875 73.5942C34.781 73.1767 34.1132 73.1678 33.696 73.5741C33.2786 73.9803 33.2696 74.6482 33.6759 75.0655C34.8395 76.261 36.1634 77.2725 37.6175 78.0885C37.4037 78.7485 37.294 79.4363 37.294 80.1429C37.294 81.4759 37.688 82.7178 38.3635 83.7614C37.3318 85.5076 36.6083 87.3981 36.2118 89.3879C35.9862 90.5195 36.278 91.6819 37.0122 92.5767C37.7515 93.4778 38.8434 93.9946 40.0084 93.9946H67.879C69.0439 93.9946 70.1359 93.4778 70.8751 92.5767C71.6093 91.6819 71.901 90.5197 71.6756 89.3879C71.277 87.3878 70.5483 85.4905 69.5094 83.7383C70.1757 82.6995 70.5639 81.4661 70.5639 80.1431C70.5639 79.4415 70.4555 78.7583 70.2447 78.1023C73.5336 76.2597 76.1522 73.3894 77.677 69.9195C79.028 66.845 79.4556 63.4534 78.9343 60.1652C80.7477 59.0635 81.8872 57.0741 81.8872 54.9234V54.9234ZM43.0453 91.8853H40.0084C39.4776 91.8853 38.98 91.6497 38.643 91.2388C38.3112 90.8342 38.179 90.3098 38.2805 89.8002C38.5879 88.2574 39.1216 86.7835 39.8634 85.4026C40.767 86.1104 41.8562 86.5907 43.0453 86.7568V91.8853ZM39.4035 80.1431C39.4035 79.7648 39.4502 79.3951 39.5395 79.0361C42.263 80.2369 45.2066 81.0602 48.3394 81.5032C47.76 83.3839 46.0181 84.7134 43.9738 84.7134C41.4538 84.7134 39.4035 82.6631 39.4035 80.1431V80.1431ZM62.7328 91.8853H45.1547V86.7183C47.7484 86.2594 49.8352 84.3147 50.4613 81.7427C51.6001 81.8392 52.7604 81.8903 53.9439 81.8903C55.1181 81.8903 56.2695 81.84 57.3999 81.7449C58.0323 84.3164 60.1419 86.269 62.7329 86.7218V91.8853H62.7328ZM59.5211 81.507C62.6538 81.0664 65.5975 80.2453 68.3215 79.0473C68.409 79.4028 68.4547 79.7687 68.4547 80.1429C68.4547 82.6629 66.4044 84.7132 63.8844 84.7132C61.857 84.7134 60.1051 83.3814 59.5211 81.507ZM69.607 89.8001C69.7085 90.3098 69.5765 90.8342 69.2444 91.2388C68.9075 91.6496 68.4097 91.8853 67.8791 91.8853H64.8422V86.753C66.0302 86.5816 67.1172 86.0962 68.0179 85.3842C68.7645 86.7696 69.2982 88.25 69.607 89.8001ZM32.6056 55.1802C31.1323 55.3948 29.9092 56.4305 29.4706 57.8945C29.4674 57.9055 29.4644 57.9167 29.4612 57.9277C28.6172 57.1759 28.1094 56.0875 28.1094 54.9235C28.1094 52.7073 29.9123 50.9043 32.1286 50.9043C32.5663 50.9043 32.9999 50.976 33.4108 51.114C33.014 52.4317 32.7431 53.7926 32.6056 55.1802ZM52.0897 69.5387C48.7003 72.9282 43.1854 72.9282 39.7959 69.5387C38.2106 67.9533 37.3074 65.8463 37.2527 63.6059C37.2518 63.571 37.2493 63.4651 37.3808 63.4087C37.4712 63.37 37.5521 63.3851 37.621 63.4541C38.9856 64.8197 40.8002 65.5722 42.7307 65.5725H42.7324C44.6623 65.5725 46.4767 64.821 47.8415 63.4562C48.5294 62.7684 49.4439 62.3896 50.4166 62.3896C51.1871 62.3896 51.9204 62.6281 52.5341 63.0687C51.9941 63.9577 51.705 64.9798 51.705 66.0464C51.705 67.1305 52.0041 68.168 52.5613 69.067L52.0897 69.5387ZM70.6349 63.6059C70.5802 65.8464 69.677 67.9534 68.0916 69.5387C66.4497 71.1806 64.2667 72.0848 61.9447 72.0848C59.6227 72.0848 57.4397 71.1806 55.7979 69.5387L54.8809 68.6217C54.1931 67.9337 53.8142 67.0192 53.8142 66.0465C53.8142 65.0738 54.1931 64.1594 54.8809 63.4714L54.896 63.4562C55.5838 62.7684 56.4985 62.3896 57.4712 62.3896C58.4439 62.3896 59.3584 62.7684 60.0463 63.4562C61.4111 64.821 63.2253 65.5725 65.1553 65.5725H65.157C67.0875 65.5721 68.9022 64.8197 70.2668 63.4541C70.3358 63.3852 70.4167 63.37 70.507 63.4087C70.6385 63.4651 70.6358 63.5711 70.6349 63.6059V63.6059ZM71.7241 61.6818C71.6034 61.6007 71.4749 61.5287 71.3374 61.4696C70.4566 61.0923 69.4506 61.2861 68.7745 61.9632C67.8082 62.9302 66.5233 63.463 65.1565 63.4633C65.156 63.4633 65.1558 63.4633 65.1553 63.4633C63.7889 63.4633 62.5041 62.9311 61.5378 61.9649C60.4514 60.8786 59.0072 60.2804 57.4712 60.2804C56.1767 60.2804 54.9485 60.7066 53.9439 61.4903C52.9393 60.7067 51.7109 60.2804 50.4166 60.2804C48.8804 60.2804 47.4362 60.8786 46.35 61.9649C45.3836 62.9313 44.0991 63.4633 42.7324 63.4633C42.7321 63.4633 42.7316 63.4633 42.7313 63.4633C41.3644 63.463 40.0795 62.9302 39.1133 61.9632C38.437 61.2863 37.4311 61.0925 36.5504 61.4696C36.4109 61.5294 36.2805 61.6027 36.1585 61.6852C35.1665 60.5014 34.6207 59.0312 34.6086 57.4617L34.6081 57.3094C34.6081 51.8274 36.9136 46.6482 40.96 42.9811C44.218 44.9037 48.8908 45.9955 53.944 45.9955C59.0099 45.9955 63.6905 44.8992 66.9492 42.9686C70.9502 46.595 73.2476 51.7363 73.2795 57.1934C73.28 57.2652 73.28 57.3369 73.2795 57.4091C73.2715 58.9984 72.7235 60.486 71.7241 61.6818ZM67.7268 40.8494C67.3664 40.548 66.8504 40.521 66.4609 40.7834C63.5754 42.7264 58.8963 43.8863 53.9439 43.8863C49.004 43.8863 44.3315 42.7309 41.445 40.7955C41.0553 40.5342 40.5401 40.5616 40.1803 40.863C37.4832 43.1226 35.423 45.9642 34.1179 49.1274C33.6206 48.9571 33.1018 48.8509 32.5751 48.8124C33.1397 41.972 36.8862 35.8951 42.768 32.3044C44.767 34.4298 48.1733 36.3834 53.9432 36.3834C54.9477 36.3834 55.9184 36.3239 56.8287 36.2066C57.4063 36.1321 57.8143 35.6035 57.7398 35.0258C57.6654 34.4481 57.1373 34.0404 56.5589 34.1147C55.7378 34.2204 54.8578 34.2742 53.9432 34.2742C41.9157 34.2742 41.7168 25.0645 41.7126 24.6695C41.7163 24.665 41.7279 24.6593 41.7378 24.6645L45.2997 27.5313C46.4598 28.4651 48.1438 28.4649 49.3037 27.5313L53.2642 24.3436C53.6578 24.027 54.2292 24.0268 54.6231 24.3436L58.5841 27.5313C59.744 28.4649 61.4281 28.4648 62.588 27.5313L66.1539 24.6593C66.1598 24.6593 66.1715 24.6651 66.1736 24.6723C66.1721 24.9137 66.0683 30.6147 60.3526 33.1088C59.8188 33.3418 59.5748 33.9634 59.8077 34.4973C60.0405 35.0311 60.6621 35.2751 61.1962 35.0422C62.8736 34.3103 64.1531 33.3515 65.1306 32.3126C71.0045 35.9046 74.7484 41.9824 75.3127 48.8131C74.7898 48.8513 74.2746 48.9568 73.7804 49.125C72.4781 45.9497 70.4196 43.1029 67.7268 40.8494V40.8494ZM78.4264 57.9274C78.4232 57.9165 78.4202 57.9055 78.417 57.8945C77.9785 56.4307 76.7559 55.3952 75.2829 55.1802C75.1462 53.7915 74.8768 52.4302 74.4824 51.1125C74.8918 50.9759 75.3234 50.9042 75.7586 50.9042C77.9749 50.9042 79.7778 52.7071 79.7778 54.9234C79.7778 56.0854 79.27 57.1751 78.4264 57.9274Z" fill="black"/>
<path d="M175.058 50.0009H178.415L168.143 33.5949C167.726 32.9287 166.848 32.7267 166.182 33.144C165.516 33.561 165.314 34.4392 165.731 35.1053L175.058 50.0009Z" fill="#EAA895"/>
<path d="M185.077 50.9604L178.601 25.5829C178.407 24.8212 177.632 24.3613 176.87 24.5558C176.109 24.7502 175.649 25.5251 175.843 26.2865L182.14 50.9604H185.077Z" fill="#EAA895"/>
<path d="M192.95 46.2407C188.483 46.2407 184.453 48.1077 181.595 51.1032C179.717 49.9239 177.496 49.2402 175.114 49.2402C169.454 49.2402 164.694 53.091 163.31 58.3153H177.677H186.919H208.224C206.59 51.3928 200.372 46.2407 192.95 46.2407V46.2407Z" fill="#E9C278"/>
<path d="M194.709 88.4547H177.292C176.326 88.4547 175.544 87.6721 175.544 86.7069V86.2908C175.544 85.3254 176.326 84.543 177.292 84.543H194.709C195.674 84.543 196.457 85.3254 196.457 86.2908V86.7068C196.457 87.6722 195.674 88.4547 194.709 88.4547V88.4547Z" fill="#EAA895"/>
<path d="M210.689 57.9888C211.737 57.9888 212.561 58.8807 212.485 59.9263C211.493 73.6874 202.135 84.5431 186 84.5431C169.866 84.5431 160.508 73.6874 159.516 59.9263C159.44 58.8806 160.264 57.9888 161.312 57.9888H210.689Z" fill="#EAA895"/>
<path d="M211.389 58.2061C211.17 58.2061 210.993 58.3833 210.993 58.6019C210.993 58.8205 211.17 58.9978 211.389 58.9978C211.608 58.9978 211.785 58.8207 211.785 58.6019C211.785 58.3833 211.608 58.2061 211.389 58.2061Z" fill="#F9FBFC"/>
<path d="M211.389 60.7583C211.17 60.7583 210.993 60.9356 210.993 61.1542C210.993 61.3728 211.17 61.5501 211.389 61.5501C211.608 61.5501 211.785 61.3729 211.785 61.1542C211.785 60.9356 211.608 60.7583 211.389 60.7583Z" fill="#F9FBFC"/>
<path d="M211.389 63.3105C211.17 63.3105 210.993 63.4878 210.993 63.7064C210.993 63.925 211.17 64.1023 211.389 64.1023C211.608 64.1023 211.785 63.9252 211.785 63.7064C211.785 63.4878 211.608 63.3105 211.389 63.3105Z" fill="#F9FBFC"/>
<path d="M208.837 58.2061C208.619 58.2061 208.441 58.3833 208.441 58.6019C208.441 58.8205 208.619 58.9978 208.837 58.9978C209.056 58.9978 209.233 58.8207 209.233 58.6019C209.233 58.3833 209.056 58.2061 208.837 58.2061Z" fill="#F9FBFC"/>
<path d="M210.161 59.4341C209.942 59.4341 209.765 59.6114 209.765 59.83C209.765 60.0486 209.942 60.2258 210.161 60.2258C210.379 60.2258 210.556 60.0487 210.556 59.83C210.556 59.6114 210.379 59.4341 210.161 59.4341Z" fill="#F9FBFC"/>
<path d="M208.837 60.7583C208.619 60.7583 208.441 60.9356 208.441 61.1542C208.441 61.3728 208.619 61.5501 208.837 61.5501C209.056 61.5501 209.233 61.3729 209.233 61.1542C209.233 60.9356 209.056 60.7583 208.837 60.7583Z" fill="#F9FBFC"/>
<path d="M210.161 61.9863C209.942 61.9863 209.765 62.1636 209.765 62.3822C209.765 62.6008 209.942 62.7781 210.161 62.7781C210.379 62.7781 210.556 62.6008 210.556 62.3822C210.556 62.1636 210.379 61.9863 210.161 61.9863Z" fill="#F9FBFC"/>
<path d="M208.837 63.3105C208.619 63.3105 208.441 63.4878 208.441 63.7064C208.441 63.925 208.619 64.1023 208.837 64.1023C209.056 64.1023 209.233 63.9252 209.233 63.7064C209.233 63.4878 209.056 63.3105 208.837 63.3105Z" fill="#F9FBFC"/>
<path d="M210.161 64.5391C209.942 64.5391 209.765 64.7163 209.765 64.9349C209.765 65.1535 209.942 65.3308 210.161 65.3308C210.379 65.3308 210.556 65.1537 210.556 64.9349C210.556 64.7163 210.379 64.5391 210.161 64.5391Z" fill="#F9FBFC"/>
<path d="M208.443 71.3506C208.443 71.3549 208.441 71.359 208.441 71.3633C208.441 71.5819 208.619 71.7592 208.837 71.7592C209.056 71.7592 209.233 71.582 209.233 71.3633C209.233 71.359 209.232 71.3549 209.232 71.3506H208.443Z" fill="#F9FBFC"/>
<path d="M206.285 58.2061C206.066 58.2061 205.889 58.3833 205.889 58.6019C205.889 58.8205 206.066 58.9978 206.285 58.9978C206.503 58.9978 206.68 58.8207 206.68 58.6019C206.68 58.3833 206.503 58.2061 206.285 58.2061Z" fill="#F9FBFC"/>
<path d="M207.609 59.4341C207.39 59.4341 207.213 59.6114 207.213 59.83C207.213 60.0486 207.39 60.2258 207.609 60.2258C207.827 60.2258 208.005 60.0487 208.005 59.83C208.005 59.6114 207.828 59.4341 207.609 59.4341Z" fill="#F9FBFC"/>
<path d="M206.285 60.7583C206.066 60.7583 205.889 60.9356 205.889 61.1542C205.889 61.3728 206.066 61.5501 206.285 61.5501C206.503 61.5501 206.68 61.3729 206.68 61.1542C206.68 60.9356 206.503 60.7583 206.285 60.7583Z" fill="#F9FBFC"/>
<path d="M207.609 61.9863C207.39 61.9863 207.213 62.1636 207.213 62.3822C207.213 62.6008 207.39 62.7781 207.609 62.7781C207.827 62.7781 208.005 62.6008 208.005 62.3822C208.005 62.1636 207.828 61.9863 207.609 61.9863Z" fill="#F9FBFC"/>
<path d="M206.285 63.3105C206.066 63.3105 205.889 63.4878 205.889 63.7064C205.889 63.925 206.066 64.1023 206.285 64.1023C206.503 64.1023 206.68 63.9252 206.68 63.7064C206.68 63.4878 206.503 63.3105 206.285 63.3105Z" fill="#F9FBFC"/>
<path d="M207.609 64.5391C207.39 64.5391 207.213 64.7163 207.213 64.9349C207.213 65.1535 207.39 65.3308 207.609 65.3308C207.827 65.3308 208.005 65.1537 208.005 64.9349C208.005 64.7163 207.828 64.5391 207.609 64.5391Z" fill="#F9FBFC"/>
<path d="M205.89 71.3506C205.89 71.3549 205.889 71.359 205.889 71.3633C205.889 71.5819 206.066 71.7592 206.285 71.7592C206.503 71.7592 206.68 71.582 206.68 71.3633C206.68 71.359 206.679 71.3549 206.679 71.3506H205.89Z" fill="#F9FBFC"/>
<path d="M207.609 72.1953C207.39 72.1953 207.213 72.3726 207.213 72.5912C207.213 72.8098 207.39 72.9871 207.609 72.9871C207.827 72.9871 208.005 72.8099 208.005 72.5912C208.005 72.3726 207.828 72.1953 207.609 72.1953Z" fill="#F9FBFC"/>
<path d="M206.544 73.6191C206.475 73.5579 206.384 73.5195 206.284 73.5195C206.184 73.5195 206.094 73.5578 206.024 73.6191H206.544Z" fill="#F9FBFC"/>
<path d="M203.733 58.2061C203.514 58.2061 203.337 58.3833 203.337 58.6019C203.337 58.8205 203.514 58.9978 203.733 58.9978C203.951 58.9978 204.129 58.8207 204.129 58.6019C204.129 58.3833 203.951 58.2061 203.733 58.2061Z" fill="#F9FBFC"/>
<path d="M205.056 59.4341C204.837 59.4341 204.66 59.6114 204.66 59.83C204.66 60.0486 204.837 60.2258 205.056 60.2258C205.275 60.2258 205.452 60.0487 205.452 59.83C205.452 59.6114 205.275 59.4341 205.056 59.4341Z" fill="#F9FBFC"/>
<path d="M203.733 60.7583C203.514 60.7583 203.337 60.9356 203.337 61.1542C203.337 61.3728 203.514 61.5501 203.733 61.5501C203.951 61.5501 204.129 61.3729 204.129 61.1542C204.129 60.9356 203.951 60.7583 203.733 60.7583Z" fill="#F9FBFC"/>
<path d="M205.056 61.9863C204.837 61.9863 204.66 62.1636 204.66 62.3822C204.66 62.6008 204.837 62.7781 205.056 62.7781C205.275 62.7781 205.452 62.6008 205.452 62.3822C205.452 62.1636 205.275 61.9863 205.056 61.9863Z" fill="#F9FBFC"/>
<path d="M203.733 63.3105C203.514 63.3105 203.337 63.4878 203.337 63.7064C203.337 63.925 203.514 64.1023 203.733 64.1023C203.951 64.1023 204.129 63.9252 204.129 63.7064C204.129 63.4878 203.951 63.3105 203.733 63.3105Z" fill="#F9FBFC"/>
<path d="M205.056 64.5391C204.837 64.5391 204.66 64.7163 204.66 64.9349C204.66 65.1535 204.837 65.3308 205.056 65.3308C205.275 65.3308 205.452 65.1537 205.452 64.9349C205.452 64.7163 205.275 64.5391 205.056 64.5391Z" fill="#F9FBFC"/>
<path d="M203.338 71.3506C203.338 71.3549 203.337 71.359 203.337 71.3633C203.337 71.5819 203.514 71.7592 203.733 71.7592C203.951 71.7592 204.129 71.582 204.129 71.3633C204.129 71.359 204.128 71.3549 204.127 71.3506H203.338Z" fill="#F9FBFC"/>
<path d="M205.056 72.1953C204.837 72.1953 204.66 72.3726 204.66 72.5912C204.66 72.8098 204.837 72.9871 205.056 72.9871C205.275 72.9871 205.452 72.8099 205.452 72.5912C205.452 72.3726 205.275 72.1953 205.056 72.1953Z" fill="#F9FBFC"/>
<path d="M203.993 73.6191C203.923 73.5579 203.833 73.5195 203.733 73.5195C203.633 73.5195 203.542 73.5578 203.473 73.6191H203.993Z" fill="#F9FBFC"/>
<path d="M203.733 76.0718C203.514 76.0718 203.337 76.2491 203.337 76.4677C203.337 76.6863 203.514 76.8635 203.733 76.8635C203.951 76.8635 204.129 76.6864 204.129 76.4677C204.129 76.2491 203.951 76.0718 203.733 76.0718Z" fill="#F9FBFC"/>
<path d="M202.504 64.5391C202.286 64.5391 202.108 64.7163 202.108 64.9349C202.108 65.1535 202.286 65.3308 202.504 65.3308C202.723 65.3308 202.9 65.1537 202.9 64.9349C202.9 64.7163 202.723 64.5391 202.504 64.5391Z" fill="#F9FBFC"/>
<path d="M200.785 71.3506C200.785 71.3549 200.784 71.359 200.784 71.3633C200.784 71.5819 200.961 71.7592 201.18 71.7592C201.399 71.7592 201.576 71.582 201.576 71.3633C201.576 71.359 201.575 71.3549 201.575 71.3506H200.785Z" fill="#F9FBFC"/>
<path d="M202.504 72.1953C202.286 72.1953 202.108 72.3726 202.108 72.5912C202.108 72.8098 202.286 72.9871 202.504 72.9871C202.723 72.9871 202.9 72.8099 202.9 72.5912C202.9 72.3726 202.723 72.1953 202.504 72.1953Z" fill="#F9FBFC"/>
<path d="M201.44 73.6191C201.37 73.5579 201.28 73.5195 201.18 73.5195C201.08 73.5195 200.99 73.5578 200.92 73.6191H201.44Z" fill="#F9FBFC"/>
<path d="M201.18 76.0718C200.961 76.0718 200.784 76.2491 200.784 76.4677C200.784 76.6863 200.961 76.8635 201.18 76.8635C201.399 76.8635 201.576 76.6864 201.576 76.4677C201.576 76.2491 201.399 76.0718 201.18 76.0718Z" fill="#F9FBFC"/>
<path d="M202.504 77.2998C202.286 77.2998 202.108 77.4771 202.108 77.6957C202.108 77.9143 202.286 78.0916 202.504 78.0916C202.723 78.0916 202.9 77.9144 202.9 77.6957C202.9 77.4772 202.723 77.2998 202.504 77.2998Z" fill="#F9FBFC"/>
<path d="M201.18 78.624C200.961 78.624 200.784 78.8013 200.784 79.0199C200.784 79.2385 200.961 79.4158 201.18 79.4158C201.399 79.4158 201.576 79.2386 201.576 79.0199C201.576 78.8013 201.399 78.624 201.18 78.624Z" fill="#F9FBFC"/>
<path d="M199.953 72.1953C199.734 72.1953 199.557 72.3726 199.557 72.5912C199.557 72.8098 199.734 72.9871 199.953 72.9871C200.171 72.9871 200.348 72.8099 200.348 72.5912C200.348 72.3726 200.171 72.1953 199.953 72.1953Z" fill="#F9FBFC"/>
<path d="M198.888 73.6191C198.818 73.5579 198.728 73.5195 198.628 73.5195C198.528 73.5195 198.438 73.5579 198.368 73.6191H198.888Z" fill="#F9FBFC"/>
<path d="M198.627 76.0718C198.409 76.0718 198.231 76.2491 198.231 76.4677C198.231 76.6863 198.409 76.8635 198.627 76.8635C198.846 76.8635 199.023 76.6864 199.023 76.4677C199.023 76.2491 198.846 76.0718 198.627 76.0718Z" fill="#F9FBFC"/>
<path d="M199.953 77.2998C199.734 77.2998 199.557 77.4771 199.557 77.6957C199.557 77.9143 199.734 78.0916 199.953 78.0916C200.171 78.0916 200.348 77.9144 200.348 77.6957C200.348 77.4772 200.171 77.2998 199.953 77.2998Z" fill="#F9FBFC"/>
<path d="M198.627 78.624C198.409 78.624 198.231 78.8013 198.231 79.0199C198.231 79.2385 198.409 79.4158 198.627 79.4158C198.846 79.4158 199.023 79.2386 199.023 79.0199C199.023 78.8013 198.846 78.624 198.627 78.624Z" fill="#F9FBFC"/>
<path d="M199.953 79.8521C199.734 79.8521 199.557 80.0293 199.557 80.2479C199.557 80.4665 199.734 80.6438 199.953 80.6438C200.171 80.6438 200.348 80.4667 200.348 80.2479C200.348 80.0293 200.171 79.8521 199.953 79.8521Z" fill="#F9FBFC"/>
<path d="M198.627 81.1768C198.409 81.1768 198.231 81.354 198.231 81.5726C198.231 81.7255 198.319 81.8567 198.446 81.9226C198.638 81.8316 198.828 81.7383 199.016 81.643C199.02 81.6201 199.023 81.5967 199.023 81.5726C199.023 81.354 198.846 81.1768 198.627 81.1768Z" fill="#F9FBFC"/>
<path d="M197.399 77.2998C197.18 77.2998 197.003 77.4771 197.003 77.6957C197.003 77.9143 197.18 78.0916 197.399 78.0916C197.617 78.0916 197.795 77.9144 197.795 77.6957C197.795 77.4772 197.618 77.2998 197.399 77.2998Z" fill="#F9FBFC"/>
<path d="M196.076 78.624C195.857 78.624 195.68 78.8013 195.68 79.0199C195.68 79.2385 195.857 79.4158 196.076 79.4158C196.294 79.4158 196.471 79.2386 196.471 79.0199C196.471 78.8013 196.294 78.624 196.076 78.624Z" fill="#F9FBFC"/>
<path d="M196.254 76.1543C196.036 76.1543 195.858 76.3316 195.858 76.5502C195.858 76.7688 196.036 76.9461 196.254 76.9461C196.473 76.9461 196.65 76.7689 196.65 76.5502C196.65 76.3316 196.473 76.1543 196.254 76.1543Z" fill="#F9FBFC"/>
<path d="M194.93 77.4785C194.711 77.4785 194.534 77.6558 194.534 77.8744C194.534 78.093 194.711 78.2703 194.93 78.2703C195.149 78.2703 195.326 78.0931 195.326 77.8744C195.326 77.6558 195.149 77.4785 194.93 77.4785Z" fill="#F9FBFC"/>
<path d="M197.399 79.8521C197.18 79.8521 197.003 80.0293 197.003 80.2479C197.003 80.4665 197.18 80.6438 197.399 80.6438C197.617 80.6438 197.795 80.4667 197.795 80.2479C197.795 80.0293 197.618 79.8521 197.399 79.8521Z" fill="#F9FBFC"/>
<path d="M196.076 81.9685C196.294 81.9685 196.471 81.7914 196.471 81.5726C196.471 81.354 196.294 81.1768 196.076 81.1768C195.857 81.1768 195.68 81.354 195.68 81.5726C195.68 81.7914 195.857 81.9685 196.076 81.9685Z" fill="#F9FBFC"/>
<path d="M194.848 79.8521C194.629 79.8521 194.452 80.0293 194.452 80.2479C194.452 80.4665 194.629 80.6438 194.848 80.6438C195.067 80.6438 195.244 80.4667 195.244 80.2479C195.244 80.0293 195.067 79.8521 194.848 79.8521Z" fill="#F9FBFC"/>
<path d="M193.524 81.1768C193.305 81.1768 193.128 81.354 193.128 81.5726C193.128 81.7912 193.305 81.9685 193.524 81.9685C193.742 81.9685 193.92 81.7914 193.92 81.5726C193.92 81.354 193.742 81.1768 193.524 81.1768Z" fill="#F9FBFC"/>
<path d="M194.848 82.4048C194.629 82.4048 194.452 82.5821 194.452 82.8007C194.452 83.0193 194.629 83.1966 194.848 83.1966C195.067 83.1966 195.244 83.0194 195.244 82.8007C195.244 82.5821 195.067 82.4048 194.848 82.4048Z" fill="#F9FBFC"/>
<path d="M190.575 81.5726C190.575 81.7912 190.752 81.9685 190.971 81.9685C191.19 81.9685 191.367 81.7914 191.367 81.5726C191.367 81.354 191.19 81.1768 190.971 81.1768C190.752 81.1768 190.575 81.354 190.575 81.5726Z" fill="#F9FBFC"/>
<path d="M191.899 80.2484C191.899 80.467 192.077 80.6443 192.295 80.6443C192.514 80.6443 192.691 80.4672 192.691 80.2484C192.691 80.0298 192.514 79.8525 192.295 79.8525C192.077 79.8525 191.899 80.0298 191.899 80.2484Z" fill="#F9FBFC"/>
<path d="M193.134 79.0189C193.134 79.2375 193.311 79.4148 193.53 79.4148C193.748 79.4148 193.926 79.2375 193.926 79.0189C193.926 78.8003 193.748 78.623 193.53 78.623C193.311 78.623 193.134 78.8003 193.134 79.0189Z" fill="#F9FBFC"/>
<path d="M192.295 82.4048C192.077 82.4048 191.899 82.5821 191.899 82.8007C191.899 83.0193 192.077 83.1966 192.295 83.1966C192.514 83.1966 192.691 83.0194 192.691 82.8007C192.691 82.5821 192.514 82.4048 192.295 82.4048Z" fill="#F9FBFC"/>
<path d="M189.347 82.8007C189.347 83.0193 189.524 83.1966 189.743 83.1966C189.961 83.1966 190.138 83.0194 190.138 82.8007C190.138 82.5821 189.961 82.4048 189.743 82.4048C189.524 82.4048 189.347 82.5821 189.347 82.8007Z" fill="#F9FBFC"/>
<path d="M188.815 84.1249C188.815 83.9063 188.638 83.729 188.419 83.729C188.201 83.729 188.023 83.9063 188.023 84.1249C188.023 84.2757 188.109 84.4054 188.233 84.4722C188.375 84.463 188.515 84.4512 188.656 84.4403C188.752 84.3679 188.815 84.2542 188.815 84.1249V84.1249Z" fill="#F9FBFC"/>
<path d="M186.262 84.1249C186.262 83.9063 186.085 83.729 185.867 83.729C185.648 83.729 185.471 83.9063 185.471 84.1249C185.471 84.3435 185.648 84.5208 185.867 84.5208C186.085 84.5208 186.262 84.3435 186.262 84.1249Z" fill="#F9FBFC"/>
<path d="M209.524 71.4243H162.642L160.395 65.7515H211.45L209.524 71.4243Z" fill="#F9FBFC"/>
<path d="M206.456 75.8127H165.668L163.713 73.5649H208.132L206.456 75.8127Z" fill="#F9FBFC"/>
<path d="M208.837 65.8628C208.619 65.8628 208.441 66.0401 208.441 66.2587C208.441 66.4773 208.619 66.6546 208.837 66.6546C209.056 66.6546 209.233 66.4774 209.233 66.2587C209.233 66.0401 209.056 65.8628 208.837 65.8628Z" fill="#EAA895"/>
<path d="M209.767 67.4867C209.767 67.7053 209.944 67.8826 210.162 67.8826C210.381 67.8826 210.558 67.7054 210.558 67.4867C210.558 67.2681 210.381 67.0908 210.162 67.0908C209.944 67.0908 209.767 67.268 209.767 67.4867Z" fill="#EAA895"/>
<path d="M208.837 69.2068C209.056 69.2068 209.233 69.0296 209.233 68.8109C209.233 68.5923 209.056 68.415 208.837 68.415C208.619 68.415 208.441 68.5923 208.441 68.8109C208.441 69.0296 208.619 69.2068 208.837 69.2068Z" fill="#EAA895"/>
<path d="M209.233 71.3632C209.233 71.1446 209.056 70.9673 208.837 70.9673C208.619 70.9673 208.441 71.1446 208.441 71.3632C208.441 71.384 208.444 71.4041 208.448 71.4242H209.227C209.23 71.4041 209.233 71.384 209.233 71.3632Z" fill="#EAA895"/>
<path d="M206.286 66.655C206.504 66.655 206.681 66.4779 206.681 66.2592C206.681 66.0406 206.504 65.8633 206.286 65.8633C206.067 65.8633 205.89 66.0406 205.89 66.2592C205.89 66.4778 206.067 66.655 206.286 66.655Z" fill="#EAA895"/>
<path d="M207.61 67.8826C207.828 67.8826 208.006 67.7054 208.006 67.4867C208.006 67.2681 207.828 67.0908 207.61 67.0908C207.391 67.0908 207.214 67.2681 207.214 67.4867C207.214 67.7053 207.391 67.8826 207.61 67.8826Z" fill="#EAA895"/>
<path d="M206.286 69.2068C206.504 69.2068 206.681 69.0296 206.681 68.8109C206.681 68.5923 206.504 68.415 206.286 68.415C206.067 68.415 205.89 68.5923 205.89 68.8109C205.89 69.0296 206.067 69.2068 206.286 69.2068Z" fill="#EAA895"/>
<path d="M207.61 70.4348C207.828 70.4348 208.006 70.2577 208.006 70.0389C208.006 69.8203 207.828 69.6431 207.61 69.6431C207.391 69.6431 207.214 69.8203 207.214 70.0389C207.214 70.2577 207.391 70.4348 207.61 70.4348Z" fill="#EAA895"/>
<path d="M206.681 71.3632C206.681 71.1446 206.504 70.9673 206.286 70.9673C206.067 70.9673 205.89 71.1446 205.89 71.3632C205.89 71.384 205.893 71.4041 205.896 71.4242H206.675C206.678 71.4041 206.681 71.384 206.681 71.3632Z" fill="#EAA895"/>
<path d="M203.734 66.655C203.952 66.655 204.13 66.4779 204.13 66.2592C204.13 66.0406 203.952 65.8633 203.734 65.8633C203.515 65.8633 203.338 66.0406 203.338 66.2592C203.338 66.4778 203.515 66.655 203.734 66.655Z" fill="#EAA895"/>
<path d="M205.058 67.8826C205.277 67.8826 205.454 67.7054 205.454 67.4867C205.454 67.2681 205.277 67.0908 205.058 67.0908C204.839 67.0908 204.662 67.2681 204.662 67.4867C204.662 67.7053 204.839 67.8826 205.058 67.8826Z" fill="#EAA895"/>
<path d="M203.734 69.2068C203.952 69.2068 204.13 69.0296 204.13 68.8109C204.13 68.5923 203.952 68.415 203.734 68.415C203.515 68.415 203.338 68.5923 203.338 68.8109C203.338 69.0296 203.515 69.2068 203.734 69.2068Z" fill="#EAA895"/>
<path d="M205.058 70.4348C205.277 70.4348 205.454 70.2577 205.454 70.0389C205.454 69.8203 205.277 69.6431 205.058 69.6431C204.839 69.6431 204.662 69.8203 204.662 70.0389C204.662 70.2577 204.839 70.4348 205.058 70.4348Z" fill="#EAA895"/>
<path d="M204.13 71.3632C204.13 71.1446 203.952 70.9673 203.734 70.9673C203.515 70.9673 203.338 71.1446 203.338 71.3632C203.338 71.384 203.341 71.4041 203.344 71.4242H204.123C204.127 71.4041 204.13 71.384 204.13 71.3632Z" fill="#EAA895"/>
<path d="M202.506 67.8826C202.725 67.8826 202.902 67.7054 202.902 67.4867C202.902 67.2681 202.725 67.0908 202.506 67.0908C202.288 67.0908 202.11 67.2681 202.11 67.4867C202.11 67.7053 202.288 67.8826 202.506 67.8826Z" fill="#EAA895"/>
<path d="M201.173 69.2068C201.392 69.2068 201.569 69.0295 201.569 68.8109C201.569 68.5923 201.392 68.415 201.173 68.415C200.955 68.415 200.777 68.5923 200.777 68.8109C200.777 69.0297 200.955 69.2068 201.173 69.2068Z" fill="#EAA895"/>
<path d="M202.506 70.4348C202.725 70.4348 202.902 70.2577 202.902 70.0389C202.902 69.8203 202.725 69.6431 202.506 69.6431C202.288 69.6431 202.11 69.8203 202.11 70.0389C202.11 70.2577 202.288 70.4348 202.506 70.4348Z" fill="#EAA895"/>
<path d="M201.577 71.3632C201.577 71.1446 201.4 70.9673 201.181 70.9673C200.962 70.9673 200.785 71.1446 200.785 71.3632C200.785 71.384 200.788 71.4041 200.791 71.4242H201.571C201.574 71.4041 201.577 71.384 201.577 71.3632Z" fill="#EAA895"/>
<path d="M205.891 73.916C205.891 74.1346 206.068 74.3119 206.287 74.3119C206.505 74.3119 206.682 74.1346 206.682 73.916C206.682 73.7627 206.594 73.6312 206.467 73.5654H206.106C205.979 73.6312 205.891 73.7627 205.891 73.916Z" fill="#EAA895"/>
<path d="M203.338 73.916C203.338 74.1346 203.515 74.3119 203.734 74.3119C203.952 74.3119 204.13 74.1346 204.13 73.916C204.13 73.7627 204.042 73.6312 203.914 73.5654H203.554C203.426 73.6312 203.338 73.7627 203.338 73.916Z" fill="#EAA895"/>
<path d="M204.662 75.1439C204.662 75.3625 204.839 75.5398 205.058 75.5398C205.277 75.5398 205.454 75.3625 205.454 75.1439C205.454 74.9253 205.277 74.748 205.058 74.748C204.839 74.748 204.662 74.9253 204.662 75.1439Z" fill="#EAA895"/>
<path d="M200.785 73.916C200.785 74.1346 200.962 74.3119 201.181 74.3119C201.4 74.3119 201.577 74.1346 201.577 73.916C201.577 73.7627 201.489 73.6312 201.361 73.5654H201.001C200.873 73.6312 200.785 73.7627 200.785 73.916Z" fill="#EAA895"/>
<path d="M202.11 75.1439C202.11 75.3625 202.288 75.5398 202.506 75.5398C202.725 75.5398 202.902 75.3625 202.902 75.1439C202.902 74.9253 202.725 74.748 202.506 74.748C202.288 74.748 202.11 74.9253 202.11 75.1439Z" fill="#EAA895"/>
<path d="M198.363 73.6249C198.329 73.6757 198.294 73.7254 198.26 73.7759C198.244 73.8196 198.233 73.8664 198.233 73.916C198.233 74.1346 198.411 74.3119 198.629 74.3119C198.848 74.3119 199.025 74.1346 199.025 73.916C199.025 73.7627 198.937 73.6312 198.81 73.5654H198.449C198.418 73.5816 198.389 73.6014 198.363 73.6249Z" fill="#EAA895"/>
<path d="M199.558 75.1439C199.558 75.3625 199.735 75.5398 199.953 75.5398C200.172 75.5398 200.349 75.3625 200.349 75.1439C200.349 74.9253 200.172 74.748 199.953 74.748C199.735 74.748 199.558 74.9253 199.558 75.1439Z" fill="#EAA895"/>
<path d="M197.008 75.1439C197.008 75.3625 197.185 75.5398 197.404 75.5398C197.622 75.5398 197.8 75.3625 197.8 75.1439C197.8 74.9253 197.622 74.748 197.404 74.748C197.185 74.748 197.008 74.9253 197.008 75.1439Z" fill="#EAA895"/>
<path d="M212.379 58.2144C211.943 57.7465 211.327 57.4782 210.688 57.4782H208.53C206.589 50.7032 200.34 45.7302 192.95 45.7302C189.992 45.7302 187.217 46.528 184.827 47.9182L179.096 25.4564C178.968 24.9559 178.653 24.5352 178.209 24.2716C177.765 24.0078 177.244 23.9331 176.744 24.061C176.244 24.1888 175.823 24.5037 175.559 24.9478C175.296 25.392 175.221 25.9121 175.349 26.4126L181.481 50.4425C180.558 49.9069 179.562 49.4851 178.512 49.1936L168.576 33.3241C168.302 32.8862 167.874 32.5814 167.37 32.4657C166.867 32.3498 166.348 32.4372 165.911 32.7115C165.007 33.2773 164.733 34.4728 165.298 35.3763L173.709 48.8095C168.701 49.3622 164.56 52.8318 163.028 57.4783H161.312C160.673 57.4783 160.057 57.7467 159.621 58.2145C159.184 58.6844 158.96 59.3218 159.006 59.9632C159.522 67.121 162.19 73.2744 166.72 77.7581C169.761 80.7671 173.534 82.8808 177.86 84.0328H177.298C176.049 84.0328 175.033 85.0487 175.033 86.2972V86.7011C175.033 87.9497 176.049 88.9655 177.298 88.9655H194.702C195.951 88.9655 196.967 87.9497 196.967 86.7011V86.2972C196.967 85.0487 195.951 84.0328 194.702 84.0328H194.14C198.465 82.8808 202.239 80.7671 205.28 77.7581C209.81 73.2745 212.478 67.1211 212.994 59.9632C213.04 59.3217 212.816 58.6844 212.379 58.2144V58.2144ZM207.462 57.4783H204.35C202.564 52.9262 198.128 49.694 192.95 49.694C189.727 49.694 186.792 50.9473 184.604 52.9906C183.948 52.2558 183.21 51.5966 182.401 51.0297C185.135 48.3839 188.854 46.7513 192.95 46.7513C199.771 46.7513 205.553 51.2746 207.462 57.4783ZM187.199 57.4783C187.189 57.4471 187.179 57.4156 187.168 57.3845C188.517 55.6732 190.606 54.5714 192.95 54.5714C195.336 54.5714 197.458 55.7135 198.805 57.4783H187.199ZM200.047 57.4783C198.562 55.1207 195.936 53.5504 192.95 53.5504C190.492 53.5504 188.279 54.6143 186.745 56.3048C186.345 55.4046 185.845 54.5586 185.256 53.7825C187.267 51.8837 189.973 50.7149 192.95 50.7149C197.554 50.7149 201.517 53.5028 203.245 57.4783H200.047ZM176.437 25.4688C176.562 25.2592 176.76 25.1105 176.997 25.0502C177.233 24.9897 177.478 25.0252 177.688 25.1496C177.897 25.2739 178.046 25.4726 178.106 25.7089L183.919 48.4875C183.369 48.8581 182.843 49.2614 182.344 49.6948L176.338 26.1602C176.278 25.924 176.313 25.6783 176.437 25.4688V25.4688ZM166.164 34.8343C165.897 34.4079 166.026 33.8437 166.453 33.5765C166.6 33.4844 166.766 33.437 166.935 33.437C167.004 33.437 167.073 33.4447 167.142 33.4605C167.379 33.5151 167.581 33.659 167.711 33.8658L177.117 48.8894C176.464 48.7856 175.796 48.7298 175.114 48.7298C175.031 48.7298 174.95 48.7334 174.867 48.735L166.164 34.8343ZM175.114 49.7509C180.171 49.7509 184.489 52.9765 186.12 57.4783H184.335C182.792 53.9113 179.241 51.408 175.114 51.408C170.987 51.408 167.436 53.9115 165.893 57.4783H164.108C165.738 52.9764 170.056 49.7509 175.114 49.7509ZM180.665 57.4783C179.425 55.7501 177.399 54.6217 175.114 54.6217C172.829 54.6217 170.803 55.7501 169.562 57.4783H167.016C168.488 54.4905 171.564 52.4289 175.114 52.4289C178.664 52.4289 181.739 54.4905 183.212 57.4783H180.665ZM179.344 57.4783H170.884C171.944 56.3501 173.447 55.6426 175.114 55.6426C176.78 55.6426 178.284 56.35 179.344 57.4783ZM194.702 85.0536C195.388 85.0536 195.946 85.6114 195.946 86.2971V86.701C195.946 87.3867 195.388 87.9444 194.702 87.9444H177.298C176.612 87.9444 176.054 87.3867 176.054 86.701V86.2971C176.054 85.6114 176.612 85.0536 177.298 85.0536H194.702ZM211.976 59.8896C210.918 74.556 200.722 84.0327 186 84.0327C171.278 84.0327 161.082 74.556 160.024 59.8896C159.998 59.5249 160.12 59.1768 160.369 58.9099C160.615 58.645 160.95 58.4993 161.311 58.4993H210.688C211.05 58.4993 211.385 58.645 211.631 58.9099C211.88 59.1768 212.002 59.5249 211.976 59.8896Z" fill="#31373D"/>
<path d="M333.856 61.5548C332.828 60.238 331.28 59.4826 329.61 59.4826H324.613V55.6724H287V66.9884C287 73.3457 290.193 78.9701 295.06 82.3448H287.013V85.665H324.6V82.3448H316.554C318.255 81.1648 319.752 79.7099 320.979 78.0443H324.624C328.89 78.0443 332.593 75.1535 333.627 71.0145L334.837 66.1775C335.242 64.5566 334.885 62.8718 333.856 61.5548V61.5548ZM305.937 82.3448H305.677C297.209 82.3448 290.32 75.456 290.32 66.9884V58.9926H321.293V66.9884C321.293 75.456 314.404 82.3448 305.937 82.3448V82.3448ZM331.616 65.3723L330.406 70.2093C329.742 72.8675 327.364 74.7241 324.624 74.7241H322.934C324.012 72.3658 324.613 69.7461 324.613 66.9884V62.803H329.61C330.251 62.803 330.845 63.0928 331.239 63.5983C331.634 64.1036 331.771 64.7502 331.616 65.3723V65.3723Z" fill="black"/>
<path d="M305.825 42.0912C302.809 42.0912 300.354 44.5453 300.354 47.5618V51.372H303.675V47.5618C303.675 46.376 304.639 45.4114 305.825 45.4114H321.066C328.285 45.4114 334.158 39.5386 334.158 32.3198V29H330.837V32.3198C330.837 37.7078 326.454 42.0912 321.066 42.0912H305.825Z" fill="black"/>
<path d="M296.055 48.0522C296.055 42.6641 300.438 38.2808 305.826 38.2808H321.067C324.083 38.2808 326.537 35.8266 326.537 32.8101V29H323.217V32.8102C323.217 33.9959 322.253 34.9607 321.067 34.9607H305.826C298.607 34.9607 292.734 40.8335 292.734 48.0523V51.372H296.055V48.0522Z" fill="black"/>
</svg>
