<svg width="89" height="19" viewBox="0 0 89 19" fill="none" xmlns="http://www.w3.org/2000/svg">
<path d="M32.0322 6.12695H28.833V15H27.5273V6.12695H24.335V5.04688H32.0322V6.12695Z" fill="#666666"/>
<path d="M35.6963 15.1367C34.6937 15.1367 33.8779 14.8086 33.249 14.1523C32.6201 13.4915 32.3057 12.6097 32.3057 11.5068V11.2744C32.3057 10.5407 32.4447 9.88672 32.7227 9.3125C33.0052 8.73372 33.3971 8.28255 33.8984 7.95898C34.4043 7.63086 34.9512 7.4668 35.5391 7.4668C36.5007 7.4668 37.248 7.78353 37.7812 8.41699C38.3145 9.05046 38.5811 9.95736 38.5811 11.1377V11.6641H33.5703C33.5885 12.3932 33.8005 12.9834 34.2061 13.4346C34.6162 13.8812 35.1357 14.1045 35.7646 14.1045C36.2113 14.1045 36.5895 14.0133 36.8994 13.8311C37.2093 13.6488 37.4805 13.4072 37.7129 13.1064L38.4854 13.708C37.8656 14.6605 36.9359 15.1367 35.6963 15.1367ZM35.5391 8.50586C35.0286 8.50586 34.6003 8.69271 34.2539 9.06641C33.9076 9.43555 33.6934 9.95508 33.6113 10.625H37.3164V10.5293C37.2799 9.88672 37.1068 9.38997 36.7969 9.03906C36.487 8.68359 36.0677 8.50586 35.5391 8.50586Z" fill="#666666"/>
<path d="M41.2402 7.60352L41.2744 8.42383C41.8167 7.78581 42.5482 7.4668 43.4688 7.4668C44.5033 7.4668 45.2074 7.86328 45.5811 8.65625C45.8271 8.30078 46.1462 8.01367 46.5381 7.79492C46.9346 7.57617 47.4017 7.4668 47.9395 7.4668C49.5618 7.4668 50.3867 8.32585 50.4141 10.0439V15H49.1494V10.1191C49.1494 9.59049 49.0286 9.19629 48.7871 8.93652C48.5456 8.6722 48.14 8.54004 47.5703 8.54004C47.1009 8.54004 46.7113 8.68132 46.4014 8.96387C46.0915 9.24186 45.9115 9.61784 45.8613 10.0918V15H44.5898V10.1533C44.5898 9.0778 44.0635 8.54004 43.0107 8.54004C42.1813 8.54004 41.6139 8.89323 41.3086 9.59961V15H40.0439V7.60352H41.2402Z" fill="#666666"/>
<path d="M58.5762 11.3838C58.5762 12.5094 58.3187 13.4163 57.8037 14.1045C57.2887 14.7926 56.5915 15.1367 55.7119 15.1367C54.8141 15.1367 54.1077 14.8519 53.5928 14.2822V17.8438H52.3281V7.60352H53.4834L53.5449 8.42383C54.0599 7.78581 54.7754 7.4668 55.6914 7.4668C56.5801 7.4668 57.2819 7.80176 57.7969 8.47168C58.3164 9.1416 58.5762 10.0736 58.5762 11.2676V11.3838ZM57.3115 11.2402C57.3115 10.4062 57.1338 9.74772 56.7783 9.26465C56.4229 8.78158 55.9352 8.54004 55.3154 8.54004C54.5498 8.54004 53.9756 8.87956 53.5928 9.55859V13.0928C53.971 13.7673 54.5498 14.1045 55.3291 14.1045C55.9352 14.1045 56.416 13.8652 56.7715 13.3867C57.1315 12.9036 57.3115 12.1882 57.3115 11.2402Z" fill="#666666"/>
<path d="M61.5635 15H60.2988V4.5H61.5635V15Z" fill="#666666"/>
<path d="M68.1602 15C68.0872 14.8542 68.028 14.5944 67.9824 14.2207C67.3945 14.8314 66.6927 15.1367 65.877 15.1367C65.1478 15.1367 64.5485 14.9316 64.0791 14.5215C63.6143 14.1068 63.3818 13.5827 63.3818 12.9492C63.3818 12.179 63.6735 11.582 64.2568 11.1582C64.8447 10.7298 65.6696 10.5156 66.7314 10.5156H67.9619V9.93457C67.9619 9.49251 67.8298 9.1416 67.5654 8.88184C67.3011 8.61751 66.9115 8.48535 66.3965 8.48535C65.9453 8.48535 65.5671 8.59928 65.2617 8.82715C64.9564 9.05501 64.8037 9.33073 64.8037 9.6543H63.5322C63.5322 9.28516 63.6621 8.92969 63.9219 8.58789C64.1862 8.24154 64.5417 7.9681 64.9883 7.76758C65.4395 7.56706 65.9339 7.4668 66.4717 7.4668C67.3239 7.4668 67.9915 7.68099 68.4746 8.10938C68.9577 8.5332 69.2083 9.11882 69.2266 9.86621V13.2705C69.2266 13.9495 69.3132 14.4896 69.4863 14.8906V15H68.1602ZM66.0615 14.0361C66.458 14.0361 66.834 13.9336 67.1895 13.7285C67.5449 13.5234 67.8024 13.2568 67.9619 12.9287V11.4111H66.9707C65.4212 11.4111 64.6465 11.8646 64.6465 12.7715C64.6465 13.168 64.7786 13.4779 65.043 13.7012C65.3073 13.9245 65.6468 14.0361 66.0615 14.0361Z" fill="#666666"/>
<path d="M72.9248 5.8125V7.60352H74.3057V8.58105H72.9248V13.168C72.9248 13.4642 72.9863 13.6875 73.1094 13.8379C73.2324 13.9837 73.4421 14.0566 73.7383 14.0566C73.8841 14.0566 74.0846 14.0293 74.3398 13.9746V15C74.0072 15.0911 73.6836 15.1367 73.3691 15.1367C72.804 15.1367 72.3779 14.9658 72.0908 14.624C71.8037 14.2822 71.6602 13.7969 71.6602 13.168V8.58105H70.3135V7.60352H71.6602V5.8125H72.9248Z" fill="#666666"/>
<path d="M78.8584 15.1367C77.8558 15.1367 77.04 14.8086 76.4111 14.1523C75.7822 13.4915 75.4678 12.6097 75.4678 11.5068V11.2744C75.4678 10.5407 75.6068 9.88672 75.8848 9.3125C76.1673 8.73372 76.5592 8.28255 77.0605 7.95898C77.5664 7.63086 78.1133 7.4668 78.7012 7.4668C79.6628 7.4668 80.4102 7.78353 80.9434 8.41699C81.4766 9.05046 81.7432 9.95736 81.7432 11.1377V11.6641H76.7324C76.7507 12.3932 76.9626 12.9834 77.3682 13.4346C77.7783 13.8812 78.2979 14.1045 78.9268 14.1045C79.3734 14.1045 79.7516 14.0133 80.0615 13.8311C80.3714 13.6488 80.6426 13.4072 80.875 13.1064L81.6475 13.708C81.0277 14.6605 80.098 15.1367 78.8584 15.1367ZM78.7012 8.50586C78.1908 8.50586 77.7624 8.69271 77.416 9.06641C77.0697 9.43555 76.8555 9.95508 76.7734 10.625H80.4785V10.5293C80.4421 9.88672 80.2689 9.38997 79.959 9.03906C79.6491 8.68359 79.2298 8.50586 78.7012 8.50586Z" fill="#666666"/>
<path d="M87.5195 13.0381C87.5195 12.6963 87.3896 12.432 87.1299 12.2451C86.8747 12.0537 86.4258 11.8896 85.7832 11.7529C85.1452 11.6162 84.637 11.4521 84.2588 11.2607C83.8851 11.0693 83.6071 10.8415 83.4248 10.5771C83.2471 10.3128 83.1582 9.99837 83.1582 9.63379C83.1582 9.02767 83.4134 8.51497 83.9238 8.0957C84.4388 7.67643 85.0951 7.4668 85.8926 7.4668C86.7311 7.4668 87.4102 7.68327 87.9297 8.11621C88.4538 8.54915 88.7158 9.10286 88.7158 9.77734H87.4443C87.4443 9.43099 87.2962 9.13249 87 8.88184C86.7083 8.63118 86.3392 8.50586 85.8926 8.50586C85.4323 8.50586 85.0723 8.60612 84.8125 8.80664C84.5527 9.00716 84.4229 9.26921 84.4229 9.59277C84.4229 9.89811 84.5436 10.1283 84.7852 10.2832C85.0267 10.4382 85.4619 10.5863 86.0908 10.7275C86.7243 10.8688 87.237 11.0374 87.6289 11.2334C88.0208 11.4294 88.3102 11.6663 88.4971 11.9443C88.6885 12.2178 88.7842 12.5527 88.7842 12.9492C88.7842 13.61 88.5199 14.141 87.9912 14.542C87.4626 14.9385 86.7767 15.1367 85.9336 15.1367C85.3411 15.1367 84.8171 15.0319 84.3613 14.8223C83.9056 14.6126 83.5479 14.321 83.2881 13.9473C83.0329 13.569 82.9053 13.1611 82.9053 12.7236H84.1699C84.1927 13.1475 84.3613 13.4847 84.6758 13.7354C84.9948 13.9814 85.4141 14.1045 85.9336 14.1045C86.4121 14.1045 86.7949 14.0088 87.082 13.8174C87.3737 13.6214 87.5195 13.3617 87.5195 13.0381Z" fill="#666666"/>
<path fill-rule="evenodd" clip-rule="evenodd" d="M1.61533 2.26934C1.49 2.26934 1.38457 2.37476 1.38457 2.5001V17.3844C1.38457 17.5097 1.49 17.6151 1.61533 17.6151H4.5C4.62534 17.6151 4.73076 17.5097 4.73076 17.3844V2.5001C4.73076 2.37476 4.62534 2.26934 4.5 2.26934H1.61533ZM0 2.5001C0 1.61008 0.725319 0.884766 1.61533 0.884766H4.5C5.39002 0.884766 6.11534 1.61008 6.11534 2.5001V17.3844C6.11534 18.2744 5.39002 18.9997 4.5 18.9997H1.61533C0.725319 18.9997 0 18.2744 0 17.3844V2.5001Z" fill="black"/>
<path fill-rule="evenodd" clip-rule="evenodd" d="M9.0001 2.38457C8.87476 2.38457 8.76934 2.49 8.76934 2.61533V5.88466C8.76934 6.01 8.87476 6.11543 9.0001 6.11543H16.3846C16.51 6.11543 16.6154 6.01 16.6154 5.88466V2.61533C16.6154 2.49 16.51 2.38457 16.3846 2.38457H9.0001ZM7.38477 2.61533C7.38477 1.72532 8.11008 1 9.0001 1H16.3846C17.2747 1 18 1.72532 18 2.61533V5.88466C18 6.77468 17.2747 7.5 16.3846 7.5H9.0001C8.11008 7.5 7.38477 6.77468 7.38477 5.88466V2.61533Z" fill="black"/>
<path fill-rule="evenodd" clip-rule="evenodd" d="M9.0001 10.2693C8.87476 10.2693 8.76934 10.3748 8.76934 10.5001V17.3844C8.76934 17.5098 8.87476 17.6152 9.0001 17.6152H16.3847C16.5101 17.6152 16.6155 17.5098 16.6155 17.3844V10.5001C16.6155 10.3748 16.5101 10.2693 16.3847 10.2693H9.0001ZM7.38477 10.5001C7.38477 9.61008 8.11008 8.88477 9.0001 8.88477H16.3847C17.2748 8.88477 18.0001 9.61008 18.0001 10.5001V17.3844C18.0001 18.2744 17.2748 18.9998 16.3847 18.9998H9.0001C8.11008 18.9998 7.38477 18.2744 7.38477 17.3844V10.5001Z" fill="black"/>
</svg>
