<?xml version="1.0" encoding="utf-8"?>
<!-- Generator: Adobe Illustrator 23.0.0, SVG Export Plug-In . SVG Version: 6.00 Build 0)  -->
<svg version="1.1" id="Layer_1" xmlns="http://www.w3.org/2000/svg" xmlns:xlink="http://www.w3.org/1999/xlink" x="0px" y="0px"
	 width="18px" height="19px" viewBox="0 0 18 19" style="enable-background:new 0 0 18 19;" xml:space="preserve">
<style type="text/css">
	.st0{fill-rule:evenodd;clip-rule:evenodd;}
</style>
<path class="st0" d="M1.6,1.4c-0.1,0-0.2,0.1-0.2,0.2v14.9c0,0.1,0.1,0.2,0.2,0.2h2.9c0.1,0,0.2-0.1,0.2-0.2V1.6
	c0-0.1-0.1-0.2-0.2-0.2H1.6z M0,1.6C0,0.7,0.7,0,1.6,0h2.9c0.9,0,1.6,0.7,1.6,1.6v14.9c0,0.9-0.7,1.6-1.6,1.6H1.6
	c-0.9,0-1.6-0.7-1.6-1.6V1.6z"/>
<path class="st0" d="M9,1.5c-0.1,0-0.2,0.1-0.2,0.2V5c0,0.1,0.1,0.2,0.2,0.2h7.4c0.1,0,0.2-0.1,0.2-0.2V1.7c0-0.1-0.1-0.2-0.2-0.2H9
	z M7.4,1.7c0-0.9,0.7-1.6,1.6-1.6h7.4c0.9,0,1.6,0.7,1.6,1.6V5c0,0.9-0.7,1.6-1.6,1.6H9C8.1,6.6,7.4,5.9,7.4,5V1.7z"/>
<path class="st0" d="M9,9.4c-0.1,0-0.2,0.1-0.2,0.2v6.9c0,0.1,0.1,0.2,0.2,0.2h7.4c0.1,0,0.2-0.1,0.2-0.2V9.6c0-0.1-0.1-0.2-0.2-0.2
	H9z M7.4,9.6C7.4,8.7,8.1,8,9,8h7.4C17.3,8,18,8.7,18,9.6v6.9c0,0.9-0.7,1.6-1.6,1.6H9c-0.9,0-1.6-0.7-1.6-1.6V9.6z"/>
</svg>
