<svg width="370" height="117" viewBox="0 0 370 117" fill="none" xmlns="http://www.w3.org/2000/svg">
<path d="M126.823 0H243.175V116.352H126.823V0Z" fill="white"/>
<path d="M253.647 0H370V116.352H253.647V0Z" fill="white"/>
<path d="M0 0H116.352V116.352H0V0Z" fill="white"/>
<path d="M57.5 25C38.9937 25 24 39.9937 24 58.5C24 77.0063 38.9937 92 57.5 92C76.0063 92 91 77.0063 91 58.5C91 39.9937 76.0063 25 57.5 25ZM57.5 69.4624C51.4412 69.4624 46.5376 64.5588 46.5376 58.5C46.5376 52.4412 51.4412 47.5376 57.5 47.5376C63.5588 47.5376 68.4624 52.4412 68.4624 58.5C68.4624 64.5588 63.5588 69.4624 57.5 69.4624Z" fill="#F06998"/>
<path d="M57.4768 75.2617C48.2354 75.2617 40.7622 67.7884 40.7622 58.547C40.7622 52.5354 43.9448 47.2782 48.7069 44.3313V32.3081C37.7446 35.9858 29.7998 46.3352 29.7998 58.547C29.7998 73.8236 42.2002 86.224 57.4768 86.224C64.6436 86.224 71.1503 83.4657 76.0774 79.0101L68.3684 71.2303C65.4451 73.7293 61.6496 75.2617 57.4768 75.2617Z" fill="white"/>
<path d="M77.0444 38.98C74.899 36.8347 72.3529 35.043 69.5947 33.6992L61.0605 42.2333C64.3375 42.9406 67.2372 44.6144 69.5004 46.9483L77.0444 38.98Z" fill="#F3DF5A"/>
<path d="M184.5 54.4655L159 74.1099V86L184.5 66.3556V54.4655ZM184.5 50.3298L159 69.9942V58.1041L184.5 38.4596V50.3298ZM159 42.0784L168.28 35V46.8901L159 53.9684V42.0784Z" fill="#005286"/>
<path d="M184.5 66.3556L210 86V74.1099L184.5 54.4655V66.3556ZM184.5 38.4398L210 58.1041V69.9942L184.5 50.3497V38.4398ZM210 53.9684L200.72 46.8901V35L210 42.0784V53.9684Z" fill="#2B93D1"/>
<path d="M287.499 35.5687V38.1308C287.499 38.1308 290.807 38.8 290.807 42.777C290.807 46.7541 290.807 74.4975 290.807 74.4975C290.807 74.4975 289.488 81.7824 284 82.2604C284 85.2814 284 85.2814 284 85.2814C284 85.2814 291.189 85.7594 295.931 80.2719C300.673 74.7843 305.109 69.01 305.109 69.01V84.6313C305.109 84.6313 312.298 85.0137 315.625 77.0597C317.327 73.5606 316.581 71.3809 316.581 71.3809V54.9949L319.698 51.4003V85.3961H334.382V82.3751C334.382 82.3751 331.074 82.2795 331.074 77.8245C331.074 73.3694 331.074 44.7655 331.074 44.7655C331.074 44.7655 331.265 40.0237 337.9 37.9396C337.9 37.1748 337.9 35.3775 337.9 35.3775C337.9 35.3775 330.921 35.0716 326.16 39.8325C321.399 44.5935 316.791 51.5724 316.791 51.5724L316.504 49.297V35.6643C316.504 35.6643 305.606 36.4291 305.606 47.5953C305.606 58.7616 305.606 65.3963 305.606 65.3963L302.107 69.6601V35.4731L287.499 35.5687Z" fill="#FFE600"/>
</svg>
