<svg width="30" height="30" viewBox="0 0 30 30" fill="none" xmlns="http://www.w3.org/2000/svg">
<path d="M20 8V14.7243C19.9943 15.9326 19.6243 16.9208 18.8899 17.6891C18.1613 18.4575 17.1708 18.8886 15.9184 18.9824L15.4829 19C14.1224 19 13.038 18.6217 12.2296 17.8651C11.4213 17.1085 11.0114 16.0674 11 14.7419V8H12.6224V14.6891C12.6224 15.6158 12.87 16.3372 13.3653 16.8534C13.8605 17.3636 14.5664 17.6188 15.4829 17.6188C16.4108 17.6188 17.1195 17.3636 17.6091 16.8534C18.1044 16.3431 18.352 15.6246 18.352 14.6979V8H20Z" fill="#999999"/>
<path d="M11 20H20V21H11V20Z" fill="#999999"/>
</svg>
