<svg width="30" height="30" viewBox="0 0 30 30" fill="none" xmlns="http://www.w3.org/2000/svg">
<path fill-rule="evenodd" clip-rule="evenodd" d="M8 11.75C8 11.4739 8.22386 11.25 8.5 11.25L14.1552 11.25C14.4313 11.25 14.6552 11.4739 14.6552 11.75C14.6552 12.0261 14.4313 12.25 14.1552 12.25L8.5 12.25C8.22386 12.25 8 12.0261 8 11.75Z" fill="#999999"/>
<path fill-rule="evenodd" clip-rule="evenodd" d="M8 18.25C8 17.9739 8.22386 17.75 8.5 17.75L14.1552 17.75C14.4313 17.75 14.6552 17.9739 14.6552 18.25C14.6552 18.5261 14.4313 18.75 14.1552 18.75L8.5 18.75C8.22386 18.75 8 18.5261 8 18.25Z" fill="#999999"/>
<path fill-rule="evenodd" clip-rule="evenodd" d="M8 15C8 14.7239 8.22386 14.5 8.5 14.5L18.6794 14.5C18.9555 14.5 19.1794 14.7239 19.1794 15C19.1794 15.2761 18.9555 15.5 18.6794 15.5L8.5 15.5C8.22386 15.5 8 15.2761 8 15Z" fill="#999999"/>
<path fill-rule="evenodd" clip-rule="evenodd" d="M8 8.5C8 8.22386 8.22386 8 8.5 8L23.2035 8C23.4797 8 23.7035 8.22386 23.7035 8.5C23.7035 8.77614 23.4797 9 23.2035 9L8.5 9C8.22386 9 8 8.77614 8 8.5Z" fill="#999999"/>
<path fill-rule="evenodd" clip-rule="evenodd" d="M8 21.5C8 21.2239 8.22386 21 8.5 21L23.2035 21C23.4797 21 23.7035 21.2239 23.7035 21.5C23.7035 21.7761 23.4797 22 23.2035 22L8.5 22C8.22386 22 8 21.7761 8 21.5Z" fill="#999999"/>
</svg>
