<svg width="30" height="30" viewBox="0 0 30 30" fill="none" xmlns="http://www.w3.org/2000/svg">
<path d="M22.6022 20.9482L21.9486 21.6017C21.8283 21.722 21.6332 21.722 21.5129 21.6017L11.0387 11.1275C10.8582 10.947 10.8582 10.6544 11.0387 10.4739L11.4744 10.0382C11.6549 9.85771 11.9475 9.85771 12.128 10.0382L22.6022 20.5124C22.7226 20.6328 22.7226 20.8278 22.6022 20.9482V20.9482Z" fill="#A7BDCD"/>
<path d="M13.7509 11.661L12.6615 12.7504L11.0387 11.1274C10.8582 10.9468 10.8582 10.6544 11.0387 10.4739L11.4744 10.0382C11.6549 9.8577 11.9473 9.8577 12.1278 10.0382L13.7509 11.661Z" fill="#FFDA8F"/>
<path d="M22.8194 20.2944L12.3451 9.82031C12.0431 9.51835 11.5549 9.52134 11.256 9.82031L10.8203 10.256C10.5218 10.5544 10.5169 11.0416 10.8203 11.3451L16.8658 17.3905C16.9779 17.5027 17.1721 17.5198 17.3014 17.3905C17.4214 17.2705 17.4216 17.0751 17.3014 16.9549L13.0968 12.7502L13.7502 12.0968L22.3837 20.73C22.3834 20.73 21.73 21.3835 21.73 21.3835L19.2621 18.9156C19.1332 18.7867 18.936 18.8061 18.8264 18.9156C18.7063 19.0358 18.7063 19.2314 18.8264 19.3513L21.2944 21.8194C21.5391 22.0642 21.9292 22.0562 22.166 21.8194L22.8194 21.166C23.0641 20.9212 23.0562 20.5312 22.8194 20.2944ZM12.661 12.3145L11.256 10.9094C11.2026 10.8561 11.1889 10.7587 11.256 10.6916L11.6916 10.256C11.7562 10.1914 11.8542 10.2007 11.9094 10.256L13.3145 11.6611L12.661 12.3145ZM18.3719 18.153C18.3719 18.3231 18.234 18.461 18.0639 18.461C17.8938 18.461 17.756 18.3231 17.756 18.153C17.756 17.9829 17.8939 17.845 18.0639 17.845C18.234 17.845 18.3719 17.9829 18.3719 18.153ZM9.6021 11.0977H8.3081C8.13793 11.0977 8 10.9597 8 10.7896C8 10.6194 8.13793 10.4815 8.3081 10.4815H9.6021C9.77226 10.4815 9.9102 10.6194 9.9102 10.7896C9.9102 10.9597 9.77226 11.0977 9.6021 11.0977ZM11.4815 8.6021V7.3081C11.4815 7.13793 11.6194 7 11.7896 7C11.9597 7 12.0977 7.13793 12.0977 7.3081V8.6021C12.0977 8.77226 11.9597 8.9102 11.7896 8.9102C11.6194 8.9102 11.4815 8.77226 11.4815 8.6021ZM20.8035 10.1216C20.8035 9.95141 20.9415 9.81347 21.1116 9.81347H21.8643C22.0345 9.81347 22.1724 9.95141 22.1724 10.1216C22.1724 10.2917 22.0345 10.4297 21.8643 10.4297H21.1116C20.9415 10.4297 20.8035 10.2917 20.8035 10.1216ZM9.10995 8.54566C8.98964 8.42535 8.98964 8.23026 9.10995 8.10995C9.23026 7.98964 9.42535 7.98964 9.54566 8.10995L10.4606 9.02493C10.581 9.14524 10.581 9.34033 10.4606 9.46064C10.3403 9.58095 10.1452 9.58095 10.0249 9.46064L9.10995 8.54566ZM13.1185 9.46067C12.9982 9.34036 12.9982 9.14527 13.1185 9.02496L14.0335 8.10998C14.1538 7.98967 14.3489 7.98967 14.4692 8.10998C14.5895 8.23029 14.5895 8.42538 14.4692 8.54569L13.5542 9.46067C13.4339 9.58098 13.2388 9.58098 13.1185 9.46067V9.46067ZM10.4607 12.1185C10.581 12.2388 10.581 12.4339 10.4607 12.5542L9.54569 13.4692C9.42538 13.5895 9.23029 13.5895 9.10998 13.4692C8.98967 13.3489 8.98967 13.1538 9.10998 13.0335L10.025 12.1185C10.1453 11.9982 10.3403 11.9982 10.4607 12.1185ZM19.9885 8.8841L20.221 8.16821C20.2736 8.0064 20.4474 7.91782 20.6093 7.97038C20.7711 8.02294 20.8597 8.19677 20.8071 8.35861L20.5745 9.0745C20.522 9.23632 20.3481 9.32489 20.1863 9.27233C20.0244 9.21977 19.9359 9.04591 19.9885 8.8841ZM18.0804 8.79207C18.1804 8.65442 18.3731 8.62391 18.5107 8.72392L19.1197 9.16638C19.2574 9.26639 19.2879 9.45907 19.1879 9.59673C19.0879 9.73438 18.8952 9.76489 18.7575 9.66488L18.1485 9.22242C18.0109 9.12241 17.9804 8.92973 18.0804 8.79207V8.79207ZM20.5745 11.1688L20.8072 11.8847C20.8598 12.0465 20.7712 12.2204 20.6094 12.2729C20.4475 12.3255 20.2737 12.237 20.2211 12.0751L19.9885 11.3593C19.9359 11.1974 20.0245 11.0236 20.1863 10.971C20.3481 10.9184 20.522 11.007 20.5745 11.1688ZM18.0802 11.4512C17.9802 11.3136 18.0107 11.1209 18.1484 11.0209L18.7573 10.5784C18.895 10.4784 19.0877 10.5089 19.1877 10.6466C19.2877 10.7842 19.2572 10.9769 19.1195 11.0769L18.5105 11.5194C18.3729 11.6194 18.1802 11.5889 18.0802 11.4512ZM11.6302 16.8092L10.8014 16.5401C10.6396 16.4875 10.551 16.3137 10.6037 16.1518C10.6563 15.99 10.8302 15.9015 10.992 15.9542L11.8209 16.2233C11.9827 16.2759 12.0712 16.4497 12.0185 16.6116C11.9659 16.7734 11.792 16.8619 11.6302 16.8092V16.8092ZM14.6706 17.4733C14.618 17.6351 14.4441 17.7236 14.2823 17.6709L13.4535 17.4019C13.2916 17.3492 13.2031 17.1754 13.2558 17.0136C13.3084 16.8517 13.4823 16.7632 13.6441 16.8159L14.4729 17.085C14.6348 17.1376 14.7232 17.3115 14.6706 17.4733ZM13.4955 15.1674L13.2265 15.9963C13.1738 16.1581 13 16.2466 12.8382 16.1939C12.6763 16.1413 12.5878 15.9674 12.6405 15.8056L12.9096 14.9768C12.9622 14.815 13.1361 14.7264 13.2979 14.7791C13.4597 14.8317 13.5482 15.0056 13.4955 15.1674ZM12.6338 17.8195L12.3647 18.6483C12.3121 18.8102 12.1383 18.8987 11.9764 18.846C11.8146 18.7934 11.7261 18.6195 11.7788 18.4577L12.0479 17.6289C12.1005 17.467 12.2743 17.3785 12.4362 17.4312C12.598 17.4838 12.6865 17.6576 12.6338 17.8195Z" fill="#999999"/>
</svg>
