<svg width="30" height="30" viewBox="0 0 30 30" fill="none" xmlns="http://www.w3.org/2000/svg">
<path d="M11.3794 20C11.2782 20 11.1872 19.9633 11.1062 19.89C11.0354 19.8062 11 19.7119 11 19.6071V9.39286C11 9.27762 11.0354 9.18333 11.1062 9.11C11.1872 9.03667 11.2782 9 11.3794 9H16.0084C17.2833 9 18.2293 9.27238 18.8465 9.81714C19.4739 10.3514 19.7875 11.1162 19.7875 12.1114C19.7875 12.6352 19.656 13.0805 19.3929 13.4471C19.14 13.8033 18.8516 14.0652 18.5278 14.2329C18.9427 14.4319 19.2917 14.7514 19.575 15.1914C19.8583 15.6314 20 16.1238 20 16.6686C20 17.7162 19.6661 18.5333 18.9983 19.12C18.3305 19.7067 17.3794 20 16.145 20H11.3794ZM15.7049 13.3686C16.1096 13.3686 16.4182 13.2638 16.6307 13.0543C16.8432 12.8343 16.9494 12.5462 16.9494 12.19C16.9494 11.8443 16.8432 11.5667 16.6307 11.3571C16.4182 11.1476 16.1096 11.0429 15.7049 11.0429H13.7319V13.3686H15.7049ZM15.8415 17.9571C16.2563 17.9571 16.5801 17.8314 16.8128 17.58C17.0455 17.3286 17.1619 17.0248 17.1619 16.6686C17.1619 16.2914 17.0455 15.9824 16.8128 15.7414C16.5801 15.49 16.2563 15.3643 15.8415 15.3643H13.7319V17.9571H15.8415Z" fill="#999999"/>
</svg>
