<svg width="30" height="30" viewBox="0 0 30 30" fill="none" xmlns="http://www.w3.org/2000/svg">
<path d="M20.9465 13.9103C20.8845 13.8499 20.7984 13.8151 20.7106 13.8151C20.6228 13.8151 20.5367 13.8499 20.4746 13.9103C20.4125 13.9707 20.3768 14.0545 20.3768 14.1399C20.3768 14.2253 20.4125 14.3091 20.4746 14.3695C20.5367 14.43 20.6228 14.4647 20.7106 14.4647C20.7984 14.4647 20.8845 14.43 20.9465 14.3695C21.0086 14.3091 21.0443 14.2253 21.0443 14.1399C21.0443 14.0545 21.0086 13.9707 20.9465 13.9103Z" fill="#999999"/>
<path fill-rule="evenodd" clip-rule="evenodd" d="M23.7293 21.3503H24.0825C24.2669 21.3503 24.4163 21.4957 24.4162 21.6751C24.4162 21.8545 24.2668 21.9999 24.0825 21.9999H23.4805L23.4791 22L23.4767 21.9999H22.8761C22.6918 21.9999 22.5424 21.8545 22.5424 21.6751C22.5424 21.4958 22.6918 21.3503 22.8761 21.3503H23.0337L22.0709 18.1524H16.8486L16.5 17L19.1394 8.23348C19.1811 8.09509 19.3116 8 19.4598 8C19.6079 8 19.7384 8.09509 19.7801 8.23348L21.1685 12.8452C21.2204 13.0174 21.119 13.1978 20.9421 13.2482C20.7651 13.2987 20.5798 13.2 20.5279 13.0279L19.4597 9.47998L17.0442 17.5028H21.8753L21.2772 15.5163C21.2253 15.3442 21.3267 15.1637 21.5036 15.1133C21.6806 15.063 21.866 15.1615 21.9178 15.3337L23.7293 21.3503Z" fill="#999999"/>
<path d="M17.5681 21.3503H17.2149L15.4034 15.3337C15.3516 15.1615 15.1662 15.063 14.9893 15.1133C14.8124 15.1637 14.711 15.3442 14.7628 15.5163L15.3609 17.5028H10.5298L12.9454 9.47998L14.0136 13.0279C14.0654 13.2 14.2508 13.2987 14.4277 13.2482C14.6046 13.1978 14.706 13.0174 14.6542 12.8452L13.2657 8.23348C13.224 8.09509 13.0936 8 12.9454 8C12.7972 8 12.6667 8.09509 12.6251 8.23348L9.76571 17.7304L9.76515 17.7322L8.67582 21.3502H8.32267C8.16748 21.3502 8.03736 21.4535 8 21.5931C8 21.5931 8 21.6275 8.00096 21.6751C8.00192 21.7227 8.00003 21.757 8.00003 21.757C8.03739 21.8966 8.16745 21.9999 8.3227 21.9999H8.92464L8.92601 22L8.9284 21.9999H9.52904C9.71339 21.9999 9.8628 21.8545 9.8628 21.6751C9.8628 21.4958 9.71339 21.3503 9.52904 21.3503H9.37143L10.3343 18.1524H15.5565L16.5193 21.3503H16.3618C16.1774 21.3503 16.028 21.4958 16.028 21.6751C16.028 21.8545 16.1774 21.9999 16.3618 21.9999H16.9624L16.9648 22L16.9661 21.9999H17.5681C17.7524 21.9999 17.9019 21.8545 17.9019 21.6751C17.9019 21.4957 17.7525 21.3503 17.5681 21.3503Z" fill="#999999"/>
<path d="M14.9319 13.9103C14.8698 13.8499 14.7837 13.8151 14.6959 13.8151C14.6081 13.8151 14.522 13.8499 14.4599 13.9103C14.3978 13.9707 14.3621 14.0545 14.3621 14.1399C14.3621 14.2253 14.3978 14.3091 14.4599 14.3695C14.522 14.43 14.6081 14.4647 14.6959 14.4647C14.7837 14.4647 14.8698 14.43 14.9319 14.3695C14.9939 14.3091 15.0296 14.2253 15.0296 14.1399C15.0296 14.0545 14.9939 13.9707 14.9319 13.9103Z" fill="#999999"/>
</svg>
