<svg width="30" height="30" viewBox="0 0 30 30" fill="none" xmlns="http://www.w3.org/2000/svg">
<path d="M17 7.66987C17 7.8967 16.9763 8.54105 16.8203 8.84456C16.6395 9.19605 16.3491 9.40835 16.048 9.52188C15.7889 9.61955 15.5173 9.64609 15.306 9.65786C15.09 9.66989 14.8364 9.66988 14.5751 9.66987L12.6235 9.66965C12.3665 9.66422 11.9441 9.75059 11.6088 10.0135C11.3191 10.2407 11 10.6705 11 11.5722V13.0227H16C16 13.5086 15.9584 14.31 15.3166 14.7388C15.0538 14.9145 14.7745 14.9614 14.5769 14.9809C14.3818 15.0002 14.1572 15.0001 13.9459 15.0001L11 15.0001V21.0001C11 21.5524 10.5523 22.0001 10 22.0001C9.44772 22.0001 9 21.5524 9 21.0001V11.5722C9 10.1074 9.56245 9.07668 10.3746 8.43974C11.1366 7.84219 12.0301 7.65918 12.6541 7.66987L17 7.66987Z" fill="#999999"/>
<path fill-rule="evenodd" clip-rule="evenodd" d="M18 12C18.5523 12 19 12.4477 19 13V14H20C20.5523 14 21 14.4477 21 15C21 15.5523 20.5523 16 20 16H19V19C19 19.1733 19.0602 19.4555 19.2115 19.6657C19.3261 19.8249 19.5259 20 20 20C20.5523 20 21 20.4477 21 21C21 21.5523 20.5523 22 20 22C18.8741 22 18.0739 21.5085 17.5885 20.8343C17.1398 20.2111 17 19.4934 17 19V15.0001V13C17 12.4477 17.4477 12 18 12Z" fill="#999999"/>
</svg>
