<svg width="370" height="117" viewBox="0 0 370 117" fill="none" xmlns="http://www.w3.org/2000/svg">
<path d="M126.823 0H243.175V116.352H126.823V0Z" fill="white"/>
<path d="M253.647 0H370V116.352H253.647V0Z" fill="white"/>
<path d="M0 0H116.352V116.352H0V0Z" fill="white"/>
<path opacity="0.8" d="M17.9746 71.504L22.059 38.8361C23.0801 30.6345 30.0885 24.4795 38.381 24.4795H105.263L100.42 54.6238C99.2289 62.056 93.0869 67.7186 85.5524 68.3495L44.0589 71.8425V90.046L17.9746 71.504Z" fill="#CD2B8F"/>
<path opacity="0.8" d="M7.00488 32.0955L11.3213 30.1259L15.6378 28.1562L15.1891 32.8648L14.7404 37.5734L10.8727 34.8345L7.00488 32.0955Z" fill="#CD2B8F"/>
<path d="M95.4833 78.4279L95.0966 78.1355L95.3905 77.7508C95.4988 77.6277 95.4679 77.4431 95.3441 77.3354C95.2203 77.2277 95.0347 77.2584 94.9264 77.3815L94.6324 77.7662L94.2457 77.4739C94.1219 77.3662 93.9362 77.3969 93.8279 77.52C93.7196 77.6431 93.7506 77.8278 93.8743 77.9355L94.2611 78.2279L93.9672 78.6126C93.8589 78.7357 93.8898 78.9203 94.0136 79.028C94.06 79.0742 94.1373 79.0896 94.1992 79.0896C94.2921 79.0896 94.3694 79.0588 94.4313 78.9819L94.7253 78.5972L95.112 78.8895C95.1584 78.9357 95.2358 78.9511 95.2977 78.9511C95.3905 78.9511 95.4679 78.9203 95.5298 78.8434C95.6381 78.7049 95.6226 78.5202 95.4833 78.4279Z" fill="#CD2B8F"/>
<path d="M106.592 66.9181L106.205 66.6258L106.499 66.2411C106.607 66.118 106.576 65.9333 106.452 65.8256C106.329 65.7179 106.143 65.7487 106.035 65.8718L105.741 66.2565L105.354 65.9641C105.23 65.8564 105.045 65.8872 104.936 66.0103C104.828 66.1334 104.859 66.318 104.983 66.4257L105.37 66.7181L105.076 67.1028C104.967 67.2259 104.998 67.4105 105.122 67.5183C105.168 67.5644 105.246 67.5798 105.308 67.5798C105.4 67.5798 105.478 67.549 105.54 67.4721L105.834 67.0874L106.22 67.3798C106.267 67.4259 106.344 67.4413 106.406 67.4413C106.499 67.4413 106.576 67.4105 106.638 67.3336C106.746 67.1951 106.715 67.0105 106.592 66.9181Z" fill="#CD2B8F"/>
<path d="M99.709 78.1819C99.446 78.1819 99.1829 78.0896 98.9663 77.9203C98.4558 77.5202 98.363 76.7662 98.7652 76.2584C98.9663 76.0123 99.2448 75.8584 99.5542 75.8122C99.8637 75.7814 100.173 75.8584 100.436 76.0584C100.947 76.4585 101.039 77.2125 100.637 77.7203C100.436 77.9665 100.158 78.1203 99.8482 78.1665C99.8018 78.1819 99.7554 78.1819 99.709 78.1819ZM99.7244 76.4123C99.6935 76.4123 99.678 76.4123 99.6471 76.4123C99.4924 76.4277 99.3377 76.5046 99.2448 76.6277C99.0437 76.8893 99.0901 77.2586 99.3376 77.4741C99.4614 77.5664 99.6161 77.6125 99.7863 77.5972C99.941 77.5818 100.096 77.5048 100.189 77.3817C100.39 77.1201 100.343 76.7508 100.096 76.5354C99.9874 76.4585 99.8482 76.4123 99.7244 76.4123Z" fill="#CD2B8F"/>
<path d="M81.2831 19.0777C80.6333 19.0777 80.0918 18.5545 80.0918 17.8929C80.0918 17.2312 80.6178 16.708 81.2831 16.708C81.9329 16.708 82.4744 17.2312 82.4744 17.8929C82.4744 18.5545 81.9484 19.0777 81.2831 19.0777ZM81.2831 17.2927C80.9582 17.2927 80.6797 17.5543 80.6797 17.8929C80.6797 18.2314 80.9427 18.493 81.2831 18.493C81.6235 18.493 81.8865 18.2314 81.8865 17.8929C81.8865 17.5543 81.6235 17.2927 81.2831 17.2927Z" fill="#CD2B8F"/>
<path d="M63.4133 14.7694H62.9337V14.2924C62.9337 14.1385 62.7945 14 62.6398 14C62.4851 14 62.3458 14.1385 62.3458 14.2924V14.7694H61.8662C61.7115 14.7694 61.5723 14.9079 61.5723 15.0617C61.5723 15.2156 61.7115 15.3541 61.8662 15.3541H62.3458V15.8465C62.3458 16.0004 62.4851 16.1389 62.6398 16.1389C62.7945 16.1389 62.9337 16.0004 62.9337 15.8465V15.3541H63.4133C63.5681 15.3541 63.7073 15.2156 63.7073 15.0617C63.7073 14.9079 63.5835 14.7694 63.4133 14.7694Z" fill="#CD2B8F"/>
<path d="M49.7059 18.1856C49.0561 18.1856 48.5146 17.6624 48.5146 17.0008C48.5146 16.3545 49.0407 15.8159 49.7059 15.8159C50.3557 15.8159 50.8972 16.3391 50.8972 17.0008C50.8972 17.6624 50.3557 18.1856 49.7059 18.1856ZM49.7059 16.4006C49.381 16.4006 49.1026 16.6622 49.1026 17.0008C49.1026 17.3393 49.3656 17.6009 49.7059 17.6009C50.0463 17.6009 50.3093 17.3393 50.3093 17.0008C50.3093 16.6622 50.0308 16.4006 49.7059 16.4006Z" fill="#CD2B8F"/>
<path d="M12.2971 64.471H11.8175V63.994C11.8175 63.8248 11.6783 63.7017 11.5236 63.7017C11.3689 63.7017 11.2296 63.8401 11.2296 63.994V64.471H10.75C10.5953 64.471 10.4561 64.6095 10.4561 64.7634C10.4561 64.9327 10.5953 65.0558 10.75 65.0558H11.2296V65.5328C11.2296 65.702 11.3689 65.8251 11.5236 65.8251C11.6783 65.8251 11.8175 65.6867 11.8175 65.5328V65.0558H12.2971C12.4518 65.0558 12.5911 64.9173 12.5911 64.7634C12.5911 64.5941 12.4518 64.471 12.2971 64.471Z" fill="#CD2B8F"/>
<path d="M8.58385 60.6553C7.93407 60.6553 7.39258 60.1322 7.39258 59.4705C7.39258 58.8088 7.9186 58.2856 8.58385 58.2856C9.23364 58.2856 9.77513 58.8088 9.77513 59.4705C9.77513 60.1322 9.24911 60.6553 8.58385 60.6553ZM8.58385 58.8858C8.25896 58.8858 7.98048 59.1474 7.98048 59.4859C7.98048 59.8244 8.24349 60.086 8.58385 60.086C8.92422 60.086 9.18723 59.8244 9.18723 59.4859C9.18723 59.1474 8.92422 58.8858 8.58385 58.8858Z" fill="#CD2B8F"/>
<path opacity="0.8" d="M53.2021 79.5669L60.1023 79.0283L67.0178 78.4897L64.0319 84.7063L61.046 90.9229L57.1163 85.2449L53.2021 79.5669Z" fill="#08B9DB"/>
<path opacity="0.8" d="M76.873 84.9677L79.7197 82.2749L82.5819 79.582L83.4947 83.3982L84.4075 87.2143L80.6325 86.091L76.873 84.9677Z" fill="#E82828"/>
<path opacity="0.8" d="M6 49.1457L21.4556 39.9593L36.9113 30.7729L35.457 51.2384L33.9872 71.6885L19.9859 60.4248L6 49.1457Z" fill="#F4A11E"/>
<path d="M47.3548 74.3345V95.3078C47.3548 95.5232 47.231 95.7232 47.0299 95.8309C46.9525 95.8771 46.8597 95.8925 46.7669 95.8925C46.6431 95.8925 46.5193 95.8617 46.4265 95.7848L39.6347 90.9531C39.3717 90.7684 39.3098 90.3991 39.4955 90.1375C39.6811 89.8759 40.0524 89.8144 40.3154 89.999L46.179 94.1691V74.3345C46.179 74.0113 46.442 73.7498 46.7669 73.7498C47.0918 73.7498 47.3548 74.0113 47.3548 74.3345ZM26.0201 79.8278L15.7009 72.488L16.8767 63.0554C16.9231 62.7322 16.691 62.4399 16.3661 62.4091C16.0413 62.3629 15.7473 62.5938 15.7164 62.9169L14.4941 72.688C14.4632 72.9034 14.556 73.1035 14.7417 73.242L25.3394 80.7819C25.4477 80.8588 25.556 80.8896 25.6798 80.8896C25.8654 80.8896 26.0511 80.7973 26.1594 80.6434C26.345 80.3818 26.2831 80.0279 26.0201 79.8278ZM103.19 54.4845C102.865 54.4383 102.571 54.6538 102.509 54.9769C101.349 62.2398 95.9805 68.1179 88.8483 69.949C88.5389 70.026 88.3378 70.3491 88.4306 70.6569C88.4925 70.9184 88.74 71.0877 89.003 71.0877C89.0494 71.0877 89.0958 71.0877 89.1577 71.0723C96.754 69.1181 102.447 62.8707 103.685 55.1616C103.732 54.8384 103.515 54.5461 103.19 54.4845ZM108.899 21.4166C108.791 21.2935 108.62 21.2166 108.45 21.2166H99.2294C98.9045 21.2166 98.6415 21.4781 98.6415 21.8013C98.6415 22.1244 98.9045 22.386 99.2294 22.386H107.769L104.691 41.4974C104.644 41.8205 104.861 42.1129 105.186 42.1744C105.217 42.1744 105.248 42.1744 105.279 42.1744C105.557 42.1744 105.82 41.9744 105.851 41.682L109.038 21.8936C109.054 21.709 109.007 21.5397 108.899 21.4166ZM60.1803 21.2012H38.3815C29.2536 21.2012 21.3633 27.3562 19.1974 36.1733C19.12 36.481 19.3057 36.8042 19.6306 36.8811C19.677 36.8965 19.7234 36.8965 19.7698 36.8965C20.0328 36.8965 20.2803 36.7118 20.3422 36.4503C22.3844 28.1564 29.8105 22.3706 38.3815 22.3706H60.1803C60.5052 22.3706 60.7682 22.109 60.7682 21.7859C60.7682 21.4628 60.5052 21.2012 60.1803 21.2012Z" fill="#CD2B8F"/>
<path d="M67.5001 21.786C67.5001 21.6321 67.3608 21.4937 67.2061 21.4937H64.8545C64.6998 21.4937 64.5605 21.6321 64.5605 21.786C64.5605 21.9399 64.6998 22.0784 64.8545 22.0784H67.2061C67.3763 22.0784 67.5001 21.9553 67.5001 21.786Z" fill="#CD2B8F"/>
<path d="M64.0651 72.5801L61.7135 72.7801C61.5588 72.7955 61.4351 72.934 61.4505 73.1032C61.466 73.2571 61.5898 73.3648 61.7445 73.3648C61.7599 73.3648 61.7599 73.3648 61.7754 73.3648L64.127 73.1648C64.2817 73.1494 64.4055 73.0109 64.39 72.8417C64.3746 72.6724 64.2353 72.5647 64.0651 72.5801Z" fill="#CD2B8F"/>
<path d="M72.2012 21.786C72.2012 21.6321 72.062 21.4937 71.9073 21.4937H69.5557C69.401 21.4937 69.2617 21.6321 69.2617 21.786C69.2617 21.9399 69.401 22.0784 69.5557 22.0784H71.9073C72.0775 22.0784 72.2012 21.9553 72.2012 21.786Z" fill="#CD2B8F"/>
<path d="M59.3767 72.9808L57.0251 73.1808C56.8703 73.1962 56.7466 73.3347 56.7621 73.504C56.7775 73.6579 56.9013 73.7656 57.056 73.7656C57.0715 73.7656 57.0715 73.7656 57.0869 73.7656L59.4385 73.5655C59.5932 73.5501 59.717 73.4116 59.7015 73.2424C59.6861 73.0885 59.5468 72.9654 59.3767 72.9808Z" fill="#CD2B8F"/>
<path d="M68.7517 72.1958L66.4001 72.3958C66.2453 72.4112 66.1216 72.5497 66.1371 72.719C66.1525 72.8729 66.2763 72.9806 66.431 72.9806C66.4465 72.9806 66.4465 72.9806 66.4619 72.9806L68.8136 72.7805C68.9683 72.7652 69.092 72.6267 69.0766 72.4574C69.0611 72.2881 68.9219 72.1804 68.7517 72.1958Z" fill="#CD2B8F"/>
<path d="M31.6836 84.2133C31.5444 84.121 31.3742 84.1518 31.2659 84.2749C31.1731 84.4134 31.204 84.5827 31.3278 84.6904L33.2462 86.0445C33.2926 86.0753 33.3545 86.106 33.4164 86.106C33.5092 86.106 33.602 86.0599 33.6484 85.9829C33.7413 85.8444 33.7103 85.6752 33.5866 85.5675L31.6836 84.2133Z" fill="#CD2B8F"/>
<path d="M28.1094 81.6743C27.9701 81.582 27.8 81.6127 27.6917 81.7358C27.5988 81.8743 27.6298 82.0436 27.7536 82.1513L29.4244 83.3362C29.4708 83.367 29.5327 83.3977 29.5946 83.3977C29.6874 83.3977 29.7803 83.3516 29.8267 83.2746C29.9195 83.1361 29.8886 82.9669 29.7648 82.8592L28.1094 81.6743Z" fill="#CD2B8F"/>
<path d="M54.6891 73.3656L52.8171 73.5194C52.6623 73.5348 52.5386 73.6733 52.554 73.8426C52.5695 73.9965 52.6933 74.1042 52.848 74.1042C52.8635 74.1042 52.8635 74.1042 52.8789 74.1042L54.7509 73.9503C54.9057 73.9349 55.0294 73.7964 55.014 73.6272C54.9985 73.4733 54.8592 73.3502 54.6891 73.3656Z" fill="#CD2B8F"/>
<path d="M35.5205 86.937C35.3813 86.8447 35.2111 86.8754 35.1028 86.9985C35.01 87.137 35.0409 87.3063 35.1647 87.414L37.0831 88.7681C37.1295 88.7989 37.1914 88.8296 37.2533 88.8296C37.3461 88.8296 37.4389 88.7835 37.4854 88.7065C37.5782 88.5681 37.5472 88.3988 37.4235 88.2911L35.5205 86.937Z" fill="#CD2B8F"/>
<path d="M90.7374 21.4937H88.3858C88.231 21.4937 88.0918 21.6321 88.0918 21.786C88.0918 21.9399 88.231 22.0784 88.3858 22.0784H90.7374C90.8921 22.0784 91.0313 21.9399 91.0313 21.786C91.0313 21.6321 90.8921 21.4937 90.7374 21.4937Z" fill="#CD2B8F"/>
<path d="M86.0176 21.4937H83.666C83.5113 21.4937 83.3721 21.6321 83.3721 21.786C83.3721 21.9399 83.5113 22.0784 83.666 22.0784H86.0176C86.1723 22.0784 86.3116 21.9399 86.3116 21.786C86.3116 21.6321 86.1878 21.4937 86.0176 21.4937Z" fill="#CD2B8F"/>
<path d="M73.4392 71.7957L71.0876 71.9958C70.9328 72.0112 70.8091 72.1497 70.8246 72.3189C70.84 72.4728 70.9638 72.5805 71.1185 72.5805C71.134 72.5805 71.134 72.5805 71.1494 72.5805L73.501 72.3805C73.6557 72.3651 73.7795 72.2266 73.764 72.0573C73.7486 71.9034 73.6093 71.7803 73.4392 71.7957Z" fill="#CD2B8F"/>
<path d="M94.6513 21.4937H93.0732C92.9185 21.4937 92.7793 21.6321 92.7793 21.786C92.7793 21.9399 92.9185 22.0784 93.0732 22.0784H94.6513C94.806 22.0784 94.9453 21.9399 94.9453 21.786C94.9453 21.6321 94.8215 21.4937 94.6513 21.4937Z" fill="#CD2B8F"/>
<path d="M104.151 48.5604C103.996 48.5296 103.841 48.6374 103.81 48.8066L103.439 51.1148C103.408 51.2686 103.516 51.4225 103.686 51.4533C103.702 51.4533 103.717 51.4533 103.733 51.4533C103.872 51.4533 103.996 51.3456 104.027 51.2071L104.398 48.8989C104.414 48.7297 104.305 48.5758 104.151 48.5604Z" fill="#CD2B8F"/>
<path d="M104.892 43.9291C104.737 43.8983 104.582 44.006 104.551 44.1753L104.18 46.4834C104.149 46.6373 104.257 46.7912 104.428 46.8219C104.443 46.8219 104.459 46.8219 104.474 46.8219C104.613 46.8219 104.737 46.7142 104.768 46.5757L105.139 44.2676C105.155 44.1137 105.046 43.9598 104.892 43.9291Z" fill="#CD2B8F"/>
<path d="M76.9044 21.786C76.9044 21.6321 76.7651 21.4937 76.6104 21.4937H74.2588C74.1041 21.4937 73.9648 21.6321 73.9648 21.786C73.9648 21.9399 74.1041 22.0784 74.2588 22.0784H76.6104C76.7806 22.0784 76.9044 21.9553 76.9044 21.786Z" fill="#CD2B8F"/>
<path d="M81.3145 21.4937H78.9629C78.8082 21.4937 78.6689 21.6321 78.6689 21.786C78.6689 21.9399 78.8082 22.0784 78.9629 22.0784H81.3145C81.4692 22.0784 81.6085 21.9399 81.6085 21.786C81.6085 21.6321 81.4847 21.4937 81.3145 21.4937Z" fill="#CD2B8F"/>
<path d="M78.1276 71.3953L75.776 71.5954C75.6213 71.6108 75.4976 71.7492 75.513 71.9185C75.5285 72.0724 75.6523 72.1801 75.807 72.1801C75.8225 72.1801 75.8224 72.1801 75.8379 72.1801L78.1895 71.9801C78.3442 71.9647 78.468 71.8262 78.4525 71.6569C78.4371 71.5031 78.2978 71.38 78.1276 71.3953Z" fill="#CD2B8F"/>
<path d="M229 96.9674C228.828 95.4192 228.226 93.9569 227.624 92.5807C226.42 89.6562 225.215 86.8177 224.011 83.8932C224.355 83.2051 224.699 82.517 224.957 81.8289C225.817 79.4205 225.817 76.754 225.817 74.1736C225.903 64.0238 225.989 53.8741 226.076 43.7244C226.162 36.0691 225.989 27.6397 220.915 21.7047C220.227 20.9306 219.538 20.2424 218.592 19.8124C217.646 19.3823 216.614 19.2963 215.582 19.1243C204.228 18.0061 192.702 16.8879 181.176 15.6837C171.026 14.7375 159.242 14.3074 152.447 21.6187C146.254 28.3278 146.856 38.3915 147.544 47.423C148.404 58.5189 148.748 69.6148 148.576 80.7967C147.458 83.1191 150.641 89.4842 152.963 90.6884C155.286 91.8926 158.038 91.8926 160.618 91.8065C176.445 91.4625 192.272 91.0324 208.098 90.6884C211.367 90.6023 214.636 90.5163 217.646 89.3981C221.431 91.8065 225.215 94.387 229 96.9674Z" fill="#FF8F2E"/>
<path d="M224.613 101.698C224.011 98.6017 222.635 95.8493 221.431 92.9248C221.087 92.0646 220.399 90.9464 220.227 90.0003C219.71 87.6779 220.227 89.1401 220.571 87.1618C221.517 81.6568 221.517 76.3239 221.603 70.733C221.689 59.9812 222.807 48.7133 221.345 37.9615C220.743 34.0048 219.538 30.0481 217.13 26.7796C214.378 23.0809 211.195 22.9089 206.808 22.4788C195.196 21.3607 183.498 19.8984 171.886 19.0383C163.801 18.6082 154.597 18.6942 147.888 24.0271C141.265 29.274 140.061 37.9615 140.233 45.9608C140.577 57.5728 141.695 69.1847 141.695 80.7967C141.695 86.6457 141.007 94.7311 148.06 97.3115C153.135 99.2038 160.016 97.9136 165.177 97.7416C171.972 97.5695 178.768 97.3975 185.563 97.2255C192.1 97.0535 198.723 97.1395 205.346 96.7094C207.668 96.5374 210.679 95.4192 212.915 96.2793C216.356 97.6556 219.796 100.924 222.807 103.074C224.183 104.021 225.473 101.784 224.097 100.838C221.775 99.2038 219.366 97.6556 217.044 96.0213C215.754 95.1611 213.947 93.2688 212.485 93.0108C211.195 92.7527 209.303 93.6989 207.926 93.9569C205.002 94.387 202.077 94.301 199.153 94.387C188.659 94.645 178.251 94.9031 167.758 95.1611C163.113 95.2472 158.382 95.5912 153.737 95.5052C150.727 95.4192 148.146 95.2471 146.254 92.7527C145.136 91.2045 144.19 89.1401 144.018 87.1618C143.76 82.9471 144.276 78.4743 144.19 74.1736C144.104 68.9267 143.932 63.5938 143.588 58.3469C143.072 49.7455 141.179 39.5957 145.136 31.5104C149.437 22.8229 159.414 21.2746 168.102 21.5327C177.133 21.8767 186.251 23.167 195.282 24.1131C200.099 24.6292 205.346 24.5432 210.077 25.5754C216.442 27.0376 218.334 34.0048 218.936 39.7678C220.141 50.5196 219.108 61.7875 219.022 72.5393C219.022 75.2918 219.022 78.0442 218.936 80.8827C218.85 82.259 218.85 83.8072 218.506 85.0974C218.248 86.1296 217.216 87.5919 217.13 88.624C216.958 90.2583 218.334 92.1506 218.936 93.6129C220.141 96.4514 221.517 99.2898 222.119 102.386C222.463 104.021 224.957 103.333 224.613 101.698Z" fill="#1D1D1B"/>
<path d="M148.232 85.4415C148.232 87.8499 149.437 89.9143 151.415 91.2905C152.791 92.2367 154.081 90.0003 152.705 89.0541C151.501 88.194 150.813 86.9038 150.813 85.4415C150.813 83.8073 148.232 83.8073 148.232 85.4415Z" fill="#1D1D1B"/>
<path d="M153.823 87.1617C153.995 89.7422 155.63 91.9786 158.124 92.7527C159.672 93.2688 160.36 90.7744 158.812 90.2583C157.436 89.8282 156.49 88.538 156.404 87.1617C156.318 85.5275 153.737 85.5275 153.823 87.1617Z" fill="#1D1D1B"/>
<path d="M205.517 31.2526C207.152 31.6826 208.442 32.9728 208.958 34.6071C209.388 36.2414 211.883 35.5533 211.452 33.919C210.764 31.4246 208.786 29.4462 206.206 28.7581C204.571 28.3281 203.883 30.8225 205.517 31.2526Z" fill="#1D1D1B"/>
<path d="M261 39.4058V85.925H325.255L356.964 50.8117V28L261 39.4058Z" fill="#FF38AA"/>
<path d="M329.376 81.3866L345.261 85.9251L360.07 71.414L352.904 55.2905L329.376 81.3866Z" fill="#FF38AA"/>
<path d="M350.814 80.491L356.965 87.0001L360.071 71.4141L350.814 80.491Z" fill="#A04AB5"/>
<path d="M329.376 81.3866L331.347 81.9241L353.681 56.9626L352.904 55.2905L329.376 81.3866Z" fill="#A04AB5"/>
</svg>
