<?xml version="1.0" encoding="utf-8"?>
<!-- Generator: Adobe Illustrator 23.0.0, SVG Export Plug-In . SVG Version: 6.00 Build 0)  -->
<svg version="1.1" id="Layer_1" xmlns="http://www.w3.org/2000/svg" xmlns:xlink="http://www.w3.org/1999/xlink" x="0px" y="0px"
	 width="18px" height="18px" viewBox="0 0 18 18" style="enable-background:new 0 0 18 18;" xml:space="preserve">
<style type="text/css">
	.st0{fill-rule:evenodd;clip-rule:evenodd;}
</style>
<path class="st0" d="M14.8,1.1H3.2C2,1.1,1.1,2,1.1,3.2v11.6c0,1.2,0.9,2.1,2.1,2.1h11.6c1.2,0,2.1-0.9,2.1-2.1V3.2
	C16.9,2,16,1.1,14.8,1.1z M3.2,0C1.4,0,0,1.4,0,3.2v11.6C0,16.6,1.4,18,3.2,18h11.6c1.8,0,3.2-1.4,3.2-3.2V3.2C18,1.4,16.6,0,14.8,0
	H3.2z"/>
<path d="M11.5,15.9c-2,0-3.5-1-4.3-2.9c-1.3-0.2-2.3-0.7-3-1.6c-0.7-0.9-1.1-1.9-1.1-3.2c0-1,0.2-1.8,0.7-2.6
	c0.4-0.8,1.1-1.4,1.9-1.8c0.8-0.4,1.7-0.6,2.8-0.6s2,0.2,2.8,0.6c0.8,0.4,1.4,1,1.9,1.8c0.4,0.8,0.7,1.6,0.7,2.6
	c0,1.3-0.4,2.4-1.1,3.2c-0.7,0.9-1.7,1.4-3,1.6c0.1,0.4,0.4,0.7,0.7,0.9c0.4,0.2,0.8,0.3,1.3,0.3c0.5,0,1-0.1,1.5-0.3v1.7
	C12.7,15.8,12.1,15.9,11.5,15.9z M8.5,11.2c0.8,0,1.4-0.3,1.8-0.8c0.4-0.6,0.7-1.3,0.7-2.2c0-0.9-0.2-1.6-0.7-2.2
	c-0.4-0.6-1-0.8-1.8-0.8c-0.8,0-1.4,0.3-1.8,0.8C6.3,6.5,6,7.2,6,8.1C6,9,6.3,9.7,6.7,10.3C7.1,10.9,7.7,11.2,8.5,11.2z"/>
</svg>
