<svg width="30" height="30" viewBox="0 0 30 30" fill="none" xmlns="http://www.w3.org/2000/svg">
<path fill-rule="evenodd" clip-rule="evenodd" d="M22.7041 11.75C22.7041 11.4739 22.4802 11.25 22.2041 11.25L7.50049 11.25C7.22435 11.25 7.00049 11.4739 7.00049 11.75C7.00049 12.0261 7.22435 12.25 7.50049 12.25L22.2041 12.25C22.4802 12.25 22.7041 12.0261 22.7041 11.75Z" fill="#999999"/>
<path fill-rule="evenodd" clip-rule="evenodd" d="M22.7041 18.25C22.7041 17.9739 22.4802 17.75 22.2041 17.75L7.50049 17.75C7.22435 17.75 7.00049 17.9739 7.00049 18.25C7.00049 18.5261 7.22435 18.75 7.50049 18.75L22.2041 18.75C22.4802 18.75 22.7041 18.5261 22.7041 18.25Z" fill="#999999"/>
<path fill-rule="evenodd" clip-rule="evenodd" d="M22.7041 15C22.7041 14.7239 22.4802 14.5 22.2041 14.5L7.50049 14.5C7.22435 14.5 7.00049 14.7239 7.00049 15C7.00049 15.2761 7.22435 15.5 7.50049 15.5L22.2041 15.5C22.4802 15.5 22.7041 15.2761 22.7041 15Z" fill="#999999"/>
<path fill-rule="evenodd" clip-rule="evenodd" d="M22.7041 8.5C22.7041 8.22386 22.4802 8 22.2041 8L7.50057 8C7.22443 8 7.00057 8.22386 7.00057 8.5C7.00057 8.77614 7.22443 9 7.50057 9L22.2041 9C22.4802 9 22.7041 8.77614 22.7041 8.5Z" fill="#999999"/>
<path fill-rule="evenodd" clip-rule="evenodd" d="M22.7041 21.5C22.7041 21.2239 22.4802 21 22.2041 21L7.50057 21C7.22443 21 7.00057 21.2239 7.00057 21.5C7.00057 21.7761 7.22443 22 7.50057 22L22.2041 22C22.4802 22 22.7041 21.7761 22.7041 21.5Z" fill="#999999"/>
</svg>
