<svg width="30" height="30" viewBox="0 0 30 30" fill="none" xmlns="http://www.w3.org/2000/svg">
<path d="M14.7778 9.00136L18.983 9C19.0005 9.04179 19.0061 9.09767 19 9.16763L18.9165 9.40204C18.5092 9.36661 17.8724 9.68553 17.6505 9.69644C17.4817 9.70189 17.0038 11.215 16.6081 13.4664L16.1919 15.8922C15.9031 17.5186 15.7348 18.6066 15.687 19.1563C15.6588 19.481 15.6268 19.7096 15.687 19.7523C16.0088 19.981 16.5546 19.9766 17.2752 20.0392C17.2926 20.081 17.2991 20.1269 17.2948 20.1769C17.2913 20.2169 17.2626 20.305 17.2087 20.4413L14.6384 20.4018C13.5293 20.4018 12.7258 20.3781 12.0714 20.4018C12.0365 20.3182 12.0226 20.2364 12.0296 20.1565L12.0713 20.0392C12.6666 19.9702 13.6081 19.7105 13.7891 19.5651C13.9814 19.4107 14.1297 19.1567 14.2341 18.8033C14.5525 17.683 14.8305 16.4233 15.0679 15.0241L15.3549 13.3574C15.5802 12.0981 15.715 11.2136 15.7594 10.7039C15.8037 10.1942 15.9849 9.55156 15.9118 9.5452C15.5698 9.48524 15.1029 9.43747 14.6956 9.40204C14.6886 9.36115 14.6886 9.30073 14.6956 9.22078C14.7025 9.14083 14.73 9.06769 14.7778 9.00136Z" fill="#999999"/>
</svg>
