<svg width="30" height="30" viewBox="0 0 30 30" fill="none" xmlns="http://www.w3.org/2000/svg">
<path d="M11 14H20V15H11V14Z" fill="#999999"/>
<path d="M17.7364 21.0408L15.5136 21C14.5377 21 13.7289 21.0363 13.0873 21.1088C13.0422 21.0544 13.0196 20.9773 13.0196 20.8776L13.0331 20.7687C13.6566 20.6689 14.0678 20.542 14.2666 20.3878C14.4654 20.2245 14.5964 19.9615 14.6596 19.5986C14.7861 18.9274 14.8494 14.6939 14.8494 13.1156C14.8494 11.5374 14.8313 10.4354 14.7952 9.80952C14.759 9.18367 14.7139 8.79365 14.6596 8.63946C14.4337 8.5941 14.1581 8.57143 13.8328 8.57143C13.0738 8.57143 12.4819 8.6712 12.0572 8.87075L11.4608 10.3673C11.253 10.3673 11.0994 10.3311 11 10.2585L11.2169 8.14966C11.2169 8.04989 11.2937 8 11.4473 8L13.8328 8.09524H17.1536L19.756 8C19.9187 8 20 8.04989 20 8.14966C19.8554 8.94785 19.7831 9.67801 19.7831 10.3401C19.7108 10.3764 19.6205 10.3946 19.512 10.3946C19.4036 10.3946 19.3178 10.3764 19.2545 10.3401C19.0919 9.44218 19.0015 8.95238 18.9834 8.87075C18.5316 8.6712 17.9127 8.57143 17.1265 8.57143C16.7741 8.57143 16.4895 8.5941 16.2726 8.63946C16.2455 8.72109 16.2093 9.09751 16.1642 9.76871C16.128 10.4399 16.1099 11.3016 16.1099 12.3537V17.898C16.1099 18.9048 16.1822 19.78 16.3268 20.5238C16.7425 20.5873 17.2123 20.619 17.7364 20.619C17.7636 20.6916 17.7771 20.7732 17.7771 20.8639C17.7771 20.9456 17.7636 21.0045 17.7364 21.0408Z" fill="#999999"/>
</svg>
