<svg width="30" height="30" viewBox="0 0 30 30" fill="none" xmlns="http://www.w3.org/2000/svg">
<path fill-rule="evenodd" clip-rule="evenodd" d="M11.4404 11.75C11.4404 11.4739 11.6643 11.25 11.9404 11.25L17.5956 11.25C17.8718 11.25 18.0956 11.4739 18.0956 11.75C18.0956 12.0261 17.8718 12.25 17.5956 12.25L11.9404 12.25C11.6643 12.25 11.4404 12.0261 11.4404 11.75Z" fill="#999999"/>
<path fill-rule="evenodd" clip-rule="evenodd" d="M11.4404 18.25C11.4404 17.9739 11.6643 17.75 11.9404 17.75L17.5956 17.75C17.8718 17.75 18.0956 17.9739 18.0956 18.25C18.0956 18.5261 17.8718 18.75 17.5956 18.75L11.9404 18.75C11.6643 18.75 11.4404 18.5261 11.4404 18.25Z" fill="#999999"/>
<path fill-rule="evenodd" clip-rule="evenodd" d="M9.21973 15C9.21973 14.7239 9.44358 14.5 9.71973 14.5L19.8991 14.5C20.1752 14.5 20.3991 14.7239 20.3991 15C20.3991 15.2761 20.1752 15.5 19.8991 15.5L9.71973 15.5C9.44358 15.5 9.21973 15.2761 9.21973 15Z" fill="#999999"/>
<path fill-rule="evenodd" clip-rule="evenodd" d="M7 8.5C7 8.22386 7.22386 8 7.5 8L22.2035 8C22.4797 8 22.7035 8.22386 22.7035 8.5C22.7035 8.77614 22.4797 9 22.2035 9L7.5 9C7.22386 9 7 8.77614 7 8.5Z" fill="#999999"/>
<path fill-rule="evenodd" clip-rule="evenodd" d="M7 21.5C7 21.2239 7.22386 21 7.5 21L22.2035 21C22.4797 21 22.7035 21.2239 22.7035 21.5C22.7035 21.7761 22.4797 22 22.2035 22L7.5 22C7.22386 22 7 21.7761 7 21.5Z" fill="#999999"/>
</svg>
