<svg width="30" height="30" viewBox="0 0 30 30" fill="none" xmlns="http://www.w3.org/2000/svg">
<path fill-rule="evenodd" clip-rule="evenodd" d="M13.9933 8H9V10.1978C9 10.4755 9.22386 10.7006 9.5 10.7006C9.77614 10.7006 10 10.4755 10 10.1978V9.00574H13.4933V20.4293H12.3081C12.032 20.4293 11.8081 20.6544 11.8081 20.9322C11.8081 21.2099 12.032 21.435 12.3081 21.435H15.6786C15.9547 21.435 16.1786 21.2099 16.1786 20.9322C16.1786 20.6544 15.9547 20.4293 15.6786 20.4293H14.4933V9.00574H17.9879V10.1978C17.9879 10.4755 18.2118 10.7006 18.4879 10.7006C18.764 10.7006 18.9879 10.4755 18.9879 10.1978V8H13.9933Z" fill="#999999"/>
<path fill-rule="evenodd" clip-rule="evenodd" d="M21.5 8C21.7761 8 22 8.22386 22 8.5V9.02083H21V8.5C21 8.22386 21.2239 8 21.5 8ZM21 12.1458V11.1042H22V12.1458H21ZM21 15.2708V14.2292H22V15.2708H21ZM21 18.3958V17.3542H22V18.3958H21ZM21 21V20.4792H22V21C22 21.2761 21.7761 21.5 21.5 21.5C21.2239 21.5 21 21.2761 21 21Z" fill="#999999"/>
</svg>
