<svg width="30" height="30" viewBox="0 0 30 30" fill="none" xmlns="http://www.w3.org/2000/svg">
<path d="M11 8H20V9H11V8Z" fill="#999999"/>
<path d="M12.4568 17.7223C12.4568 19.4605 12.9177 20.3296 13.8395 20.3296C14.465 20.3296 15.0494 19.9406 15.5926 19.1625C16.6296 17.7058 17.2634 15.7856 17.4938 13.4018C16.9177 13.1535 16.5144 12.7479 16.284 12.1851C16.1358 11.8375 16.0617 11.5478 16.0617 11.316C16.0617 11.0677 16.0947 10.8525 16.1605 10.6704C16.3086 10.2235 16.5802 10 16.9753 10C17.3704 10 17.6667 10.2566 17.8642 10.7698C18.0782 11.2664 18.1852 11.9037 18.1852 12.6817C18.1852 12.7314 18.1852 12.7893 18.1852 12.8555C18.3827 12.9217 18.6708 12.9549 19.0494 12.9549C19.4444 12.9549 19.7901 12.7976 20.0864 12.4831C20.3827 12.1685 20.5309 11.8789 20.5309 11.614C20.5309 11.5478 20.572 11.5064 20.6543 11.4898C20.7366 11.4567 20.8107 11.4567 20.8765 11.4898C20.9588 11.523 21 11.5726 21 11.6388C21 12.1189 20.7942 12.5741 20.3827 13.0045C19.9877 13.4349 19.4527 13.6501 18.7778 13.6501C18.6132 13.6501 18.3992 13.6336 18.1358 13.6005C18.037 14.7261 17.7984 15.8435 17.4198 16.9526C17.0576 18.0451 16.5473 18.997 15.8889 19.8081C15.2305 20.6027 14.5226 21 13.7654 21C12.3333 21 11.4527 20.2302 11.1235 18.6907C11.0412 18.2438 11 17.7886 11 17.3251C11 16.2822 11.2387 15.1648 11.716 13.9729C12.3416 12.4169 13.1152 11.4485 14.037 11.0677C14.5144 10.9022 14.8436 10.8774 15.0247 10.9932C15.2058 11.1091 15.321 11.2415 15.3704 11.3905C14.6132 11.3905 13.9383 12.1023 13.3457 13.526C12.7531 14.9496 12.4568 16.3484 12.4568 17.7223Z" fill="#999999"/>
</svg>
