<svg width="30" height="30" viewBox="0 0 30 30" fill="none" xmlns="http://www.w3.org/2000/svg">
<path fill-rule="evenodd" clip-rule="evenodd" d="M22.7031 11.75C22.7031 11.4739 22.4793 11.25 22.2031 11.25L16.5479 11.25C16.2718 11.25 16.0479 11.4739 16.0479 11.75C16.0479 12.0261 16.2718 12.25 16.5479 12.25L22.2031 12.25C22.4793 12.25 22.7031 12.0261 22.7031 11.75Z" fill="#999999"/>
<path fill-rule="evenodd" clip-rule="evenodd" d="M22.7031 18.25C22.7031 17.9739 22.4793 17.75 22.2031 17.75L16.5479 17.75C16.2718 17.75 16.0479 17.9739 16.0479 18.25C16.0479 18.5261 16.2718 18.75 16.5479 18.75L22.2031 18.75C22.4793 18.75 22.7031 18.5261 22.7031 18.25Z" fill="#999999"/>
<path fill-rule="evenodd" clip-rule="evenodd" d="M22.7031 15C22.7031 14.7239 22.4793 14.5 22.2031 14.5L12.0238 14.5C11.7476 14.5 11.5238 14.7239 11.5238 15C11.5238 15.2761 11.7476 15.5 12.0238 15.5L22.2031 15.5C22.4793 15.5 22.7031 15.2761 22.7031 15Z" fill="#999999"/>
<path fill-rule="evenodd" clip-rule="evenodd" d="M22.7031 8.5C22.7031 8.22386 22.4793 8 22.2031 8L7.49959 8C7.22345 8 6.99959 8.22386 6.99959 8.5C6.99959 8.77614 7.22345 9 7.49959 9L22.2031 9C22.4793 9 22.7031 8.77614 22.7031 8.5Z" fill="#999999"/>
<path fill-rule="evenodd" clip-rule="evenodd" d="M22.7031 21.5C22.7031 21.2239 22.4793 21 22.2031 21L7.49959 21C7.22345 21 6.99959 21.2239 6.99959 21.5C6.99959 21.7761 7.22345 22 7.49959 22L22.2031 22C22.4793 22 22.7031 21.7761 22.7031 21.5Z" fill="#999999"/>
</svg>
