<svg width="30" height="30" viewBox="0 0 30 30" fill="none" xmlns="http://www.w3.org/2000/svg">
<path d="M10 7H21V8H10V7Z" fill="#999999"/>
<path d="M10 21H21V22H10V21Z" fill="#999999"/>
<path d="M20.7376 19.8264H18.835C18.2081 19.8264 17.8946 19.5227 17.8946 18.9152V17.8087H17.8509C16.7866 19.2696 15.3651 20 13.5865 20C12.5368 20 11.6766 19.7324 11.006 19.1972C10.3353 18.6476 10 17.9099 10 16.9842C10 15.7982 10.5176 14.9303 11.5527 14.3807C12.6024 13.8166 14.0384 13.5345 15.8608 13.5345H17.6978V13.2742C17.6978 11.4661 16.7502 10.5621 14.8549 10.5621C13.9655 10.5621 13.3241 10.6489 12.9304 10.8225C12.5368 10.9816 12.2525 11.1118 12.0775 11.213C11.9172 11.3143 11.7932 11.3938 11.7058 11.4517C11.4871 11.6252 11.3267 11.6397 11.2247 11.4951L10.6123 10.7357C10.5103 10.62 10.5249 10.5043 10.6561 10.3886C10.9039 10.0703 11.4142 9.75937 12.1869 9.45562C12.9596 9.15187 13.8708 9 14.9205 9C17.9821 9 19.5129 10.4464 19.5129 13.3393V18.3728H20.7376C20.9125 18.3728 21 18.4596 21 18.6331V19.5661C21 19.7396 20.9125 19.8264 20.7376 19.8264ZM17.6978 14.8363H15.9702C15.1246 14.8363 14.4248 14.8797 13.8708 14.9665C13.3168 15.0533 12.8429 15.2413 12.4493 15.5306C12.0702 15.8199 11.8807 16.2176 11.8807 16.7239C11.8807 17.2301 12.0848 17.6496 12.493 17.9822C12.9158 18.3005 13.4626 18.4596 14.1332 18.4596C15.5474 18.4596 16.7356 17.8376 17.6978 16.5937V14.8363Z" fill="#999999"/>
</svg>
