<svg width="17" height="17" viewBox="0 0 17 17" fill="none" xmlns="http://www.w3.org/2000/svg">
<path fill-rule="evenodd" clip-rule="evenodd" d="M2.87831 1.25926C1.98927 1.25926 1.25926 1.98927 1.25926 2.87831V14.1217C1.25926 15.0107 1.98927 15.7407 2.87831 15.7407H14.1217C15.0107 15.7407 15.7407 15.0107 15.7407 14.1217V2.87831C15.7407 1.98927 15.0107 1.25926 14.1217 1.25926H2.87831ZM0 2.87831C0 1.2938 1.2938 0 2.87831 0H14.1217C15.7062 0 17 1.2938 17 2.87831V14.1217C17 15.7062 15.7062 17 14.1217 17H2.87831C1.2938 17 0 15.7062 0 14.1217V2.87831Z" fill="#00A3FF"/>
<path fill-rule="evenodd" clip-rule="evenodd" d="M5.01456 7.04736L13.7237 15.7565L12.8332 16.6469L5.01456 8.82823L1.07485 12.7679L0.184421 11.8775L5.01456 7.04736Z" fill="#00A3FF"/>
<path fill-rule="evenodd" clip-rule="evenodd" d="M12.9693 8.31224L16.6469 11.9899L15.7565 12.8803L12.9693 10.0931L10.3506 12.7118L9.4602 11.8213L12.9693 8.31224Z" fill="#00A3FF"/>
<path d="M9.34327 6.25132C10.1195 6.25132 10.7487 5.62209 10.7487 4.8459C10.7487 4.06971 10.1195 3.44048 9.34327 3.44048C8.56707 3.44048 7.93784 4.06971 7.93784 4.8459C7.93784 5.62209 8.56707 6.25132 9.34327 6.25132Z" fill="#00A3FF"/>
</svg>
