<svg width="30" height="30" viewBox="0 0 30 30" fill="none" xmlns="http://www.w3.org/2000/svg">
<path fill-rule="evenodd" clip-rule="evenodd" d="M15.2811 8L19.4215 12.2784C19.6135 12.4769 19.6084 12.7934 19.4099 12.9854C19.2115 13.1775 18.8949 13.1723 18.7029 12.9738L15.2811 9.43798L11.8593 12.9738C11.6673 13.1723 11.3507 13.1775 11.1523 12.9854C10.9539 12.7934 10.9487 12.4769 11.1407 12.2784L15.2811 8Z" fill="#999999"/>
<path fill-rule="evenodd" clip-rule="evenodd" d="M13.7686 11.2241C14.0447 11.2241 14.2686 11.4954 14.2686 11.8301L14.2686 22.3938C14.2686 22.7284 14.0447 22.9997 13.7686 22.9997C13.4924 22.9997 13.2686 22.7284 13.2686 22.3938L13.2686 11.8301C13.2686 11.4954 13.4924 11.2241 13.7686 11.2241Z" fill="#999999"/>
<path fill-rule="evenodd" clip-rule="evenodd" d="M16.7939 11.2241C17.0701 11.2241 17.2939 11.4954 17.2939 11.8301L17.2939 22.3938C17.2939 22.7284 17.0701 22.9997 16.7939 22.9997C16.5178 22.9997 16.2939 22.7284 16.2939 22.3938L16.2939 11.8301C16.2939 11.4954 16.5178 11.2241 16.7939 11.2241Z" fill="#999999"/>
</svg>
