<svg width="30" height="30" viewBox="0 0 30 30" fill="none" xmlns="http://www.w3.org/2000/svg">
<path d="M21.5 19C21.776 19 22 18.808 22 18.5714V11.4286C22 11.192 21.776 11 21.5 11C21.224 11 21 11.192 21 11.4286V18.5714C21 18.808 21.224 19 21.5 19Z" fill="#999999"/>
<path d="M7.5625 17H12.4375C12.748 17 13 16.748 13 16.4375C13 16.127 12.748 15.875 12.4375 15.875H8.12499V11.5625C8.12499 11.252 7.87299 11 7.5625 11C7.252 11 7 11.252 7 11.5625V16.4375C7 16.748 7.252 17 7.5625 17Z" fill="#999999"/>
<path d="M7.54175 16.9995C7.76708 16.9995 7.97655 16.8435 8.05378 16.5956C8.87275 13.9661 11.0611 12.1999 13.5 12.1999C15.9389 12.1999 18.1272 13.9661 18.9462 16.5956C19.0437 16.9092 19.3514 17.0754 19.6352 16.9667C19.9175 16.8586 20.0678 16.517 19.9703 16.2036C19.0004 13.091 16.4004 11 13.5 11C10.5996 11 7.99956 13.091 7.02971 16.2036C6.93225 16.517 7.08247 16.8579 7.36481 16.9667C7.42326 16.9891 7.4833 16.9995 7.54175 16.9995Z" fill="#999999"/>
</svg>
