<svg width="30" height="30" viewBox="0 0 30 30" fill="none" xmlns="http://www.w3.org/2000/svg">
<path fill-rule="evenodd" clip-rule="evenodd" d="M15.7191 8L19.8595 12.2784C20.0515 12.4769 20.0463 12.7934 19.8479 12.9854C19.6495 13.1775 19.3329 13.1723 19.1409 12.9738L15.7191 9.43798L12.2973 12.9738C12.1053 13.1723 11.7887 13.1775 11.5903 12.9854C11.3918 12.7934 11.3867 12.4769 11.5787 12.2784L15.7191 8Z" fill="#999999"/>
<path fill-rule="evenodd" clip-rule="evenodd" d="M15.7188 8.51953C15.9949 8.51953 16.2187 8.77943 16.2187 9.10004L16.2187 22.3599C16.2187 22.6805 15.9949 22.9404 15.7187 22.9404C15.4426 22.9404 15.2187 22.6805 15.2187 22.3599L15.2187 9.10004C15.2187 8.77943 15.4426 8.51953 15.7188 8.51953Z" fill="#999999"/>
</svg>
