<svg width="30" height="30" viewBox="0 0 30 30" fill="none" xmlns="http://www.w3.org/2000/svg">
<path fill-rule="evenodd" clip-rule="evenodd" d="M14.5117 6.35498L21.323 12.1184C21.5338 12.2967 21.5601 12.6122 21.3817 12.823C21.2033 13.0338 20.8879 13.0601 20.677 12.8817L14.4883 7.64512L7.80893 12.8932C7.5918 13.0638 7.27747 13.0261 7.10686 12.809C6.93626 12.5918 6.97397 12.2775 7.19111 12.1069L14.5117 6.35498ZM13 10.0001C13.2762 10.0001 13.5 10.2239 13.5 10.5001V17.5001C13.5 17.7762 13.2762 18.0001 13 18.0001C12.7239 18.0001 12.5 17.7762 12.5 17.5001V10.5001C12.5 10.2239 12.7239 10.0001 13 10.0001ZM16 10.0001C16.2762 10.0001 16.5 10.2239 16.5 10.5001V17.5001C16.5 17.7762 16.2762 18.0001 16 18.0001C15.7239 18.0001 15.5 17.7762 15.5 17.5001V10.5001C15.5 10.2239 15.7239 10.0001 16 10.0001Z" fill="#999999"/>
<path fill-rule="evenodd" clip-rule="evenodd" d="M11.5 20C11.5 19.7239 11.7239 19.5 12 19.5H17C17.2761 19.5 17.5 19.7239 17.5 20C17.5 20.2761 17.2761 20.5 17 20.5H12C11.7239 20.5 11.5 20.2761 11.5 20Z" fill="#999999"/>
</svg>
