<svg width="370" height="117" viewBox="0 0 370 117" fill="none" xmlns="http://www.w3.org/2000/svg">
<rect x="126.823" width="116.352" height="116.352" fill="white"/>
<rect x="253.647" width="116.352" height="116.352" fill="white"/>
<rect width="116.352" height="116.352" fill="white"/>
<path d="M54.9275 108.37L42.2514 95.553L79.6126 58.3322L42.2514 21.0764L54.9275 8.25977L105 58.3322L54.9275 108.37ZM56.0161 58.3322L23.8166 25.9923L11 38.6333L30.6287 58.262L11 77.8556L23.8166 90.5668L56.0161 58.3322Z" fill="#18B8C4"/>
<path d="M177.289 103.372C176.141 103.034 174.655 102.696 173.54 102.46C171.48 102.358 172.358 102.865 174.08 103.439C174.925 103.743 176.006 103.98 176.951 104.216C177.931 104.419 178.809 104.554 179.282 104.655L178.877 104.25C179.248 104.014 178.438 103.676 177.289 103.372ZM232.648 63.6852C232.344 65.9482 231.398 68.9204 230.891 71.4874C230.419 72.7709 229.709 74.257 229.034 75.2365C228.392 76.2498 227.784 76.7564 227.716 76.1822C225.926 79.6949 225.622 80.6069 225.453 81.6877C225.352 82.2281 225.251 82.7685 224.846 83.6129C224.474 84.4573 223.765 85.6057 222.414 87.2269C223.123 86.6527 223.765 85.9434 224.406 85.2342C225.048 84.4911 225.622 83.6805 226.197 82.8361C227.277 81.1135 228.324 79.2221 229.135 77.2631C230.858 73.3451 231.938 69.1906 233.289 65.5766C233.762 62.4692 233.019 62.199 232.648 63.6852ZM233.222 53.7889C233.019 53.8564 232.85 54.2617 232.749 54.9372C232.682 55.275 232.648 55.6465 232.58 56.0518C232.513 56.4571 232.445 56.93 232.411 57.3691C232.344 58.3148 232.175 59.2943 232.074 60.24C231.972 61.1858 231.837 62.0302 231.803 62.6719C232.107 62.4692 232.378 61.8951 232.614 61.0844C232.884 60.2738 233.019 59.2605 233.188 58.2135C233.391 56.5923 233.425 54.8697 233.458 53.5862C233.357 53.6538 233.222 53.5862 233.222 53.7889ZM233.458 52.5392C233.458 52.8094 233.458 53.1809 233.458 53.5862C233.526 53.4849 233.593 53.2822 233.458 52.5392ZM230.587 59.1592C230.689 58.889 230.756 58.5512 230.824 58.2135C230.858 57.8757 230.891 57.4704 230.891 57.0989C230.891 56.7274 230.891 56.322 230.858 55.9167C230.824 55.5452 230.79 55.1399 230.723 54.8021C230.655 55.3088 230.587 55.8154 230.486 56.322C230.486 56.6936 230.351 57.5042 230.317 58.1797C230.25 58.8552 230.25 59.3956 230.587 59.1592ZM228.966 38.6573L229.507 40.0421L230.047 38.7924C229.709 37.9818 229.304 37.1711 228.899 36.3943C229.777 38.5222 229.304 37.8467 228.764 37.0698C228.493 36.6983 228.223 36.293 228.088 36.2254C227.953 36.1579 227.987 36.3943 228.324 37.2725L228.966 38.6573ZM226.332 31.6995C225.926 31.0577 225.69 30.4835 225.487 30.0444C225.285 29.6054 225.082 29.2338 224.812 28.9636C224.508 28.7272 224.204 28.4908 223.9 28.2881C224.406 29.1325 224.812 29.7742 225.217 30.3147C225.589 30.8551 225.96 31.2942 226.332 31.6995ZM225.994 34.5029C226.399 35.6175 225.791 35.5837 226.805 37.1036C227.21 37.9142 227.21 37.3738 226.94 36.597C226.737 35.7863 226.298 34.7055 225.994 34.5029ZM146.587 84.7613C146.688 85.0315 146.756 85.3355 146.857 85.6057L148.208 86.9905C148.647 87.4296 149.154 87.8687 149.627 88.3078C148.749 86.923 147.398 85.5719 146.587 84.7613ZM164.927 99.116C163.981 98.6094 163.036 98.1027 162.056 97.5961C161.583 97.3597 161.111 97.0557 160.638 96.8193C160.165 96.5491 159.658 96.3126 159.219 96.0086C157.328 94.9278 155.504 93.6781 153.882 92.2595C153.139 91.7867 152.396 91.3138 151.62 90.8072C153.342 92.7324 155.977 95.2318 159.05 97.2921C162.124 99.3862 165.636 101.075 168.609 101.953C170.602 101.717 167.528 101.176 164.927 99.116ZM227.885 75.5067C228.156 75.0001 228.493 74.3583 228.831 73.649C229.135 72.9398 229.439 72.1629 229.675 71.4198C229.878 70.6768 230.047 70.0013 230.148 69.4608C230.216 68.9542 230.182 68.5827 230.047 68.4813C229.507 68.2787 228.966 69.8661 228.189 71.8927C227.818 72.9398 227.345 74.0544 226.872 75.169C226.332 76.2498 225.825 77.3306 225.251 78.175C225.893 75.9458 227.176 73.3113 228.257 70.3052C229.371 67.333 230.25 64.0229 230.351 60.9831C230.148 61.5911 229.946 62.1653 229.743 62.7732C230.25 59.3281 230.317 55.883 230.013 52.4716C230.013 51.0868 229.912 49.7358 229.709 48.486C229.979 49.0265 230.25 49.5331 230.486 50.0735C230.385 49.2629 230.283 48.4185 230.216 47.5741C230.115 46.7297 230.013 45.9191 229.912 45.176C229.777 44.433 229.608 43.7912 229.439 43.2846C229.236 42.7779 229 42.4064 228.73 42.2713C229.034 43.3183 229.135 44.0952 229.27 44.8045C229.439 45.5138 229.54 46.2568 229.844 47.2701C229.642 47.7092 229.236 46.3919 228.966 45.9191C228.358 43.3859 227.48 40.8865 226.433 38.4884C226.298 38.0493 226.163 37.6102 226.095 37.2049C225.825 36.8334 225.487 36.3268 225.116 35.7188C221.772 29.3689 216.807 23.7621 210.389 19.5402C204.783 15.8248 198.635 13.5956 192.387 12.6837C191.779 12.4472 191.137 12.2108 190.935 12.0082C188.503 11.9744 186.003 12.0419 183.504 12.2784C170.027 13.0552 157.057 19.9455 149.053 32.071C148.681 32.6452 148.309 33.2532 147.938 33.8273C147.837 33.8949 147.769 33.9287 147.668 33.9962C147.161 34.334 146.621 34.7731 146.047 35.2797C145.472 35.7863 144.898 36.3943 144.29 37.036C143.682 37.7116 143.074 38.4546 142.466 39.299C141.892 40.1434 141.25 41.0554 140.676 42.0349C140.068 43.0144 139.562 44.0952 139.021 45.2436C138.514 46.3919 138.008 47.6079 137.603 48.9251C137.603 49.2291 137.603 49.4655 137.636 49.4655C137.265 52.2014 136.893 55.4776 137.028 58.8552C137.163 62.2328 137.805 65.6442 139.122 68.4138C138.92 67.029 138.818 66.3197 138.785 65.4077C138.751 64.9687 138.717 64.462 138.65 63.8203C138.616 63.1785 138.548 62.3679 138.481 61.2871C138.852 62.0639 139.122 62.8408 139.258 63.6514C139.46 64.462 139.528 65.2726 139.595 66.1508C139.798 67.8734 139.899 69.6973 140.541 71.5549C140.17 70.035 140.44 70.2039 140.879 71.0821C141.115 71.5212 141.385 72.1291 141.689 72.7709C141.993 73.4126 142.297 74.0881 142.601 74.6961C143.412 77.0604 144.864 80.0327 146.823 82.9036C148.782 85.8083 151.248 88.6117 153.781 90.9085C154.389 91.3476 155.301 92.0569 156.281 92.9013C156.787 93.3066 157.328 93.7119 157.868 94.1172C158.408 94.5225 158.983 94.894 159.523 95.2656C160.063 95.6371 160.604 95.9411 161.077 96.2113C161.55 96.4815 161.989 96.7179 162.326 96.853C163.036 97.1232 163.407 97.157 163.238 96.7179C163.677 96.9544 164.083 97.1908 164.454 97.3935C164.826 97.5961 165.13 97.765 165.434 97.9676C166.008 98.3392 166.447 98.6769 166.886 98.9809C167.731 99.6227 168.474 100.264 169.892 100.906C172.189 101.379 174.283 101.953 176.343 102.527C177.357 102.831 178.404 103.102 179.417 103.372L180.971 103.743C181.477 103.878 182.018 104.014 182.558 104.115C184.686 104.588 186.881 104.824 189.178 104.824C191.475 104.79 193.873 104.385 196.237 103.439C196.001 103.845 197.116 103.777 198.534 103.439C199.953 103.135 201.642 102.561 202.587 102.257C203.094 102.055 203.702 101.852 204.344 101.582C204.985 101.345 205.661 101.007 206.37 100.703C207.755 100.062 209.207 99.2849 210.389 98.5081C212.754 96.9544 214.172 95.5358 212.889 95.6371C211.47 96.11 209.714 97.3597 207.654 98.5756C205.627 99.7915 203.263 100.906 201.034 101.21C200.088 101.345 199.48 101.379 199.176 101.345C198.872 101.311 198.804 101.244 198.973 101.143C199.311 100.94 200.426 100.501 201.777 99.9604C202.452 99.6564 203.161 99.3862 203.837 99.0485C204.512 98.7107 205.188 98.373 205.762 98.069C206.911 97.3935 207.687 96.8193 207.552 96.5153C207.147 96.853 206.674 96.853 205.965 96.9882C205.357 97.1233 204.58 97.3259 203.465 97.9001C205.762 96.6166 205.12 96.5828 204.141 96.6842C205.83 95.9411 207.451 95.0629 209.038 94.0834C210.085 94.0497 210.761 94.1847 210.761 94.6914C212.754 93.8808 214.578 92.7662 216.165 91.4151C216.976 90.7734 217.685 89.9966 218.428 89.2535C218.8 88.882 219.104 88.4766 219.475 88.0713C219.813 87.666 220.151 87.2607 220.455 86.8554C221.772 85.2004 222.92 83.3765 224.136 81.485C225.386 79.5936 226.602 77.6346 227.885 75.5067Z" fill="#FFCE09"/>
<path d="M286.207 17.9939C274.577 25.3618 267.143 39.5688 264.731 52.9168C258.619 86.6172 291.89 115.527 324.467 105.516C338.476 101.221 350.172 90.1525 355.59 76.5401C358.927 68.115 359.985 58.6987 358.002 49.8441C355.524 38.8089 348.388 29.0952 339.17 22.5534C324.137 11.8816 302.925 7.65253 286.571 17.7296L286.207 17.9939Z" fill="#FF0000"/>
<path d="M317.626 23.9214C317.692 23.8883 317.726 23.822 317.759 23.7557C317.792 23.6895 317.826 23.6563 317.859 23.5901C318.824 21.9334 318.957 19.4815 317.127 18.355C315.43 17.3279 313.366 17.9574 312.202 19.4484C311.137 20.8069 310.771 22.828 311.902 24.2527C313.499 26.2407 316.128 25.6774 317.626 23.9214ZM313.699 20.3099C314.331 19.6141 315.43 19.2496 316.262 19.8129C317.293 20.5418 316.827 22.0328 316.262 22.8943C315.43 23.9877 313.433 24.2196 312.967 22.6623C312.734 21.8671 313.133 20.9063 313.699 20.3099ZM317.593 62.4884C317.892 62.2565 318.092 61.9251 318.125 61.5607C318.158 60.6661 316.861 61.1299 317.46 62.2565C317.493 62.3559 317.526 62.4221 317.593 62.4884ZM311.836 44.7953C312.534 44.5633 313.499 44.0001 313.433 43.1055C313.333 41.9458 312.002 41.9458 311.603 43.0061C311.403 43.6356 311.469 44.2651 311.836 44.7953ZM309.04 61.6601C309.573 61.1631 309.939 60.2685 308.94 60.2022C307.709 60.1028 307.742 61.3619 308.175 62.2233C308.508 62.0908 308.807 61.892 309.04 61.6601ZM300.854 78.9556C300.621 79.32 300.554 79.7508 300.654 80.1484C300.721 80.4466 300.82 80.7116 300.987 80.9436C301.619 80.7116 302.018 80.1152 301.985 79.4526C301.952 78.7236 301.353 78.2598 300.854 78.9556ZM311.769 78.7236C311.004 79.4857 311.503 80.4466 312.202 81.1092L312.335 80.9767C312.767 80.6454 313.067 80.2146 313.2 79.6845C313.4 78.823 312.568 77.9284 311.769 78.7236ZM322.218 77.8953C321.519 77.7296 321.42 78.6574 321.486 79.0881C321.519 79.32 321.619 79.552 321.786 79.7508C321.819 79.7176 321.852 79.6845 321.886 79.6514C322.285 79.2538 323.15 78.1272 322.218 77.8953ZM344.847 61.0637C345.347 60.401 344.515 59.7052 343.882 59.8046C336.694 60.9643 329.406 58.4793 324.182 53.5756C328.242 52.6478 331.969 50.693 335.03 47.9098C335.696 47.3134 334.997 46.3194 334.198 46.4851C329.739 47.4459 325.48 45.2591 322.485 42.1115C320.488 39.8584 319.39 36.5451 318.192 33.8613C317.26 31.7739 316.395 29.6203 315.563 27.4998C315.43 27.0359 314.93 26.804 314.464 26.9365C314.265 27.0028 314.098 27.1353 313.999 27.301C312.035 29.8522 309.872 32.2378 307.543 34.4246C303.782 38.003 298.957 41.9458 293.533 42.2772C292.934 42.3103 292.401 43.0061 292.8 43.5694C295.862 48.0423 300.221 51.455 305.313 53.3436C299.523 58.0485 291.802 59.7052 284.581 57.7835C283.815 57.5847 283.349 58.3799 283.616 59.0425C286.511 65.636 292.468 70.6391 299.489 72.0639C293.632 76.338 286.178 77.8622 279.09 76.2387C278.624 76.1061 278.158 76.4043 278.025 76.8682C277.958 77.1664 278.025 77.4646 278.225 77.6634C285.513 84.7207 293.233 91.9106 303.516 93.9649C305.213 94.2962 306.944 94.5282 308.707 94.5944C308.574 97.2451 308.541 98.3716 308.574 100.757C308.574 101.221 308.608 101.851 309.073 101.851C310.271 101.817 311.469 101.817 312.634 101.784C313.1 101.784 313.499 101.817 313.832 101.486C314.165 101.155 313.899 99.465 313.865 94.6607C313.865 94.5944 313.865 94.5613 313.865 94.5282C320.288 93.8655 326.478 91.7118 331.869 88.1997C336.528 85.1846 340.654 81.4737 344.149 77.1995C344.581 76.6694 344.348 75.7085 343.55 75.7417C338.491 75.8742 333.566 74.1181 329.772 70.8048C335.862 69.4795 341.22 66.0336 344.847 61.0637ZM337.693 76.7688C333.932 79.817 329.307 82.7328 324.248 82.4346C323.45 82.4014 322.618 82.2026 321.886 81.8713C321.586 82.0701 321.32 82.2689 321.054 82.4014C318.691 83.7599 314.864 84.5551 312.202 83.2298C311.27 83.793 310.238 84.1906 309.207 84.4557C306.544 85.1515 302.518 84.9195 300.355 82.8653C299.456 82.9978 298.524 83.0641 297.592 82.9978C294.132 82.8321 289.506 81.9044 288.075 78.326C288.674 78.2598 289.24 78.1604 289.805 78.0278C290.77 79.9164 293.133 80.6454 295.13 81.0098C296.494 81.2749 297.859 81.3743 299.256 81.3412C299.223 81.2749 299.19 81.2086 299.19 81.1424C298.691 79.8833 298.924 78.1272 300.088 77.2658C301.087 76.57 302.451 76.7688 303.183 77.7628C303.216 77.7959 303.25 77.8622 303.283 77.8953C304.048 79.1212 303.849 80.7448 302.784 81.7388C302.651 81.8713 302.484 82.0038 302.318 82.1364C302.451 82.2358 302.617 82.302 302.751 82.3683C304.781 83.3623 307.31 83.3623 309.439 82.6334C309.872 82.4677 310.338 82.302 310.737 82.0701L310.671 82.0038C309.639 80.811 309.373 78.8893 310.471 77.6302C311.37 76.6362 313.034 76.3049 314.132 77.1995C315.463 78.2598 315.23 80.2146 314.298 81.4074C314.165 81.5731 313.999 81.7719 313.865 81.9044C314.697 82.1032 315.529 82.1695 316.361 82.1032C317.826 82.0038 319.257 81.54 320.521 80.7448C320.222 80.3803 320.022 79.9496 319.889 79.4857C319.489 77.9284 320.355 76.2718 322.052 76.1393C323.383 76.0067 324.648 76.9013 324.581 78.326C324.481 79.1875 324.115 79.9827 323.483 80.5791C323.849 80.6454 324.182 80.7116 324.548 80.7116C328.708 80.8773 332.634 78.5911 335.829 76.1061C336.395 76.3712 337.06 76.6031 337.693 76.7688ZM300.122 42.0121C302.385 43.6687 305.047 44.6959 307.809 44.9941C308.574 45.0935 309.34 45.1266 310.072 45.0935C309.972 44.8284 309.905 44.5633 309.839 44.2651C309.539 42.5754 310.471 40.7199 312.301 40.488C314.065 40.256 315.23 41.8133 315.063 43.4699C314.897 44.6627 314.132 45.6899 313 46.1537C313.233 46.3525 313.499 46.4851 313.732 46.6507C314.897 47.214 316.195 47.5453 317.526 47.6116C320.055 47.7773 322.618 47.3465 324.914 46.3194C325.513 46.6839 326.178 47.0152 326.811 47.3134C322.884 49.3345 317.759 50.2291 313.599 48.4731C312.634 48.0755 311.769 47.4791 311.07 46.717C306.544 47.3465 301.852 45.6236 298.358 42.8404C298.957 42.5754 299.556 42.3103 300.122 42.0121ZM293.399 60.0697C295.196 63.7143 300.754 63.9463 304.248 63.3499C305.014 63.2173 305.746 63.0517 306.478 62.8197C305.979 61.9251 305.979 60.8317 306.478 59.9371C307.376 58.1479 310.305 57.8829 311.137 59.8709C311.802 61.4613 310.737 62.6541 309.373 63.4161C310.105 63.7806 310.87 64.0125 311.669 64.0788C312.801 64.2113 313.932 64.0788 314.997 63.7475C315.363 63.6149 315.729 63.4824 316.095 63.3499C315.063 61.7263 315.696 59.1419 318.025 59.3076C320.421 59.4733 320.022 61.7926 318.957 63.2505H319.024C320.088 63.5818 321.42 63.5487 322.518 63.5818C326.245 63.6149 329.839 62.6872 332.834 60.5998C333.533 60.7986 334.198 60.9974 334.897 61.1631C332.335 63.2836 329.207 64.642 325.912 65.0728C324.148 65.3047 322.385 65.371 320.621 65.2053C319.523 65.1722 318.458 64.9402 317.46 64.5095C315.063 65.9011 312.202 66.1993 309.573 65.3378C308.84 65.0728 308.175 64.6752 307.609 64.1782C307.21 64.3438 306.811 64.4432 306.444 64.5758C301.519 65.9674 293.799 65.7354 291.569 60.2022C292.201 60.1691 292.834 60.1359 293.399 60.0697Z" fill="white"/>
</svg>
