<svg width="30" height="30" viewBox="0 0 30 30" fill="none" xmlns="http://www.w3.org/2000/svg">
<path d="M15 21.4167C14.7585 21.4167 14.5625 21.2207 14.5625 20.9792V13.6875C14.5625 13.446 14.7585 13.25 15 13.25C15.2415 13.25 15.4375 13.446 15.4375 13.6875V20.9792C15.4375 21.2207 15.2415 21.4167 15 21.4167Z" fill="#999999"/>
<path d="M19.8122 12.6667H16.0205C15.779 12.6667 15.583 12.4707 15.583 12.2292C15.583 11.9877 15.779 11.7917 16.0205 11.7917H19.3747V8.4375C19.3747 8.196 19.5707 8 19.8122 8C20.0537 8 20.2497 8.196 20.2497 8.4375V12.2292C20.2497 12.4707 20.0537 12.6667 19.8122 12.6667Z" fill="#999999"/>
<path d="M19.8126 12.6665C19.6306 12.6665 19.4614 12.5528 19.399 12.3719C18.7375 10.4544 16.97 9.1665 15.0001 9.1665C13.0301 9.1665 11.2626 10.4544 10.6011 12.3719C10.5224 12.6006 10.2739 12.7218 10.0447 12.6426C9.81661 12.5638 9.69528 12.3147 9.774 12.0861C10.5574 9.81635 12.6574 8.2915 15.0001 8.2915C17.3428 8.2915 19.4428 9.81635 20.2262 12.0861C20.3049 12.3147 20.1835 12.5632 19.9555 12.6426C19.9083 12.6589 19.8598 12.6665 19.8126 12.6665Z" fill="#999999"/>
<path d="M8.7292 21.9998C8.32727 21.9998 8 21.6725 8 21.2706V13.3956C8 12.9937 8.32727 12.6665 8.7292 12.6665C8.92104 12.6665 9.10368 12.7429 9.24254 12.8823C9.25012 12.8898 9.2921 12.9377 9.29904 12.9459L12.9939 16.6389C13.173 16.8116 13.25 16.9942 13.25 17.1873C13.25 17.3681 13.1841 17.5414 13.0633 17.6767L9.26582 21.7664C9.13637 21.9105 8.93449 21.9998 8.7292 21.9998ZM8.62357 21.172C8.62239 21.1732 8.62068 21.175 8.61887 21.1767L8.62357 21.172ZM8.875 13.7573V20.902L12.3172 17.1949L8.875 13.7573ZM12.4158 17.2935H12.4222H12.4158Z" fill="#999999"/>
<path d="M21.2708 21.9998C21.0655 21.9998 20.8636 21.9105 20.7289 21.7612L16.9425 17.6831C16.8159 17.5413 16.75 17.3681 16.75 17.1873C16.75 16.9936 16.8275 16.8104 16.9676 16.6722C16.9746 16.6652 17.0218 16.6237 17.0289 16.6173L20.7225 12.9231C21.262 12.3655 22 12.8012 22 13.3956V21.2706C22 21.6725 21.6727 21.9998 21.2708 21.9998ZM21.3717 21.1674L21.3758 21.1714C21.3746 21.1697 21.3736 21.1686 21.3717 21.1674ZM17.6857 17.1972L21.125 20.9013V13.752L17.6857 17.1972Z" fill="#999999"/>
</svg>
