<svg width="30" height="30" viewBox="0 0 30 30" fill="none" xmlns="http://www.w3.org/2000/svg">
<path fill-rule="evenodd" clip-rule="evenodd" d="M22 13.6057C22 9.96341 19.0366 7 15.3943 7C11.7518 7 8.78864 9.96341 8.78864 13.6057C8.78864 15.2079 9.36195 16.6786 10.3142 17.8236L7.17866 20.9591C6.94045 21.1971 6.94045 21.5833 7.17866 21.8213C7.29778 21.9404 7.45387 22 7.60976 22C7.76586 22 7.92178 21.9404 8.04087 21.8213L11.1764 18.6858C12.3214 19.6381 13.7921 20.2114 15.3943 20.2114C19.0366 20.2114 22 17.2482 22 13.6057ZM20.7805 13.6057C20.7805 16.5756 18.3642 18.9919 15.3943 18.9919C12.4244 18.9919 10.0082 16.5756 10.0082 13.6057C10.0082 10.6358 12.4244 8.21951 15.3943 8.21951C18.3642 8.21951 20.7805 10.6358 20.7805 13.6057Z" fill="#999999"/>
<path fill-rule="evenodd" clip-rule="evenodd" d="M13 13.5C13 13.2239 13.2239 13 13.5 13H17.5C17.7761 13 18 13.2239 18 13.5C18 13.7761 17.7761 14 17.5 14H13.5C13.2239 14 13 13.7761 13 13.5Z" fill="#999999"/>
<path fill-rule="evenodd" clip-rule="evenodd" d="M15.5 11C15.7761 11 16 11.2239 16 11.5L16 15.5C16 15.7761 15.7761 16 15.5 16C15.2239 16 15 15.7761 15 15.5L15 11.5C15 11.2239 15.2239 11 15.5 11Z" fill="#999999"/>
</svg>
