<svg width="30" height="30" viewBox="0 0 30 30" fill="none" xmlns="http://www.w3.org/2000/svg">
<rect width="30" height="30" fill="#CCCCCC"/>
<rect width="30" height="30" fill="white"/>
<g filter="url(#filter0_d)">
<path d="M22 7.30297C21.7425 7.66205 21.4367 7.99868 21.0826 8.31287C20.7286 8.62706 20.3383 8.90385 19.9118 9.14323C19.4933 9.38262 19.0508 9.57338 18.584 9.71551C18.1173 9.85017 17.6506 9.91749 17.1838 9.91749L16.9062 9.93993C16.6004 10.299 16.3671 10.6469 16.2061 10.9835C16.0452 11.3201 15.9647 11.7166 15.9647 12.1729V19.3432C15.9647 20.3382 15.7354 21.2246 15.2767 22.0026C14.8261 22.7732 14.1582 23.4389 13.273 24L12.8747 23.5736C13.0115 23.4315 13.1201 23.2706 13.2006 23.0911C13.281 22.9041 13.3414 22.7133 13.3816 22.5188C13.4219 22.3243 13.446 22.1298 13.454 21.9353C13.4701 21.7333 13.4782 21.5426 13.4782 21.363V13.4746C13.4782 13.123 13.5546 12.7826 13.7075 12.4535C13.8685 12.1168 14.0696 11.7989 14.311 11.4997C14.5525 11.2004 14.818 10.9199 15.1077 10.6581C15.4054 10.3963 15.6911 10.1569 15.9647 9.93993L11.9694 9.91749C11.6636 9.91749 11.39 9.94741 11.1486 10.0073C10.9152 10.0596 10.6979 10.1382 10.4968 10.2429C10.2956 10.3476 10.1024 10.4785 9.91736 10.6356C9.73228 10.7927 9.54318 10.976 9.35005 11.1855L9 10.8376C9.26555 10.501 9.56329 10.1457 9.89322 9.77162C10.2312 9.39758 10.5933 9.05721 10.9796 8.7505C11.3739 8.44378 11.7923 8.18944 12.2349 7.98746C12.6855 7.78548 13.1563 7.68449 13.6472 7.68449H18.8617C19.0709 7.68449 19.3042 7.67327 19.5617 7.65083C19.8273 7.62838 20.0928 7.59098 20.3584 7.53861C20.624 7.48625 20.8734 7.41892 21.1068 7.33663C21.3482 7.24686 21.5494 7.13465 21.7103 7L22 7.30297Z" fill="#FF0000"/>
</g>
<defs>
<filter id="filter0_d" x="9" y="7" width="16" height="19" filterUnits="userSpaceOnUse" color-interpolation-filters="sRGB">
<feFlood flood-opacity="0" result="BackgroundImageFix"/>
<feColorMatrix in="SourceAlpha" type="matrix" values="0 0 0 0 0 0 0 0 0 0 0 0 0 0 0 0 0 0 127 0"/>
<feOffset dx="2" dy="1"/>
<feGaussianBlur stdDeviation="0.5"/>
<feColorMatrix type="matrix" values="0 0 0 0 0.996078 0 0 0 0 0.721412 0 0 0 0 0.188235 0 0 0 0.8 0"/>
<feBlend mode="normal" in2="BackgroundImageFix" result="effect1_dropShadow"/>
<feBlend mode="normal" in="SourceGraphic" in2="effect1_dropShadow" result="shape"/>
</filter>
</defs>
</svg>
