<?xml version="1.0" encoding="utf-8"?>
<!-- Generator: Adobe Illustrator 23.0.0, SVG Export Plug-In . SVG Version: 6.00 Build 0)  -->
<svg version="1.1" id="Layer_1" xmlns="http://www.w3.org/2000/svg" xmlns:xlink="http://www.w3.org/1999/xlink" x="0px" y="0px"
	 width="201px" height="38px" viewBox="0 0 201 38" style="enable-background:new 0 0 201 38;" xml:space="preserve">
<style type="text/css">
	.st0{fill:#0E4477;}
</style>
<path class="st0" d="M0.4,32.2V1.7h5.9v30.5H0.4z"/>
<path class="st0" d="M8.6,6.2h6.2v3.3c0.3-1.1,0.7-1.9,1.3-2.6c0.6-0.7,1.5-1,2.6-1c1.7,0,3,0.5,3.9,1.6c0.9,1.1,1.3,2.6,1.3,4.6v20
	h-6.1V12.8c0-0.6-0.1-1.1-0.4-1.5c-0.2-0.4-0.6-0.6-1-0.6c-0.6,0-1.1,0.3-1.3,0.9c-0.2,0.6-0.3,1.3-0.3,2.3v18.3H8.6V6.2z"/>
<path class="st0" d="M39.9,32.5c-1.6,0-2.8-0.3-3.4-1c-0.6-0.7-0.9-1.8-0.9-3.3V11.9h-1.7V7.2h1.7V1.7h6v5.5h1.8v4.7h-1.8v14.6
	c0,0.4,0,0.8,0.1,1c0.1,0.2,0.3,0.3,0.6,0.3c0.2,0,0.5,0,0.7,0c0.2,0,0.4,0,0.4,0V32c-0.4,0.1-0.9,0.2-1.6,0.3
	C41.2,32.4,40.6,32.5,39.9,32.5z"/>
<path class="st0" d="M45.4,1.5h6.4v7.2c0.7-1.9,1.9-2.8,3.8-2.8c1.7,0,3.1,0.6,4,1.7c0.9,1.1,1.3,2.6,1.3,4.6v20h-6.2V12.6
	c0-0.6-0.1-1-0.4-1.4c-0.3-0.4-0.6-0.5-1.1-0.5c-0.4,0-0.8,0.2-1,0.6c-0.2,0.4-0.4,0.8-0.4,1.3v19.6h-6.4V1.5z"/>
<path class="st0" d="M63.2,4.5V0.2h6.2v4.3H63.2z M63.2,32.2v-26h6.2v26H63.2z"/>
<path class="st0" d="M79.2,32.5c-2.7,0-4.6-0.7-5.7-2.2c-1.2-1.5-1.7-3.7-1.7-6.6V13.3c0-2.4,0.7-4.2,2.1-5.5
	c1.4-1.3,3.3-1.9,5.7-1.9c5,0,7.5,2.4,7.5,7.3v1.9c0,1.9,0,3.4-0.1,4.6h-9v5c0,0.9,0.1,1.6,0.3,2.1c0.2,0.5,0.6,0.7,1.2,0.7
	c0.5,0,0.8-0.1,1-0.4c0.2-0.3,0.3-0.6,0.4-1c0-0.4,0.1-0.9,0.1-1.6v-2.5H87v1.5c0,3-0.6,5.3-1.8,6.7C84,31.8,82,32.5,79.2,32.5z
	 M80.8,16.7v-3.3c0-1.9-0.5-2.8-1.4-2.8c-1,0-1.6,0.9-1.6,2.8v3.3H80.8z"/>
<path class="st0" d="M89.2,6.2h6.3v1.4c0.9-1.1,2.1-1.7,3.7-1.7c2,0,3.4,0.7,4.2,2c0.8,1.3,1.2,3.2,1.2,5.6v9.6c0,2-0.1,3.7-0.4,5
	c-0.2,1.3-0.8,2.3-1.6,3.1c-0.8,0.8-2,1.2-3.7,1.2c-1.6,0-2.7-0.4-3.5-1.3v6.2h-6.3V6.2z M97,27.6c0.6,0,0.9-0.3,1.1-0.8
	c0.2-0.5,0.2-1.3,0.2-2.3v-11c0-0.9-0.1-1.6-0.2-2.1c-0.2-0.5-0.5-0.7-1.1-0.7c-1,0-1.5,0.9-1.5,2.7v11.4c0,0.9,0.1,1.6,0.3,2.1
	C96,27.4,96.4,27.6,97,27.6z"/>
<path class="st0" d="M122.6,32.5c-2.5,0-4.3-0.7-5.6-2.2c-1.3-1.5-1.9-3.6-1.9-6.3V9.4c0-2.6,0.6-4.6,1.9-5.9c1.3-1.3,3.1-2,5.6-2
	c2.5,0,4.3,0.7,5.6,2c1.3,1.3,1.9,3.3,1.9,5.9v14.5c0,2.7-0.6,4.9-1.9,6.3C126.9,31.7,125.1,32.5,122.6,32.5z M122.6,26.9
	c0.5,0,0.9-0.2,1.1-0.7s0.3-1.1,0.3-2V9.3c0-0.7-0.1-1.2-0.3-1.6c-0.2-0.4-0.5-0.6-1.1-0.6c-1,0-1.5,0.8-1.5,2.3v14.9
	c0,0.9,0.1,1.5,0.3,2C121.7,26.6,122.1,26.9,122.6,26.9z"/>
<path class="st0" d="M132.5,6.2h6.2v3.3c0.3-1.1,0.7-1.9,1.3-2.6c0.6-0.7,1.5-1,2.6-1c1.8,0,3,0.5,3.9,1.6c0.9,1.1,1.3,2.6,1.3,4.6
	v20h-6.1V12.8c0-0.6-0.1-1.1-0.4-1.5c-0.2-0.4-0.6-0.6-1-0.6c-0.6,0-1.1,0.3-1.3,0.9c-0.2,0.6-0.3,1.3-0.3,2.3v18.3h-6.2V6.2z"/>
<path class="st0" d="M150.2,32.2V1.5h6.3v30.6H150.2z"/>
<path class="st0" d="M158.9,4.5V0.2h6.2v4.3H158.9z M158.9,32.2v-26h6.2v26H158.9z"/>
<path class="st0" d="M167.6,6.2h6.2v3.3c0.3-1.1,0.7-1.9,1.3-2.6c0.6-0.7,1.5-1,2.6-1c1.7,0,3,0.5,3.9,1.6c0.9,1.1,1.3,2.6,1.3,4.6
	v20h-6.1V12.8c0-0.6-0.1-1.1-0.4-1.5c-0.2-0.4-0.6-0.6-1-0.6c-0.6,0-1.1,0.3-1.3,0.9c-0.2,0.6-0.3,1.3-0.3,2.3v18.3h-6.2V6.2z"/>
<path class="st0" d="M192.6,32.5c-2.7,0-4.6-0.7-5.7-2.2c-1.2-1.5-1.7-3.7-1.7-6.6V13.3c0-2.4,0.7-4.2,2.1-5.5
	c1.4-1.3,3.3-1.9,5.7-1.9c5,0,7.5,2.4,7.5,7.3v1.9c0,1.9,0,3.4-0.1,4.6h-9v5c0,0.9,0.1,1.6,0.3,2.1c0.2,0.5,0.6,0.7,1.2,0.7
	c0.5,0,0.8-0.1,1-0.4c0.2-0.3,0.3-0.6,0.4-1c0-0.4,0.1-0.9,0.1-1.6v-2.5h6.2v1.5c0,3-0.6,5.3-1.8,6.7
	C197.4,31.8,195.4,32.5,192.6,32.5z M194.2,16.7v-3.3c0-1.9-0.5-2.8-1.4-2.8c-1,0-1.6,0.9-1.6,2.8v3.3H194.2z"/>
</svg>
