<svg width="44" height="45" viewBox="0 0 44 45" fill="none" xmlns="http://www.w3.org/2000/svg">
<path d="M40 22.5C40 32.7173 31.9411 41 22 41C12.0589 41 4 32.7173 4 22.5C4 12.2827 12.0589 4 22 4C31.9411 4 40 12.2827 40 22.5Z" fill="white"/>
<path fill-rule="evenodd" clip-rule="evenodd" d="M22 40C31.3632 40 39 32.191 39 22.5C39 12.809 31.3632 5 22 5C12.6368 5 5 12.809 5 22.5C5 32.191 12.6368 40 22 40ZM22 41C31.9411 41 40 32.7173 40 22.5C40 12.2827 31.9411 4 22 4C12.0589 4 4 12.2827 4 22.5C4 32.7173 12.0589 41 22 41Z" fill="#666666"/>
<path fill-rule="evenodd" clip-rule="evenodd" d="M26.3388 27.0459C26.5341 27.2412 26.8507 27.2412 27.0459 27.0459C27.2412 26.8507 27.2412 26.5341 27.0459 26.3388L22.8033 22.0962L27.0459 17.8536C27.2412 17.6583 27.2412 17.3417 27.0459 17.1464C26.8507 16.9512 26.5341 16.9512 26.3388 17.1464L22.0962 21.3891L17.8536 17.1464C17.6583 16.9512 17.3417 16.9512 17.1464 17.1464C16.9512 17.3417 16.9512 17.6583 17.1464 17.8536L21.3891 22.0962L17.1464 26.3388C16.9512 26.5341 16.9512 26.8507 17.1464 27.0459C17.3417 27.2412 17.6583 27.2412 17.8536 27.0459L22.0962 22.8033L26.3388 27.0459Z" fill="black"/>
</svg>
