<svg width="30" height="30" viewBox="0 0 30 30" fill="none" xmlns="http://www.w3.org/2000/svg">
<path d="M21.799 16.5861L20.973 17.3237L19.2898 16.6769L19.0608 15.7318L18.1807 11.7389L21.0388 10.4938L21.3935 10.9518C21.8828 11.9554 22.1572 13.0832 22.1572 14.2752C22.1572 15.0809 22.0312 15.8572 21.799 16.5861V16.5861Z" fill="#FE7D43"/>
<path d="M18.8563 12.2236L17.8532 11.7391L15.2744 9.92268L16.4238 7.3584L17.2443 7.15508V7.15476C19.078 7.83667 20.5535 9.2283 21.4036 10.973L18.8563 12.2236Z" fill="#EE6161"/>
<path d="M16.262 9.84938L15.7149 10.2329L12.445 10.7295L10.874 8.20558L11.5972 7.29479V7.29447C12.517 6.89883 13.5306 6.67973 14.5954 6.67973C15.5271 6.67973 16.4194 6.84733 17.2443 7.1547V7.15502L16.262 9.84938Z" fill="#C2A1D5"/>
<path d="M12.596 10.7939L10.7786 13.6489L7.60742 12.6678V11.294C8.37281 9.50187 9.80762 8.06386 11.5975 7.29432V7.29464L12.7467 9.92247L12.596 10.7939Z" fill="#8AC9FE"/>
<path d="M8.34276 17.896L7.48168 16.9418H7.48136C7.17016 16.1121 7 15.2137 7 14.2756C7 13.2172 7.21653 12.2097 7.60738 11.2943H7.6077L10.2531 12.4022L10.599 13.1967L10.8067 17.1048L8.34276 17.896Z" fill="#75CDD5"/>
<path d="M12.8185 21.1147H11.2885C9.54155 20.2684 8.16783 18.7729 7.48145 16.9411H7.48177L10.1605 15.917L11.9119 16.8036L14.2281 18.8872L12.8185 21.1147Z" fill="#6CF5C2"/>
<path d="M19.0949 15.7321L18.9546 16.356L17.2255 15.9176L17.1323 15.1196C17.2209 14.8544 17.2686 14.5704 17.2686 14.2755C17.2686 13.8674 17.1771 13.481 17.0137 13.1353L17.0511 12.4986L18.1809 11.8973L18.8566 12.2237C19.1559 12.8442 19.3239 13.5402 19.3239 14.2755C19.3239 14.7837 19.2433 15.2731 19.0949 15.7321V15.7321Z" fill="#FD6930"/>
<path d="M17.0138 13.1353C16.7217 12.517 16.1998 12.0289 15.5582 11.7814L15.3115 11.3174L15.8256 10.001L16.2624 9.84951C17.402 10.2787 18.3318 11.135 18.8567 12.2237L17.0138 13.1353Z" fill="#E94444"/>
<path d="M15.5582 11.7809C15.2598 11.6654 14.9351 11.6021 14.5958 11.6021C14.2324 11.6021 13.8864 11.6744 13.5707 11.8062L13.0313 11.7477L12.3896 10.4397L12.7468 9.92228C13.3148 9.68048 13.9398 9.54678 14.5958 9.54678C15.1824 9.54678 15.744 9.65361 16.2625 9.84903L15.5582 11.7809Z" fill="#A274BF"/>
<path d="M12.1493 13.1963L11.7272 13.5015L10.35 13.0242L10.2529 12.4018C10.7337 11.2884 11.6299 10.397 12.7464 9.92239L13.5703 11.8063C12.9367 12.0692 12.4259 12.5697 12.1493 13.1963V13.1963Z" fill="#26A6FE"/>
<path d="M18.2367 20.9426C17.1556 21.5343 15.9146 21.8711 14.5953 21.8711C13.4096 21.8711 12.2876 21.5995 11.2881 21.1153L12.5198 18.5246L13.7435 17.9758L17.5938 17.3239L18.7141 19.7013L18.2367 20.9426Z" fill="#FEE97D"/>
<path d="M22.9885 17.1733C23.0266 17.0636 22.9658 16.9443 22.8551 16.9097L21.8189 16.5863L19.856 15.9738C19.4171 17.3377 18.4647 18.4709 17.2256 19.1451L18.2229 20.9426L18.7506 21.8938C18.8062 21.9946 18.9342 22.0301 19.0337 21.9722C20.8683 20.9087 22.2874 19.2081 22.9885 17.1733V17.1733Z" fill="#FEC165"/>
<path d="M11.9235 14.2752C11.9235 14.594 11.9791 14.8998 12.0818 15.1832L12.0582 16.2974H10.912L10.1611 15.9172C9.97179 15.4058 9.86816 14.8525 9.86816 14.2752C9.86816 13.6096 10.0057 12.9763 10.2539 12.4018L12.1502 13.1963C12.0044 13.5261 11.9235 13.891 11.9235 14.2752V14.2752Z" fill="#2ABCC8"/>
<path d="M13.4804 18.2144L12.5209 18.5244C11.4357 17.9941 10.584 17.0599 10.1611 15.9174L12.0818 15.1833C12.3159 15.8313 12.7931 16.3629 13.4037 16.6677V16.668L13.8437 17.1635L13.4804 18.2144Z" fill="#00F2A6"/>
<path d="M16.8464 18.4347L16.846 18.4348C16.1769 18.7975 15.4106 19.0034 14.596 19.0034C13.8514 19.0034 13.1471 18.8313 12.5205 18.5243L13.4033 16.6676C13.7621 16.8467 14.1674 16.9481 14.596 16.9481C15.0489 16.9481 15.4752 16.8355 15.8488 16.6366L16.5215 16.6035L17.1797 17.4811L16.8464 18.4347Z" fill="#FEDF30"/>
<path d="M19.8554 15.9738L19.0801 15.732L17.1318 15.1195C16.914 15.7748 16.4382 16.3231 15.8369 16.6427L16.8312 18.435L17.225 19.145C18.464 18.4708 19.4165 17.3376 19.8554 15.9738V15.9738Z" fill="#FDB441"/>
</svg>
