<?xml version="1.0" encoding="utf-8"?>
<!-- Generator: Adobe Illustrator 23.0.0, SVG Export Plug-In . SVG Version: 6.00 Build 0)  -->
<svg version="1.1" id="Layer_1" xmlns="http://www.w3.org/2000/svg" xmlns:xlink="http://www.w3.org/1999/xlink" x="0px" y="0px"
	 width="135px" height="26px" viewBox="0 0 135 26" style="enable-background:new 0 0 135 26;" xml:space="preserve">
<style type="text/css">
	.st0{fill:#FFFFFF;}
</style>
<g>
	<path class="st0" d="M0.5,1.4h3.4v9.1l4.3-9.1h3.4l-4,7.9L11.6,23H8.1l-2.9-9.7l-1.4,2.8V23H0.5V1.4z"/>
	<path class="st0" d="M13.2,1.4h9.2v3.1h-5.8v5.7h4.6v3.1h-4.6v6.6h5.8V23h-9.2L13.2,1.4L13.2,1.4z"/>
	<path class="st0" d="M24.4,1.4h9.2v3.1h-5.8v5.7h4.6v3.1h-4.6v6.6h5.8V23h-9.2V1.4z"/>
	<path class="st0" d="M42.7,22.9c-0.6,0.2-1.4,0.4-2.2,0.4c-1.7,0-2.9-0.5-3.8-1.4c-0.9-0.9-1.3-2.3-1.3-4V6.5c0-1.7,0.4-3.1,1.3-4
		C37.5,1.5,38.7,1,40.4,1c1.7,0,2.9,0.5,3.8,1.4c0.9,0.9,1.3,2.3,1.3,4v11.4c0,1.4-0.3,2.6-1,3.6c0.1,0.2,0.3,0.3,0.5,0.4
		c0.2,0.1,0.4,0.1,0.8,0.1h0.5V25h-0.9C43.9,25,43,24.3,42.7,22.9z M42.2,18.1V6.3c0-1.4-0.6-2.1-1.8-2.1c-1.2,0-1.8,0.7-1.8,2.1
		v11.8c0,1.4,0.6,2.1,1.8,2.1C41.6,20.2,42.2,19.5,42.2,18.1z"/>
	<path class="st0" d="M49,21.9c-0.9-0.9-1.3-2.3-1.3-4V1.4h3.4v16.8c0,0.7,0.2,1.3,0.4,1.6c0.3,0.3,0.7,0.5,1.3,0.5
		c0.6,0,1-0.2,1.3-0.5c0.3-0.3,0.4-0.9,0.4-1.6V1.4h3.3v16.5c0,1.8-0.4,3.1-1.3,4c-0.9,0.9-2.1,1.4-3.8,1.4
		C51.1,23.3,49.9,22.8,49,21.9z"/>
	<path class="st0" d="M61.3,21.9c-0.9-0.9-1.3-2.3-1.3-4V6.5c0-1.7,0.4-3.1,1.3-4C62.1,1.5,63.4,1,65.1,1c1.7,0,2.9,0.5,3.8,1.4
		c0.9,0.9,1.3,2.3,1.3,4v11.4c0,1.7-0.4,3.1-1.3,4c-0.9,0.9-2.2,1.4-3.8,1.4C63.4,23.3,62.1,22.8,61.3,21.9z M66.8,18.1V6.3
		c0-1.4-0.6-2.1-1.8-2.1s-1.8,0.7-1.8,2.1v11.8c0,1.4,0.6,2.1,1.8,2.1C66.2,20.2,66.8,19.5,66.8,18.1z"/>
	<path class="st0" d="M75,4.5h-3.5V1.4h10.5v3.1h-3.5V23H75L75,4.5L75,4.5z"/>
	<path class="st0" d="M83.6,1.4h9.2v3.1H87v5.7h4.6v3.1H87v6.6h5.8V23h-9.2V1.4z"/>
	<path class="st0" d="M95.5,21.9c-0.8-0.9-1.3-2.3-1.3-4v-1.2h3.2v1.5c0,1.4,0.6,2.1,1.8,2.1c0.6,0,1-0.2,1.3-0.5
		c0.3-0.3,0.4-0.9,0.4-1.7c0-0.9-0.2-1.7-0.6-2.4c-0.4-0.7-1.2-1.5-2.3-2.5c-1.4-1.2-2.4-2.3-2.9-3.3c-0.6-1-0.8-2.1-0.8-3.4
		c0-1.7,0.4-3,1.3-4C96.4,1.5,97.7,1,99.3,1c1.6,0,2.8,0.5,3.7,1.4c0.8,0.9,1.2,2.3,1.2,4v0.9H101V6.3c0-0.7-0.1-1.3-0.4-1.6
		c-0.3-0.3-0.7-0.5-1.3-0.5c-1.1,0-1.7,0.7-1.7,2.1c0,0.8,0.2,1.5,0.6,2.2c0.4,0.7,1.2,1.5,2.3,2.5c1.4,1.2,2.4,2.4,2.9,3.4
		c0.5,1,0.8,2.2,0.8,3.6c0,1.8-0.4,3.1-1.3,4.1c-0.9,0.9-2.1,1.4-3.8,1.4C97.6,23.3,96.3,22.8,95.5,21.9z"/>
</g>
</svg>
