<svg width="143" height="30" viewBox="0 0 143 30" fill="none" xmlns="http://www.w3.org/2000/svg">
<path d="M0 0.384521H4.66727V11.8011L10.5824 0.384521H15.2497L9.70728 10.3352L15.3469 27.4822H10.4689L6.53093 15.3994L4.66727 18.8495V27.4822H0V0.384521Z" fill="#173F5F"/>
<path d="M17.534 0.384521H30.2394V4.24928H22.2013V11.4161H28.6026V15.2809H22.2013V23.6026H30.2556V27.4675H17.5502V0.384521H17.534Z" fill="#20639B"/>
<path d="M32.9141 0.384521H45.6195V4.24928H37.5651V11.4161H43.9664V15.2809H37.5651V23.6026H45.6195V27.4675H32.9141V0.384521Z" fill="#3CAEA3"/>
<path d="M58.1141 27.4086C57.239 27.7196 56.2019 27.8678 55.0188 27.8678C52.7339 27.8678 50.9836 27.2754 49.7681 26.0909C48.5528 24.9062 47.9531 23.233 47.9531 21.0562V6.81145C47.9531 4.64955 48.5528 2.9615 49.7681 1.7769C50.9836 0.5923 52.7339 0 55.0188 0C57.3038 0 59.054 0.5923 60.2695 1.7769C61.4849 2.9615 62.0845 4.63475 62.0845 6.81145V21.0562C62.0845 22.8627 61.647 24.3435 60.7718 25.5134C60.9339 25.765 61.1608 25.9428 61.4039 26.0168C61.6632 26.0909 62.0198 26.1352 62.5058 26.1352H63.2189V30H61.9873C59.8968 30 58.6003 29.1264 58.1141 27.4086ZM57.4335 21.3228V6.54491C57.4335 4.76801 56.6232 3.87956 55.0188 3.87956C53.4145 3.87956 52.6042 4.76801 52.6042 6.54491V21.3228C52.6042 23.0998 53.4145 23.9881 55.0188 23.9881C56.6394 24.003 57.4335 23.0998 57.4335 21.3228Z" fill="#F6D55C"/>
<path d="M66.8495 26.1051C65.6664 24.9354 65.0668 23.2472 65.0668 21.0557V0.384521H69.7341V21.3667C69.7341 22.2996 69.9447 22.966 70.3499 23.3806C70.755 23.7951 71.3384 24.0025 72.1002 24.0025C72.8618 24.0025 73.4452 23.7951 73.8504 23.3806C74.2555 22.966 74.4661 22.2996 74.4661 21.3667V0.384521H78.9553V21.0557C78.9553 23.2472 78.3556 24.9354 77.1726 26.1051C75.9895 27.275 74.2555 27.8672 72.0028 27.8672C69.7503 27.8672 68.0325 27.275 66.8495 26.1051Z" fill="#ED553B"/>
<path d="M83.7349 26.0909C82.5195 24.9062 81.9199 23.233 81.9199 21.0562V6.81145C81.9199 4.64955 82.5195 2.9615 83.7349 1.7769C84.9504 0.5923 86.7005 0 88.9856 0C91.2706 0 93.0208 0.5923 94.2363 1.7769C95.4517 2.9615 96.0513 4.63475 96.0513 6.81145V21.0562C96.0513 23.2181 95.4517 24.9062 94.2363 26.0909C93.0208 27.2754 91.2706 27.8678 88.9856 27.8678C86.7005 27.8678 84.9504 27.2754 83.7349 26.0909ZM91.4165 21.3228V6.54491C91.4165 4.76801 90.6062 3.87956 89.0018 3.87956C87.3975 3.87956 86.5871 4.76801 86.5871 6.54491V21.3228C86.5871 23.0998 87.3975 23.9881 89.0018 23.9881C90.6062 24.003 91.4165 23.0998 91.4165 21.3228Z" fill="#5C8BA9"/>
<path d="M102.68 4.26409H97.8022V0.384521H112.209V4.24928H107.331V27.4675H102.664V4.26409H102.68Z" fill="#FFA826"/>
<path d="M114.462 0.384521H127.167V4.24928H119.113V11.4161H125.514V15.2809H119.113V23.6026H127.167V27.4675H114.462V0.384521Z" fill="#FD6500"/>
<path d="M130.846 26.1056C129.695 24.9359 129.112 23.2477 129.112 21.0562V19.5015H133.52V21.3524C133.52 23.1145 134.33 23.9881 135.934 23.9881C136.728 23.9881 137.328 23.7809 137.734 23.3514C138.138 22.922 138.348 22.2409 138.348 21.2784C138.348 20.1382 138.073 19.1461 137.507 18.2725C136.939 17.4136 135.902 16.3771 134.379 15.1629C132.434 13.6229 131.105 12.231 130.343 10.9724C129.582 9.71373 129.193 8.30701 129.193 6.73741C129.193 4.59032 129.792 2.93189 130.975 1.76209C132.158 0.5923 133.876 0 136.145 0C138.381 0 140.067 0.5923 141.202 1.76209C142.352 2.93189 142.919 4.61994 142.919 6.81145V7.93683H138.511V6.54491C138.511 5.61204 138.317 4.9457 137.911 4.51629C137.522 4.08687 136.939 3.87956 136.177 3.87956C134.622 3.87956 133.844 4.7384 133.844 6.47088C133.844 7.44818 134.136 8.36624 134.719 9.22508C135.302 10.0839 136.356 11.1056 137.88 12.3198C139.824 13.8746 141.168 15.2814 141.899 16.54C142.627 17.7986 143 19.2941 143 20.997C143 23.2181 142.401 24.921 141.202 26.1056C140.003 27.2903 138.252 27.8825 135.967 27.8825C133.714 27.8677 131.996 27.2754 130.846 26.1056Z" fill="#0068C0"/>
</svg>
