<svg width="30" height="30" viewBox="0 0 30 30" fill="none" xmlns="http://www.w3.org/2000/svg">
<path d="M21.03 13.9103C20.9679 13.8499 20.8818 13.8151 20.794 13.8151C20.7062 13.8151 20.6201 13.8499 20.558 13.9103C20.496 13.9707 20.4603 14.0545 20.4603 14.1399C20.4603 14.2253 20.496 14.3091 20.558 14.3695C20.6201 14.43 20.7062 14.4647 20.794 14.4647C20.8818 14.4647 20.9679 14.43 21.03 14.3695C21.0921 14.3091 21.1278 14.2253 21.1278 14.1399C21.1278 14.0545 21.0921 13.9707 21.03 13.9103Z" fill="#999999"/>
<path d="M23.6663 21.3503H23.3131L21.5016 15.3337C21.4497 15.1615 21.2643 15.063 21.0874 15.1133C20.9105 15.1637 20.8091 15.3442 20.861 15.5163L21.4591 17.5028H16.628L19.0435 9.47998L20.1117 13.0279C20.1635 13.2 20.3489 13.2987 20.5259 13.2482C20.7028 13.1978 20.8042 13.0174 20.7523 12.8452L19.3638 8.23348C19.3221 8.09509 19.1917 8 19.0435 8C18.8953 8 18.7649 8.09509 18.7232 8.23348L15.8639 17.7304L15.8633 17.7322L14.774 21.3502H14.4208C14.2656 21.3502 14.1355 21.4535 14.0981 21.5931C14.0608 21.4535 13.9307 21.3502 13.7755 21.3502C13.4994 21.3502 13.2748 21.1317 13.2748 20.8631V15.4563C13.2748 14.5513 12.5183 13.8151 11.5883 13.8151H10.4156C10.2312 13.8151 10.0818 13.9605 10.0818 14.1399C10.0818 14.3192 10.2312 14.4646 10.4156 14.4646H11.5883C12.1502 14.4646 12.6073 14.9095 12.6073 15.4563V15.8937H10.1374C8.40742 15.8937 7 17.2633 7 18.9468C7 20.6303 8.40742 21.9999 10.1374 21.9999H11.6293C12.0944 21.9999 12.5147 21.8109 12.8142 21.508C13.0252 21.8049 13.3773 21.9999 13.7755 21.9999C13.9307 21.9999 14.0608 21.8966 14.0982 21.757C14.1355 21.8966 14.2656 21.9999 14.4208 21.9999H15.0228L15.0241 22L15.0265 21.9999H15.6272C15.8115 21.9999 15.9609 21.8545 15.9609 21.6751C15.9609 21.4958 15.8115 21.3503 15.6272 21.3503H15.4696L16.4324 18.1524H21.6547L22.6175 21.3503H22.4599C22.2756 21.3503 22.1261 21.4958 22.1261 21.6751C22.1261 21.8545 22.2756 21.9999 22.4599 21.9999H23.0605L23.0629 22L23.0643 21.9999H23.6662C23.8506 21.9999 24 21.8545 24 21.6751C24 21.4957 23.8506 21.3503 23.6663 21.3503ZM12.6073 20.3986C12.6073 20.9234 12.1685 21.3503 11.6293 21.3503H10.1374C8.77551 21.3503 7.66752 20.2721 7.66752 18.9468C7.66752 17.6215 8.77551 16.5433 10.1374 16.5433H12.6073V20.3986Z" fill="#999999"/>
<path d="M9.3295 13.9103C9.26741 13.8496 9.18132 13.8151 9.09353 13.8151C9.00574 13.8151 8.91964 13.8496 8.85755 13.9103C8.79546 13.9707 8.75977 14.0542 8.75977 14.1399C8.75977 14.2253 8.7955 14.3091 8.85755 14.3695C8.91964 14.43 9.00574 14.4647 9.09353 14.4647C9.18132 14.4647 9.26741 14.43 9.3295 14.3695C9.39159 14.3091 9.42728 14.2253 9.42728 14.1399C9.42728 14.0545 9.39159 13.9707 9.3295 13.9103Z" fill="#999999"/>
</svg>
